0
SECTION
2
ENTITIES
0
3DFACE
8
0
10
-141.88205
20
-130.40155
30
-733.0127
11
-169.59845
21
-141.88205
31
-733.0127
12
-158.11794
22
-169.59845
32
-733.0127
13
-158.11783
23
-169.59834
33
-733.0126
0
3DFACE
8
0
10
-141.88205
20
-130.40155
30
-733.0127
11
-158.11794
21
-169.59845
31
-733.0127
12
-130.40155
22
-158.11794
32
-733.0127
13
-130.40144
23
-158.11783
33
-733.0126
0
3DFACE
8
0
10
-169.59845
20
-141.88205
30
-733.0127
11
-141.88205
21
-130.40155
31
-733.0127
12
-141.88205
22
-130.40155
32
-728.0127
13
-141.88194
23
-130.40144
33
-728.0126
0
3DFACE
8
0
10
-169.59845
20
-141.88205
30
-733.0127
11
-141.88205
21
-130.40155
31
-728.0127
12
-169.59845
22
-141.88205
32
-728.0127
13
-169.59834
23
-141.88194
33
-728.0126
0
3DFACE
8
0
10
-158.11794
20
-169.59845
30
-728.0127
11
-158.11794
21
-169.59845
31
-733.0127
12
-169.59845
22
-141.88205
32
-733.0127
13
-169.59834
23
-141.88194
33
-733.0126
0
3DFACE
8
0
10
-158.11794
20
-169.59845
30
-728.0127
11
-169.59845
21
-141.88205
31
-733.0127
12
-169.59845
22
-141.88205
32
-728.0127
13
-169.59834
23
-141.88194
33
-728.0126
0
3DFACE
8
0
10
-130.40155
20
-158.11794
30
-733.0127
11
-158.11794
21
-169.59845
31
-733.0127
12
-158.11794
22
-169.59845
32
-728.0127
13
-158.11783
23
-169.59834
33
-728.0126
0
3DFACE
8
0
10
-130.40155
20
-158.11794
30
-733.0127
11
-158.11794
21
-169.59845
31
-728.0127
12
-130.40155
22
-158.11794
32
-728.0127
13
-130.40144
23
-158.11783
33
-728.0126
0
3DFACE
8
0
10
-130.40155
20
-158.11794
30
-733.0127
11
-130.40155
21
-158.11794
31
-728.0127
12
-141.88205
22
-130.40155
32
-728.0127
13
-141.88194
23
-130.40144
33
-728.0126
0
3DFACE
8
0
10
-130.40155
20
-158.11794
30
-733.0127
11
-141.88205
21
-130.40155
31
-728.0127
12
-141.88205
22
-130.40155
32
-733.0127
13
-141.88194
23
-130.40144
33
-733.0126
0
3DFACE
8
0
10
-169.59845
20
-141.88205
30
-728.0127
11
-141.88205
21
-130.40155
31
-728.0127
12
-141.88205
22
-130.40155
32
-723.0127
13
-141.88194
23
-130.40144
33
-723.0126
0
3DFACE
8
0
10
-169.59845
20
-141.88205
30
-728.0127
11
-141.88205
21
-130.40155
31
-723.0127
12
-169.59845
22
-141.88205
32
-723.0127
13
-169.59834
23
-141.88194
33
-723.0126
0
3DFACE
8
0
10
-158.11794
20
-169.59845
30
-723.0127
11
-158.11794
21
-169.59845
31
-728.0127
12
-169.59845
22
-141.88205
32
-728.0127
13
-169.59834
23
-141.88194
33
-728.0126
0
3DFACE
8
0
10
-158.11794
20
-169.59845
30
-723.0127
11
-169.59845
21
-141.88205
31
-728.0127
12
-169.59845
22
-141.88205
32
-723.0127
13
-169.59834
23
-141.88194
33
-723.0126
0
3DFACE
8
0
10
-130.40155
20
-158.11794
30
-728.0127
11
-158.11794
21
-169.59845
31
-728.0127
12
-158.11794
22
-169.59845
32
-723.0127
13
-158.11783
23
-169.59834
33
-723.0126
0
3DFACE
8
0
10
-130.40155
20
-158.11794
30
-728.0127
11
-158.11794
21
-169.59845
31
-723.0127
12
-130.40155
22
-158.11794
32
-723.0127
13
-130.40144
23
-158.11783
33
-723.0126
0
3DFACE
8
0
10
-130.40155
20
-158.11794
30
-728.0127
11
-130.40155
21
-158.11794
31
-723.0127
12
-141.88205
22
-130.40155
32
-723.0127
13
-141.88194
23
-130.40144
33
-723.0126
0
3DFACE
8
0
10
-130.40155
20
-158.11794
30
-728.0127
11
-141.88205
21
-130.40155
31
-723.0127
12
-141.88205
22
-130.40155
32
-728.0127
13
-141.88194
23
-130.40144
33
-728.0126
0
3DFACE
8
0
10
-169.59845
20
-141.88205
30
-723.0127
11
-141.88205
21
-130.40155
31
-723.0127
12
-141.88205
22
-130.40155
32
-718.0127
13
-141.88194
23
-130.40144
33
-718.0126
0
3DFACE
8
0
10
-169.59845
20
-141.88205
30
-723.0127
11
-141.88205
21
-130.40155
31
-718.0127
12
-169.59845
22
-141.88205
32
-718.0127
13
-169.59834
23
-141.88194
33
-718.0126
0
3DFACE
8
0
10
-158.11794
20
-169.59845
30
-718.0127
11
-158.11794
21
-169.59845
31
-723.0127
12
-169.59845
22
-141.88205
32
-723.0127
13
-169.59834
23
-141.88194
33
-723.0126
0
3DFACE
8
0
10
-158.11794
20
-169.59845
30
-718.0127
11
-169.59845
21
-141.88205
31
-723.0127
12
-169.59845
22
-141.88205
32
-718.0127
13
-169.59834
23
-141.88194
33
-718.0126
0
3DFACE
8
0
10
-130.40155
20
-158.11794
30
-723.0127
11
-158.11794
21
-169.59845
31
-723.0127
12
-158.11794
22
-169.59845
32
-718.0127
13
-158.11783
23
-169.59834
33
-718.0126
0
3DFACE
8
0
10
-130.40155
20
-158.11794
30
-723.0127
11
-158.11794
21
-169.59845
31
-718.0127
12
-130.40155
22
-158.11794
32
-718.0127
13
-130.40144
23
-158.11783
33
-718.0126
0
3DFACE
8
0
10
-130.40155
20
-158.11794
30
-723.0127
11
-130.40155
21
-158.11794
31
-718.0127
12
-141.88205
22
-130.40155
32
-718.0127
13
-141.88194
23
-130.40144
33
-718.0126
0
3DFACE
8
0
10
-130.40155
20
-158.11794
30
-723.0127
11
-141.88205
21
-130.40155
31
-718.0127
12
-141.88205
22
-130.40155
32
-723.0127
13
-141.88194
23
-130.40144
33
-723.0126
0
3DFACE
8
0
10
-169.59845
20
-141.88205
30
-718.0127
11
-141.88205
21
-130.40155
31
-718.0127
12
-141.88205
22
-130.40155
32
-713.0127
13
-141.88194
23
-130.40144
33
-713.0126
0
3DFACE
8
0
10
-169.59845
20
-141.88205
30
-718.0127
11
-141.88205
21
-130.40155
31
-713.0127
12
-169.59845
22
-141.88205
32
-713.0127
13
-169.59834
23
-141.88194
33
-713.0126
0
3DFACE
8
0
10
-158.11794
20
-169.59845
30
-713.0127
11
-158.11794
21
-169.59845
31
-718.0127
12
-169.59845
22
-141.88205
32
-718.0127
13
-169.59834
23
-141.88194
33
-718.0126
0
3DFACE
8
0
10
-158.11794
20
-169.59845
30
-713.0127
11
-169.59845
21
-141.88205
31
-718.0127
12
-169.59845
22
-141.88205
32
-713.0127
13
-169.59834
23
-141.88194
33
-713.0126
0
3DFACE
8
0
10
-130.40155
20
-158.11794
30
-718.0127
11
-158.11794
21
-169.59845
31
-718.0127
12
-158.11794
22
-169.59845
32
-713.0127
13
-158.11783
23
-169.59834
33
-713.0126
0
3DFACE
8
0
10
-130.40155
20
-158.11794
30
-718.0127
11
-158.11794
21
-169.59845
31
-713.0127
12
-130.40155
22
-158.11794
32
-713.0127
13
-130.40144
23
-158.11783
33
-713.0126
0
3DFACE
8
0
10
-130.40155
20
-158.11794
30
-718.0127
11
-130.40155
21
-158.11794
31
-713.0127
12
-141.88205
22
-130.40155
32
-713.0127
13
-141.88194
23
-130.40144
33
-713.0126
0
3DFACE
8
0
10
-130.40155
20
-158.11794
30
-718.0127
11
-141.88205
21
-130.40155
31
-713.0127
12
-141.88205
22
-130.40155
32
-718.0127
13
-141.88194
23
-130.40144
33
-718.0126
0
3DFACE
8
0
10
-169.59845
20
-141.88205
30
-713.0127
11
-141.88205
21
-130.40155
31
-713.0127
12
-141.88205
22
-130.40155
32
-708.0127
13
-141.88194
23
-130.40144
33
-708.0126
0
3DFACE
8
0
10
-169.59845
20
-141.88205
30
-713.0127
11
-141.88205
21
-130.40155
31
-708.0127
12
-169.59845
22
-141.88205
32
-708.0127
13
-169.59834
23
-141.88194
33
-708.0126
0
3DFACE
8
0
10
-158.11794
20
-169.59845
30
-708.0127
11
-158.11794
21
-169.59845
31
-713.0127
12
-169.59845
22
-141.88205
32
-713.0127
13
-169.59834
23
-141.88194
33
-713.0126
0
3DFACE
8
0
10
-158.11794
20
-169.59845
30
-708.0127
11
-169.59845
21
-141.88205
31
-713.0127
12
-169.59845
22
-141.88205
32
-708.0127
13
-169.59834
23
-141.88194
33
-708.0126
0
3DFACE
8
0
10
-130.40155
20
-158.11794
30
-713.0127
11
-158.11794
21
-169.59845
31
-713.0127
12
-158.11794
22
-169.59845
32
-708.0127
13
-158.11783
23
-169.59834
33
-708.0126
0
3DFACE
8
0
10
-130.40155
20
-158.11794
30
-713.0127
11
-158.11794
21
-169.59845
31
-708.0127
12
-130.40155
22
-158.11794
32
-708.0127
13
-130.40144
23
-158.11783
33
-708.0126
0
3DFACE
8
0
10
-130.40155
20
-158.11794
30
-713.0127
11
-130.40155
21
-158.11794
31
-708.0127
12
-141.88205
22
-130.40155
32
-708.0127
13
-141.88194
23
-130.40144
33
-708.0126
0
3DFACE
8
0
10
-130.40155
20
-158.11794
30
-713.0127
11
-141.88205
21
-130.40155
31
-708.0127
12
-141.88205
22
-130.40155
32
-713.0127
13
-141.88194
23
-130.40144
33
-713.0126
0
3DFACE
8
0
10
-169.59845
20
-141.88205
30
-708.0127
11
-141.88205
21
-130.40155
31
-708.0127
12
-141.88205
22
-130.40155
32
-703.0127
13
-141.88194
23
-130.40144
33
-703.0126
0
3DFACE
8
0
10
-169.59845
20
-141.88205
30
-708.0127
11
-141.88205
21
-130.40155
31
-703.0127
12
-169.59845
22
-141.88205
32
-703.0127
13
-169.59834
23
-141.88194
33
-703.0126
0
3DFACE
8
0
10
-158.11794
20
-169.59845
30
-703.0127
11
-158.11794
21
-169.59845
31
-708.0127
12
-169.59845
22
-141.88205
32
-708.0127
13
-169.59834
23
-141.88194
33
-708.0126
0
3DFACE
8
0
10
-158.11794
20
-169.59845
30
-703.0127
11
-169.59845
21
-141.88205
31
-708.0127
12
-169.59845
22
-141.88205
32
-703.0127
13
-169.59834
23
-141.88194
33
-703.0126
0
3DFACE
8
0
10
-130.40155
20
-158.11794
30
-708.0127
11
-158.11794
21
-169.59845
31
-708.0127
12
-158.11794
22
-169.59845
32
-703.0127
13
-158.11783
23
-169.59834
33
-703.0126
0
3DFACE
8
0
10
-130.40155
20
-158.11794
30
-708.0127
11
-158.11794
21
-169.59845
31
-703.0127
12
-130.40155
22
-158.11794
32
-703.0127
13
-130.40144
23
-158.11783
33
-703.0126
0
3DFACE
8
0
10
-130.40155
20
-158.11794
30
-708.0127
11
-130.40155
21
-158.11794
31
-703.0127
12
-141.88205
22
-130.40155
32
-703.0127
13
-141.88194
23
-130.40144
33
-703.0126
0
3DFACE
8
0
10
-130.40155
20
-158.11794
30
-708.0127
11
-141.88205
21
-130.40155
31
-703.0127
12
-141.88205
22
-130.40155
32
-708.0127
13
-141.88194
23
-130.40144
33
-708.0126
0
3DFACE
8
0
10
-169.59845
20
-141.88205
30
-703.0127
11
-141.88205
21
-130.40155
31
-703.0127
12
-141.88205
22
-130.40155
32
-698.0127
13
-141.88194
23
-130.40144
33
-698.0126
0
3DFACE
8
0
10
-169.59845
20
-141.88205
30
-703.0127
11
-141.88205
21
-130.40155
31
-698.0127
12
-169.59845
22
-141.88205
32
-698.0127
13
-169.59834
23
-141.88194
33
-698.0126
0
3DFACE
8
0
10
-158.11794
20
-169.59845
30
-698.0127
11
-158.11794
21
-169.59845
31
-703.0127
12
-169.59845
22
-141.88205
32
-703.0127
13
-169.59834
23
-141.88194
33
-703.0126
0
3DFACE
8
0
10
-158.11794
20
-169.59845
30
-698.0127
11
-169.59845
21
-141.88205
31
-703.0127
12
-169.59845
22
-141.88205
32
-698.0127
13
-169.59834
23
-141.88194
33
-698.0126
0
3DFACE
8
0
10
-130.40155
20
-158.11794
30
-703.0127
11
-158.11794
21
-169.59845
31
-703.0127
12
-158.11794
22
-169.59845
32
-698.0127
13
-158.11783
23
-169.59834
33
-698.0126
0
3DFACE
8
0
10
-130.40155
20
-158.11794
30
-703.0127
11
-158.11794
21
-169.59845
31
-698.0127
12
-130.40155
22
-158.11794
32
-698.0127
13
-130.40144
23
-158.11783
33
-698.0126
0
3DFACE
8
0
10
-130.40155
20
-158.11794
30
-703.0127
11
-130.40155
21
-158.11794
31
-698.0127
12
-141.88205
22
-130.40155
32
-698.0127
13
-141.88194
23
-130.40144
33
-698.0126
0
3DFACE
8
0
10
-130.40155
20
-158.11794
30
-703.0127
11
-141.88205
21
-130.40155
31
-698.0127
12
-141.88205
22
-130.40155
32
-703.0127
13
-141.88194
23
-130.40144
33
-703.0126
0
3DFACE
8
0
10
-169.59845
20
-141.88205
30
-698.0127
11
-141.88205
21
-130.40155
31
-698.0127
12
-141.88205
22
-130.40155
32
-693.0127
13
-141.88194
23
-130.40144
33
-693.0126
0
3DFACE
8
0
10
-169.59845
20
-141.88205
30
-698.0127
11
-141.88205
21
-130.40155
31
-693.0127
12
-169.59845
22
-141.88205
32
-693.0127
13
-169.59834
23
-141.88194
33
-693.0126
0
3DFACE
8
0
10
-158.11794
20
-169.59845
30
-693.0127
11
-158.11794
21
-169.59845
31
-698.0127
12
-169.59845
22
-141.88205
32
-698.0127
13
-169.59834
23
-141.88194
33
-698.0126
0
3DFACE
8
0
10
-158.11794
20
-169.59845
30
-693.0127
11
-169.59845
21
-141.88205
31
-698.0127
12
-169.59845
22
-141.88205
32
-693.0127
13
-169.59834
23
-141.88194
33
-693.0126
0
3DFACE
8
0
10
-130.40155
20
-158.11794
30
-698.0127
11
-158.11794
21
-169.59845
31
-698.0127
12
-158.11794
22
-169.59845
32
-693.0127
13
-158.11783
23
-169.59834
33
-693.0126
0
3DFACE
8
0
10
-130.40155
20
-158.11794
30
-698.0127
11
-158.11794
21
-169.59845
31
-693.0127
12
-130.40155
22
-158.11794
32
-693.0127
13
-130.40144
23
-158.11783
33
-693.0126
0
3DFACE
8
0
10
-130.40155
20
-158.11794
30
-698.0127
11
-130.40155
21
-158.11794
31
-693.0127
12
-141.88205
22
-130.40155
32
-693.0127
13
-141.88194
23
-130.40144
33
-693.0126
0
3DFACE
8
0
10
-130.40155
20
-158.11794
30
-698.0127
11
-141.88205
21
-130.40155
31
-693.0127
12
-141.88205
22
-130.40155
32
-698.0127
13
-141.88194
23
-130.40144
33
-698.0126
0
3DFACE
8
0
10
-169.59845
20
-141.88205
30
-693.0127
11
-141.88205
21
-130.40155
31
-693.0127
12
-141.88205
22
-130.40155
32
-688.0127
13
-141.88194
23
-130.40144
33
-688.0126
0
3DFACE
8
0
10
-169.59845
20
-141.88205
30
-693.0127
11
-141.88205
21
-130.40155
31
-688.0127
12
-169.59845
22
-141.88205
32
-688.0127
13
-169.59834
23
-141.88194
33
-688.0126
0
3DFACE
8
0
10
-158.11794
20
-169.59845
30
-688.0127
11
-158.11794
21
-169.59845
31
-693.0127
12
-169.59845
22
-141.88205
32
-693.0127
13
-169.59834
23
-141.88194
33
-693.0126
0
3DFACE
8
0
10
-158.11794
20
-169.59845
30
-688.0127
11
-169.59845
21
-141.88205
31
-693.0127
12
-169.59845
22
-141.88205
32
-688.0127
13
-169.59834
23
-141.88194
33
-688.0126
0
3DFACE
8
0
10
-130.40155
20
-158.11794
30
-693.0127
11
-158.11794
21
-169.59845
31
-693.0127
12
-158.11794
22
-169.59845
32
-688.0127
13
-158.11783
23
-169.59834
33
-688.0126
0
3DFACE
8
0
10
-130.40155
20
-158.11794
30
-693.0127
11
-158.11794
21
-169.59845
31
-688.0127
12
-130.40155
22
-158.11794
32
-688.0127
13
-130.40144
23
-158.11783
33
-688.0126
0
3DFACE
8
0
10
-130.40155
20
-158.11794
30
-693.0127
11
-130.40155
21
-158.11794
31
-688.0127
12
-141.88205
22
-130.40155
32
-688.0127
13
-141.88194
23
-130.40144
33
-688.0126
0
3DFACE
8
0
10
-130.40155
20
-158.11794
30
-693.0127
11
-141.88205
21
-130.40155
31
-688.0127
12
-141.88205
22
-130.40155
32
-693.0127
13
-141.88194
23
-130.40144
33
-693.0126
0
3DFACE
8
0
10
-169.59845
20
-141.88205
30
-688.0127
11
-141.88205
21
-130.40155
31
-688.0127
12
-141.88205
22
-130.40155
32
-683.0127
13
-141.88194
23
-130.40144
33
-683.0126
0
3DFACE
8
0
10
-169.59845
20
-141.88205
30
-688.0127
11
-141.88205
21
-130.40155
31
-683.0127
12
-169.59845
22
-141.88205
32
-683.0127
13
-169.59834
23
-141.88194
33
-683.0126
0
3DFACE
8
0
10
-158.11794
20
-169.59845
30
-683.0127
11
-158.11794
21
-169.59845
31
-688.0127
12
-169.59845
22
-141.88205
32
-688.0127
13
-169.59834
23
-141.88194
33
-688.0126
0
3DFACE
8
0
10
-158.11794
20
-169.59845
30
-683.0127
11
-169.59845
21
-141.88205
31
-688.0127
12
-169.59845
22
-141.88205
32
-683.0127
13
-169.59834
23
-141.88194
33
-683.0126
0
3DFACE
8
0
10
-130.40155
20
-158.11794
30
-688.0127
11
-158.11794
21
-169.59845
31
-688.0127
12
-158.11794
22
-169.59845
32
-683.0127
13
-158.11783
23
-169.59834
33
-683.0126
0
3DFACE
8
0
10
-130.40155
20
-158.11794
30
-688.0127
11
-158.11794
21
-169.59845
31
-683.0127
12
-130.40155
22
-158.11794
32
-683.0127
13
-130.40144
23
-158.11783
33
-683.0126
0
3DFACE
8
0
10
-130.40155
20
-158.11794
30
-688.0127
11
-130.40155
21
-158.11794
31
-683.0127
12
-141.88205
22
-130.40155
32
-683.0127
13
-141.88194
23
-130.40144
33
-683.0126
0
3DFACE
8
0
10
-130.40155
20
-158.11794
30
-688.0127
11
-141.88205
21
-130.40155
31
-683.0127
12
-141.88205
22
-130.40155
32
-688.0127
13
-141.88194
23
-130.40144
33
-688.0126
0
3DFACE
8
0
10
-169.59845
20
-141.88205
30
-683.0127
11
-141.88205
21
-130.40155
31
-683.0127
12
-142.65775
22
-130.09796
32
-678.0127
13
-142.65764
23
-130.09785
33
-678.0126
0
3DFACE
8
0
10
-169.59845
20
-141.88205
30
-683.0127
11
-142.65775
21
-130.09796
31
-678.0127
12
-169.90204
22
-142.65775
32
-678.0127
13
-169.90193
23
-142.65764
33
-678.0126
0
3DFACE
8
0
10
-169.90204
20
-142.65775
30
-678.0127
11
-157.34225
21
-169.90204
31
-678.0127
12
-158.11794
22
-169.59845
32
-683.0127
13
-158.11783
23
-169.59834
33
-683.0126
0
3DFACE
8
0
10
-169.90204
20
-142.65775
30
-678.0127
11
-158.11794
21
-169.59845
31
-683.0127
12
-169.59845
22
-141.88205
32
-683.0127
13
-169.59834
23
-141.88194
33
-683.0126
0
3DFACE
8
0
10
-130.40155
20
-158.11794
30
-683.0127
11
-158.11794
21
-169.59845
31
-683.0127
12
-157.34225
22
-169.90204
32
-678.0127
13
-157.34215
23
-169.90193
33
-678.0126
0
3DFACE
8
0
10
-130.40155
20
-158.11794
30
-683.0127
11
-157.34225
21
-169.90204
31
-678.0127
12
-130.09796
22
-157.34224
32
-678.0127
13
-130.09785
23
-157.34213
33
-678.0126
0
3DFACE
8
0
10
-141.88205
20
-130.40155
30
-683.0127
11
-130.40155
21
-158.11794
31
-683.0127
12
-130.09796
22
-157.34224
32
-678.0127
13
-130.09785
23
-157.34213
33
-678.0126
0
3DFACE
8
0
10
-141.88205
20
-130.40155
30
-683.0127
11
-130.09796
21
-157.34224
31
-678.0127
12
-142.65775
22
-130.09796
32
-678.0127
13
-142.65764
23
-130.09785
33
-678.0126
0
3DFACE
8
0
10
-169.90204
20
-142.65775
30
-678.0127
11
-142.65775
21
-130.09796
31
-678.0127
12
-143.44476
22
-129.82504
32
-673.0127
13
-143.44466
23
-129.82494
33
-673.0126
0
3DFACE
8
0
10
-169.90204
20
-142.65775
30
-678.0127
11
-143.44476
21
-129.82504
31
-673.0127
12
-170.17496
22
-143.44476
32
-673.0127
13
-170.17485
23
-143.44466
33
-673.0126
0
3DFACE
8
0
10
-170.17496
20
-143.44476
30
-673.0127
11
-156.55524
21
-170.17496
31
-673.0127
12
-157.34225
22
-169.90204
32
-678.0127
13
-157.34215
23
-169.90193
33
-678.0126
0
3DFACE
8
0
10
-170.17496
20
-143.44476
30
-673.0127
11
-157.34225
21
-169.90204
31
-678.0127
12
-169.90204
22
-142.65775
32
-678.0127
13
-169.90193
23
-142.65764
33
-678.0126
0
3DFACE
8
0
10
-130.09796
20
-157.34224
30
-678.0127
11
-157.34225
21
-169.90204
31
-678.0127
12
-156.55524
22
-170.17496
32
-673.0127
13
-156.55513
23
-170.17485
33
-673.0126
0
3DFACE
8
0
10
-130.09796
20
-157.34224
30
-678.0127
11
-156.55524
21
-170.17496
31
-673.0127
12
-129.82504
22
-156.55524
32
-673.0127
13
-129.82494
23
-156.55513
33
-673.0126
0
3DFACE
8
0
10
-142.65775
20
-130.09796
30
-678.0127
11
-130.09796
21
-157.34224
31
-678.0127
12
-129.82504
22
-156.55524
32
-673.0127
13
-129.82494
23
-156.55513
33
-673.0126
0
3DFACE
8
0
10
-142.65775
20
-130.09796
30
-678.0127
11
-129.82504
21
-156.55524
31
-673.0127
12
-143.44476
22
-129.82504
32
-673.0127
13
-143.44466
23
-129.82494
33
-673.0126
0
3DFACE
8
0
10
-170.17496
20
-143.44476
30
-673.0127
11
-143.44476
21
-129.82504
31
-673.0127
12
-144.24188
22
-129.58324
32
-668.0127
13
-144.24178
23
-129.58313
33
-668.0126
0
3DFACE
8
0
10
-170.17496
20
-143.44476
30
-673.0127
11
-144.24188
21
-129.58324
31
-668.0127
12
-170.41675
22
-144.24188
32
-668.0127
13
-170.41664
23
-144.24178
33
-668.0126
0
3DFACE
8
0
10
-170.41675
20
-144.24188
30
-668.0127
11
-155.75812
21
-170.41676
31
-668.0127
12
-156.55524
22
-170.17496
32
-673.0127
13
-156.55513
23
-170.17485
33
-673.0126
0
3DFACE
8
0
10
-170.41675
20
-144.24188
30
-668.0127
11
-156.55524
21
-170.17496
31
-673.0127
12
-170.17496
22
-143.44476
32
-673.0127
13
-170.17485
23
-143.44466
33
-673.0126
0
3DFACE
8
0
10
-129.82504
20
-156.55524
30
-673.0127
11
-156.55524
21
-170.17496
31
-673.0127
12
-155.75812
22
-170.41676
32
-668.0127
13
-155.75801
23
-170.41666
33
-668.0126
0
3DFACE
8
0
10
-129.82504
20
-156.55524
30
-673.0127
11
-155.75812
21
-170.41676
31
-668.0127
12
-129.58324
22
-155.75812
32
-668.0127
13
-129.58313
23
-155.75801
33
-668.0126
0
3DFACE
8
0
10
-143.44476
20
-129.82504
30
-673.0127
11
-129.82504
21
-156.55524
31
-673.0127
12
-129.58324
22
-155.75812
32
-668.0127
13
-129.58313
23
-155.75801
33
-668.0126
0
3DFACE
8
0
10
-143.44476
20
-129.82504
30
-673.0127
11
-129.58324
21
-155.75812
31
-668.0127
12
-144.24188
22
-129.58324
32
-668.0127
13
-144.24178
23
-129.58313
33
-668.0126
0
3DFACE
8
0
10
-170.41675
20
-144.24188
30
-668.0127
11
-144.24188
21
-129.58324
31
-668.0127
12
-145.04788
22
-129.37292
32
-663.0127
13
-145.04778
23
-129.37282
33
-663.0126
0
3DFACE
8
0
10
-170.41675
20
-144.24188
30
-668.0127
11
-145.04788
21
-129.37292
31
-663.0127
12
-170.62708
22
-145.04788
32
-663.0127
13
-170.62697
23
-145.04778
33
-663.0126
0
3DFACE
8
0
10
-170.62708
20
-145.04788
30
-663.0127
11
-154.95212
21
-170.62708
31
-663.0127
12
-155.75812
22
-170.41676
32
-668.0127
13
-155.75801
23
-170.41666
33
-668.0126
0
3DFACE
8
0
10
-170.62708
20
-145.04788
30
-663.0127
11
-155.75812
21
-170.41676
31
-668.0127
12
-170.41675
22
-144.24188
32
-668.0127
13
-170.41664
23
-144.24178
33
-668.0126
0
3DFACE
8
0
10
-129.58324
20
-155.75812
30
-668.0127
11
-155.75812
21
-170.41676
31
-668.0127
12
-154.95212
22
-170.62708
32
-663.0127
13
-154.95201
23
-170.62697
33
-663.0126
0
3DFACE
8
0
10
-129.58324
20
-155.75812
30
-668.0127
11
-154.95212
21
-170.62708
31
-663.0127
12
-129.37292
22
-154.95212
32
-663.0127
13
-129.37282
23
-154.95201
33
-663.0126
0
3DFACE
8
0
10
-144.24188
20
-129.58324
30
-668.0127
11
-129.58324
21
-155.75812
31
-668.0127
12
-129.37292
22
-154.95212
32
-663.0127
13
-129.37282
23
-154.95201
33
-663.0126
0
3DFACE
8
0
10
-144.24188
20
-129.58324
30
-668.0127
11
-129.37292
21
-154.95212
31
-663.0127
12
-145.04788
22
-129.37292
32
-663.0127
13
-145.04778
23
-129.37282
33
-663.0126
0
3DFACE
8
0
10
-170.62708
20
-145.04788
30
-663.0127
11
-145.04788
21
-129.37292
31
-663.0127
12
-145.86151
22
-129.1944
32
-658.0127
13
-145.8614
23
-129.19429
33
-658.0126
0
3DFACE
8
0
10
-170.62708
20
-145.04788
30
-663.0127
11
-145.86151
21
-129.1944
31
-658.0127
12
-170.8056
22
-145.86151
32
-658.0127
13
-170.8055
23
-145.8614
33
-658.0126
0
3DFACE
8
0
10
-170.8056
20
-145.86151
30
-658.0127
11
-154.13849
21
-170.8056
31
-658.0127
12
-154.95212
22
-170.62708
32
-663.0127
13
-154.95201
23
-170.62697
33
-663.0126
0
3DFACE
8
0
10
-170.8056
20
-145.86151
30
-658.0127
11
-154.95212
21
-170.62708
31
-663.0127
12
-170.62708
22
-145.04788
32
-663.0127
13
-170.62697
23
-145.04778
33
-663.0126
0
3DFACE
8
0
10
-129.37292
20
-154.95212
30
-663.0127
11
-154.95212
21
-170.62708
31
-663.0127
12
-154.13849
22
-170.8056
32
-658.0127
13
-154.13838
23
-170.8055
33
-658.0126
0
3DFACE
8
0
10
-129.37292
20
-154.95212
30
-663.0127
11
-154.13849
21
-170.8056
31
-658.0127
12
-129.1944
22
-154.13849
32
-658.0127
13
-129.19429
23
-154.13838
33
-658.0126
0
3DFACE
8
0
10
-145.04788
20
-129.37292
30
-663.0127
11
-129.37292
21
-154.95212
31
-663.0127
12
-129.1944
22
-154.13849
32
-658.0127
13
-129.19429
23
-154.13838
33
-658.0126
0
3DFACE
8
0
10
-145.04788
20
-129.37292
30
-663.0127
11
-129.1944
21
-154.13849
31
-658.0127
12
-145.86151
22
-129.1944
32
-658.0127
13
-145.8614
23
-129.19429
33
-658.0126
0
3DFACE
8
0
10
-170.8056
20
-145.86151
30
-658.0127
11
-145.86151
21
-129.1944
31
-658.0127
12
-146.68152
22
-129.04797
32
-653.0127
13
-146.68141
23
-129.04787
33
-653.0126
0
3DFACE
8
0
10
-170.8056
20
-145.86151
30
-658.0127
11
-146.68152
21
-129.04797
31
-653.0127
12
-170.95203
22
-146.68152
32
-653.0127
13
-170.95192
23
-146.68141
33
-653.0126
0
3DFACE
8
0
10
-170.95203
20
-146.68152
30
-653.0127
11
-153.31848
21
-170.95203
31
-653.0127
12
-154.13849
22
-170.8056
32
-658.0127
13
-154.13838
23
-170.8055
33
-658.0126
0
3DFACE
8
0
10
-170.95203
20
-146.68152
30
-653.0127
11
-154.13849
21
-170.8056
31
-658.0127
12
-170.8056
22
-145.86151
32
-658.0127
13
-170.8055
23
-145.8614
33
-658.0126
0
3DFACE
8
0
10
-129.1944
20
-154.13849
30
-658.0127
11
-154.13849
21
-170.8056
31
-658.0127
12
-153.31848
22
-170.95203
32
-653.0127
13
-153.31837
23
-170.95192
33
-653.0126
0
3DFACE
8
0
10
-129.1944
20
-154.13849
30
-658.0127
11
-153.31848
21
-170.95203
31
-653.0127
12
-129.04797
22
-153.31847
32
-653.0127
13
-129.04787
23
-153.31836
33
-653.0126
0
3DFACE
8
0
10
-145.86151
20
-129.1944
30
-658.0127
11
-129.1944
21
-154.13849
31
-658.0127
12
-129.04797
22
-153.31847
32
-653.0127
13
-129.04787
23
-153.31836
33
-653.0126
0
3DFACE
8
0
10
-145.86151
20
-129.1944
30
-658.0127
11
-129.04797
21
-153.31847
31
-653.0127
12
-146.68152
22
-129.04797
32
-653.0127
13
-146.68141
23
-129.04787
33
-653.0126
0
3DFACE
8
0
10
-170.95203
20
-146.68152
30
-653.0127
11
-146.68152
21
-129.04797
31
-653.0127
12
-147.50665
22
-128.93384
32
-648.0127
13
-147.50655
23
-128.93373
33
-648.0126
0
3DFACE
8
0
10
-170.95203
20
-146.68152
30
-653.0127
11
-147.50665
21
-128.93384
31
-648.0127
12
-171.06616
22
-147.50665
32
-648.0127
13
-171.06606
23
-147.50655
33
-648.0126
0
3DFACE
8
0
10
-171.06616
20
-147.50665
30
-648.0127
11
-152.49333
21
-171.06616
31
-648.0127
12
-153.31848
22
-170.95203
32
-653.0127
13
-153.31837
23
-170.95192
33
-653.0126
0
3DFACE
8
0
10
-171.06616
20
-147.50665
30
-648.0127
11
-153.31848
21
-170.95203
31
-653.0127
12
-170.95203
22
-146.68152
32
-653.0127
13
-170.95192
23
-146.68141
33
-653.0126
0
3DFACE
8
0
10
-129.04797
20
-153.31847
30
-653.0127
11
-153.31848
21
-170.95203
31
-653.0127
12
-152.49333
22
-171.06616
32
-648.0127
13
-152.49323
23
-171.06606
33
-648.0126
0
3DFACE
8
0
10
-129.04797
20
-153.31847
30
-653.0127
11
-152.49333
21
-171.06616
31
-648.0127
12
-128.93384
22
-152.49335
32
-648.0127
13
-128.93373
23
-152.49324
33
-648.0126
0
3DFACE
8
0
10
-146.68152
20
-129.04797
30
-653.0127
11
-129.04797
21
-153.31847
31
-653.0127
12
-128.93384
22
-152.49335
32
-648.0127
13
-128.93373
23
-152.49324
33
-648.0126
0
3DFACE
8
0
10
-146.68152
20
-129.04797
30
-653.0127
11
-128.93384
21
-152.49335
31
-648.0127
12
-147.50665
22
-128.93384
32
-648.0127
13
-147.50655
23
-128.93373
33
-648.0126
0
3DFACE
8
0
10
-171.06616
20
-147.50665
30
-648.0127
11
-147.50665
21
-128.93384
31
-648.0127
12
-148.33563
22
-128.85219
32
-643.0127
13
-148.33553
23
-128.85208
33
-643.0126
0
3DFACE
8
0
10
-171.06616
20
-147.50665
30
-648.0127
11
-148.33563
21
-128.85219
31
-643.0127
12
-171.14781
22
-148.33563
32
-643.0127
13
-171.1477
23
-148.33553
33
-643.0126
0
3DFACE
8
0
10
-171.14781
20
-148.33563
30
-643.0127
11
-151.66437
21
-171.14781
31
-643.0127
12
-152.49333
22
-171.06616
32
-648.0127
13
-152.49323
23
-171.06606
33
-648.0126
0
3DFACE
8
0
10
-171.14781
20
-148.33563
30
-643.0127
11
-152.49333
21
-171.06616
31
-648.0127
12
-171.06616
22
-147.50665
32
-648.0127
13
-171.06606
23
-147.50655
33
-648.0126
0
3DFACE
8
0
10
-128.93384
20
-152.49335
30
-648.0127
11
-152.49333
21
-171.06616
31
-648.0127
12
-151.66437
22
-171.14781
32
-643.0127
13
-151.66426
23
-171.1477
33
-643.0126
0
3DFACE
8
0
10
-128.93384
20
-152.49335
30
-648.0127
11
-151.66437
21
-171.14781
31
-643.0127
12
-128.85219
22
-151.66435
32
-643.0127
13
-128.85208
23
-151.66425
33
-643.0126
0
3DFACE
8
0
10
-147.50665
20
-128.93384
30
-648.0127
11
-128.93384
21
-152.49335
31
-648.0127
12
-128.85219
22
-151.66435
32
-643.0127
13
-128.85208
23
-151.66425
33
-643.0126
0
3DFACE
8
0
10
-147.50665
20
-128.93384
30
-648.0127
11
-128.85219
21
-151.66435
31
-643.0127
12
-148.33563
22
-128.85219
32
-643.0127
13
-148.33553
23
-128.85208
33
-643.0126
0
3DFACE
8
0
10
-171.14781
20
-148.33563
30
-643.0127
11
-148.33563
21
-128.85219
31
-643.0127
12
-149.16718
22
-128.80316
32
-638.0127
13
-149.16707
23
-128.80305
33
-638.0126
0
3DFACE
8
0
10
-171.14781
20
-148.33563
30
-643.0127
11
-149.16718
21
-128.80316
31
-638.0127
12
-171.19684
22
-149.16718
32
-638.0127
13
-171.19673
23
-149.16707
33
-638.0126
0
3DFACE
8
0
10
-171.19684
20
-149.16718
30
-638.0127
11
-150.83282
21
-171.19685
31
-638.0127
12
-151.66437
22
-171.14781
32
-643.0127
13
-151.66426
23
-171.1477
33
-643.0126
0
3DFACE
8
0
10
-171.19684
20
-149.16718
30
-638.0127
11
-151.66437
21
-171.14781
31
-643.0127
12
-171.14781
22
-148.33563
32
-643.0127
13
-171.1477
23
-148.33553
33
-643.0126
0
3DFACE
8
0
10
-128.85219
20
-151.66435
30
-643.0127
11
-151.66437
21
-171.14781
31
-643.0127
12
-150.83282
22
-171.19685
32
-638.0127
13
-150.83272
23
-171.19675
33
-638.0126
0
3DFACE
8
0
10
-128.85219
20
-151.66435
30
-643.0127
11
-150.83282
21
-171.19685
31
-638.0127
12
-128.80316
22
-150.83282
32
-638.0127
13
-128.80305
23
-150.83272
33
-638.0126
0
3DFACE
8
0
10
-148.33563
20
-128.85219
30
-643.0127
11
-128.85219
21
-151.66435
31
-643.0127
12
-128.80316
22
-150.83282
32
-638.0127
13
-128.80305
23
-150.83272
33
-638.0126
0
3DFACE
8
0
10
-148.33563
20
-128.85219
30
-643.0127
11
-128.80316
21
-150.83282
31
-638.0127
12
-149.16718
22
-128.80316
32
-638.0127
13
-149.16707
23
-128.80305
33
-638.0126
0
3DFACE
8
0
10
-150.0
20
-128.7868
30
-633.0127
11
-171.2132
21
-150.0
31
-633.0127
12
-171.19684
22
-149.16718
32
-638.0127
13
-171.19673
23
-149.16707
33
-638.0126
0
3DFACE
8
0
10
-150.0
20
-128.7868
30
-633.0127
11
-171.19684
21
-149.16718
31
-638.0127
12
-149.16718
22
-128.80316
32
-638.0127
13
-149.16707
23
-128.80305
33
-638.0126
0
3DFACE
8
0
10
-171.2132
20
-150.0
30
-633.0127
11
-150.0
21
-171.2132
31
-633.0127
12
-150.83282
22
-171.19685
32
-638.0127
13
-150.83272
23
-171.19675
33
-638.0126
0
3DFACE
8
0
10
-171.2132
20
-150.0
30
-633.0127
11
-150.83282
21
-171.19685
31
-638.0127
12
-171.19684
22
-149.16718
32
-638.0127
13
-171.19673
23
-149.16707
33
-638.0126
0
3DFACE
8
0
10
-128.80316
20
-150.83282
30
-638.0127
11
-150.83282
21
-171.19685
31
-638.0127
12
-150.0
22
-171.2132
32
-633.0127
13
-149.9999
23
-171.21309
33
-633.0126
0
3DFACE
8
0
10
-128.80316
20
-150.83282
30
-638.0127
11
-150.0
21
-171.2132
31
-633.0127
12
-128.7868
22
-150.0
32
-633.0127
13
-128.7867
23
-149.9999
33
-633.0126
0
3DFACE
8
0
10
-149.16718
20
-128.80316
30
-638.0127
11
-128.80316
21
-150.83282
31
-638.0127
12
-128.7868
22
-150.0
32
-633.0127
13
-128.7867
23
-149.9999
33
-633.0126
0
3DFACE
8
0
10
-149.16718
20
-128.80316
30
-638.0127
11
-128.7868
21
-150.0
31
-633.0127
12
-150.0
22
-128.7868
32
-633.0127
13
-149.9999
23
-128.7867
33
-633.0126
0
3DFACE
8
0
10
-150.83282
20
-128.80316
30
-628.0127
11
-171.19684
21
-150.83282
31
-628.0127
12
-171.2132
22
-150.0
32
-633.0127
13
-171.21309
23
-149.9999
33
-633.0126
0
3DFACE
8
0
10
-150.83282
20
-128.80316
30
-628.0127
11
-171.2132
21
-150.0
31
-633.0127
12
-150.0
22
-128.7868
32
-633.0127
13
-149.9999
23
-128.7867
33
-633.0126
0
3DFACE
8
0
10
-149.16718
20
-171.19684
30
-628.0127
11
-150.0
21
-171.2132
31
-633.0127
12
-171.2132
22
-150.0
32
-633.0127
13
-171.21309
23
-149.9999
33
-633.0126
0
3DFACE
8
0
10
-149.16718
20
-171.19684
30
-628.0127
11
-171.2132
21
-150.0
31
-633.0127
12
-171.19684
22
-150.83282
32
-628.0127
13
-171.19673
23
-150.83272
33
-628.0126
0
3DFACE
8
0
10
-128.7868
20
-150.0
30
-633.0127
11
-150.0
21
-171.2132
31
-633.0127
12
-149.16718
22
-171.19684
32
-628.0127
13
-149.16707
23
-171.19673
33
-628.0126
0
3DFACE
8
0
10
-128.7868
20
-150.0
30
-633.0127
11
-149.16718
21
-171.19684
31
-628.0127
12
-128.80316
22
-149.16718
32
-628.0127
13
-128.80305
23
-149.16707
33
-628.0126
0
3DFACE
8
0
10
-150.0
20
-128.7868
30
-633.0127
11
-128.7868
21
-150.0
31
-633.0127
12
-128.80316
22
-149.16718
32
-628.0127
13
-128.80305
23
-149.16707
33
-628.0126
0
3DFACE
8
0
10
-150.0
20
-128.7868
30
-633.0127
11
-128.80316
21
-149.16718
31
-628.0127
12
-150.83282
22
-128.80316
32
-628.0127
13
-150.83272
23
-128.80305
33
-628.0126
0
3DFACE
8
0
10
-151.66437
20
-128.85219
30
-623.0127
11
-171.14781
21
-151.66437
31
-623.0127
12
-171.19684
22
-150.83282
32
-628.0127
13
-171.19673
23
-150.83272
33
-628.0126
0
3DFACE
8
0
10
-151.66437
20
-128.85219
30
-623.0127
11
-171.19684
21
-150.83282
31
-628.0127
12
-150.83282
22
-128.80316
32
-628.0127
13
-150.83272
23
-128.80305
33
-628.0126
0
3DFACE
8
0
10
-149.16718
20
-171.19684
30
-628.0127
11
-171.19684
21
-150.83282
31
-628.0127
12
-171.14781
22
-151.66437
32
-623.0127
13
-171.1477
23
-151.66426
33
-623.0126
0
3DFACE
8
0
10
-149.16718
20
-171.19684
30
-628.0127
11
-171.14781
21
-151.66437
31
-623.0127
12
-148.33563
22
-171.14781
32
-623.0127
13
-148.33553
23
-171.1477
33
-623.0126
0
3DFACE
8
0
10
-128.80316
20
-149.16718
30
-628.0127
11
-149.16718
21
-171.19684
31
-628.0127
12
-148.33563
22
-171.14781
32
-623.0127
13
-148.33553
23
-171.1477
33
-623.0126
0
3DFACE
8
0
10
-128.80316
20
-149.16718
30
-628.0127
11
-148.33563
21
-171.14781
31
-623.0127
12
-128.85219
22
-148.33563
32
-623.0127
13
-128.85208
23
-148.33553
33
-623.0126
0
3DFACE
8
0
10
-150.83282
20
-128.80316
30
-628.0127
11
-128.80316
21
-149.16718
31
-628.0127
12
-128.85219
22
-148.33563
32
-623.0127
13
-128.85208
23
-148.33553
33
-623.0126
0
3DFACE
8
0
10
-150.83282
20
-128.80316
30
-628.0127
11
-128.85219
21
-148.33563
31
-623.0127
12
-151.66437
22
-128.85219
32
-623.0127
13
-151.66426
23
-128.85208
33
-623.0126
0
3DFACE
8
0
10
-152.49335
20
-128.93384
30
-618.0127
11
-171.06616
21
-152.49335
31
-618.0127
12
-171.14781
22
-151.66437
32
-623.0127
13
-171.1477
23
-151.66426
33
-623.0126
0
3DFACE
8
0
10
-152.49335
20
-128.93384
30
-618.0127
11
-171.14781
21
-151.66437
31
-623.0127
12
-151.66437
22
-128.85219
32
-623.0127
13
-151.66426
23
-128.85208
33
-623.0126
0
3DFACE
8
0
10
-148.33563
20
-171.14781
30
-623.0127
11
-171.14781
21
-151.66437
31
-623.0127
12
-171.06616
22
-152.49335
32
-618.0127
13
-171.06606
23
-152.49324
33
-618.0126
0
3DFACE
8
0
10
-148.33563
20
-171.14781
30
-623.0127
11
-171.06616
21
-152.49335
31
-618.0127
12
-147.50665
22
-171.06616
32
-618.0127
13
-147.50655
23
-171.06606
33
-618.0126
0
3DFACE
8
0
10
-128.85219
20
-148.33563
30
-623.0127
11
-148.33563
21
-171.14781
31
-623.0127
12
-147.50665
22
-171.06616
32
-618.0127
13
-147.50655
23
-171.06606
33
-618.0126
0
3DFACE
8
0
10
-128.85219
20
-148.33563
30
-623.0127
11
-147.50665
21
-171.06616
31
-618.0127
12
-128.93384
22
-147.50665
32
-618.0127
13
-128.93373
23
-147.50655
33
-618.0126
0
3DFACE
8
0
10
-151.66437
20
-128.85219
30
-623.0127
11
-128.85219
21
-148.33563
31
-623.0127
12
-128.93384
22
-147.50665
32
-618.0127
13
-128.93373
23
-147.50655
33
-618.0126
0
3DFACE
8
0
10
-151.66437
20
-128.85219
30
-623.0127
11
-128.93384
21
-147.50665
31
-618.0127
12
-152.49335
22
-128.93384
32
-618.0127
13
-152.49324
23
-128.93373
33
-618.0126
0
3DFACE
8
0
10
-153.31848
20
-129.04797
30
-613.0127
11
-170.95203
21
-153.31848
31
-613.0127
12
-171.06616
22
-152.49335
32
-618.0127
13
-171.06606
23
-152.49324
33
-618.0126
0
3DFACE
8
0
10
-153.31848
20
-129.04797
30
-613.0127
11
-171.06616
21
-152.49335
31
-618.0127
12
-152.49335
22
-128.93384
32
-618.0127
13
-152.49324
23
-128.93373
33
-618.0126
0
3DFACE
8
0
10
-147.50665
20
-171.06616
30
-618.0127
11
-171.06616
21
-152.49335
31
-618.0127
12
-170.95203
22
-153.31848
32
-613.0127
13
-170.95192
23
-153.31837
33
-613.0126
0
3DFACE
8
0
10
-147.50665
20
-171.06616
30
-618.0127
11
-170.95203
21
-153.31848
31
-613.0127
12
-146.68152
22
-170.95203
32
-613.0127
13
-146.68141
23
-170.95192
33
-613.0126
0
3DFACE
8
0
10
-128.93384
20
-147.50665
30
-618.0127
11
-147.50665
21
-171.06616
31
-618.0127
12
-146.68152
22
-170.95203
32
-613.0127
13
-146.68141
23
-170.95192
33
-613.0126
0
3DFACE
8
0
10
-128.93384
20
-147.50665
30
-618.0127
11
-146.68152
21
-170.95203
31
-613.0127
12
-129.04797
22
-146.68152
32
-613.0127
13
-129.04787
23
-146.68141
33
-613.0126
0
3DFACE
8
0
10
-152.49335
20
-128.93384
30
-618.0127
11
-128.93384
21
-147.50665
31
-618.0127
12
-129.04797
22
-146.68152
32
-613.0127
13
-129.04787
23
-146.68141
33
-613.0126
0
3DFACE
8
0
10
-152.49335
20
-128.93384
30
-618.0127
11
-129.04797
21
-146.68152
31
-613.0127
12
-153.31848
22
-129.04797
32
-613.0127
13
-153.31837
23
-129.04787
33
-613.0126
0
3DFACE
8
0
10
-154.13849
20
-129.1944
30
-608.0127
11
-170.8056
21
-154.13849
31
-608.0127
12
-170.95203
22
-153.31848
32
-613.0127
13
-170.95192
23
-153.31837
33
-613.0126
0
3DFACE
8
0
10
-154.13849
20
-129.1944
30
-608.0127
11
-170.95203
21
-153.31848
31
-613.0127
12
-153.31848
22
-129.04797
32
-613.0127
13
-153.31837
23
-129.04787
33
-613.0126
0
3DFACE
8
0
10
-146.68152
20
-170.95203
30
-613.0127
11
-170.95203
21
-153.31848
31
-613.0127
12
-170.8056
22
-154.13849
32
-608.0127
13
-170.8055
23
-154.13838
33
-608.0126
0
3DFACE
8
0
10
-146.68152
20
-170.95203
30
-613.0127
11
-170.8056
21
-154.13849
31
-608.0127
12
-145.86151
22
-170.8056
32
-608.0127
13
-145.8614
23
-170.8055
33
-608.0126
0
3DFACE
8
0
10
-129.04797
20
-146.68152
30
-613.0127
11
-146.68152
21
-170.95203
31
-613.0127
12
-145.86151
22
-170.8056
32
-608.0127
13
-145.8614
23
-170.8055
33
-608.0126
0
3DFACE
8
0
10
-129.04797
20
-146.68152
30
-613.0127
11
-145.86151
21
-170.8056
31
-608.0127
12
-129.1944
22
-145.86151
32
-608.0127
13
-129.19429
23
-145.8614
33
-608.0126
0
3DFACE
8
0
10
-153.31848
20
-129.04797
30
-613.0127
11
-129.04797
21
-146.68152
31
-613.0127
12
-129.1944
22
-145.86151
32
-608.0127
13
-129.19429
23
-145.8614
33
-608.0126
0
3DFACE
8
0
10
-153.31848
20
-129.04797
30
-613.0127
11
-129.1944
21
-145.86151
31
-608.0127
12
-154.13849
22
-129.1944
32
-608.0127
13
-154.13838
23
-129.19429
33
-608.0126
0
3DFACE
8
0
10
-154.95212
20
-129.37292
30
-603.0127
11
-170.62708
21
-154.95212
31
-603.0127
12
-170.8056
22
-154.13849
32
-608.0127
13
-170.8055
23
-154.13838
33
-608.0126
0
3DFACE
8
0
10
-154.95212
20
-129.37292
30
-603.0127
11
-170.8056
21
-154.13849
31
-608.0127
12
-154.13849
22
-129.1944
32
-608.0127
13
-154.13838
23
-129.19429
33
-608.0126
0
3DFACE
8
0
10
-145.86151
20
-170.8056
30
-608.0127
11
-170.8056
21
-154.13849
31
-608.0127
12
-170.62708
22
-154.95212
32
-603.0127
13
-170.62697
23
-154.95201
33
-603.0126
0
3DFACE
8
0
10
-145.86151
20
-170.8056
30
-608.0127
11
-170.62708
21
-154.95212
31
-603.0127
12
-145.04788
22
-170.62708
32
-603.0127
13
-145.04778
23
-170.62697
33
-603.0126
0
3DFACE
8
0
10
-129.1944
20
-145.86151
30
-608.0127
11
-145.86151
21
-170.8056
31
-608.0127
12
-145.04788
22
-170.62708
32
-603.0127
13
-145.04778
23
-170.62697
33
-603.0126
0
3DFACE
8
0
10
-129.1944
20
-145.86151
30
-608.0127
11
-145.04788
21
-170.62708
31
-603.0127
12
-129.37292
22
-145.04787
32
-603.0127
13
-129.37282
23
-145.04776
33
-603.0126
0
3DFACE
8
0
10
-154.13849
20
-129.1944
30
-608.0127
11
-129.1944
21
-145.86151
31
-608.0127
12
-129.37292
22
-145.04787
32
-603.0127
13
-129.37282
23
-145.04776
33
-603.0126
0
3DFACE
8
0
10
-154.13849
20
-129.1944
30
-608.0127
11
-129.37292
21
-145.04787
31
-603.0127
12
-154.95212
22
-129.37292
32
-603.0127
13
-154.95201
23
-129.37282
33
-603.0126
0
3DFACE
8
0
10
-155.75812
20
-129.58325
30
-598.0127
11
-170.41676
21
-155.75812
31
-598.0127
12
-170.62708
22
-154.95212
32
-603.0127
13
-170.62697
23
-154.95201
33
-603.0126
0
3DFACE
8
0
10
-155.75812
20
-129.58325
30
-598.0127
11
-170.62708
21
-154.95212
31
-603.0127
12
-154.95212
22
-129.37292
32
-603.0127
13
-154.95201
23
-129.37282
33
-603.0126
0
3DFACE
8
0
10
-145.04788
20
-170.62708
30
-603.0127
11
-170.62708
21
-154.95212
31
-603.0127
12
-170.41676
22
-155.75812
32
-598.0127
13
-170.41666
23
-155.75801
33
-598.0126
0
3DFACE
8
0
10
-145.04788
20
-170.62708
30
-603.0127
11
-170.41676
21
-155.75812
31
-598.0127
12
-144.24188
22
-170.41675
32
-598.0127
13
-144.24178
23
-170.41664
33
-598.0126
0
3DFACE
8
0
10
-129.37292
20
-145.04787
30
-603.0127
11
-145.04788
21
-170.62708
31
-603.0127
12
-144.24188
22
-170.41675
32
-598.0127
13
-144.24178
23
-170.41664
33
-598.0126
0
3DFACE
8
0
10
-129.37292
20
-145.04787
30
-603.0127
11
-144.24188
21
-170.41675
31
-598.0127
12
-129.58325
22
-144.24188
32
-598.0127
13
-129.58315
23
-144.24178
33
-598.0126
0
3DFACE
8
0
10
-154.95212
20
-129.37292
30
-603.0127
11
-129.37292
21
-145.04787
31
-603.0127
12
-129.58325
22
-144.24188
32
-598.0127
13
-129.58315
23
-144.24178
33
-598.0126
0
3DFACE
8
0
10
-154.95212
20
-129.37292
30
-603.0127
11
-129.58325
21
-144.24188
31
-598.0127
12
-155.75812
22
-129.58325
32
-598.0127
13
-155.75801
23
-129.58315
33
-598.0126
0
3DFACE
8
0
10
-156.55524
20
-129.82504
30
-593.0127
11
-170.17496
21
-156.55524
31
-593.0127
12
-170.41676
22
-155.75812
32
-598.0127
13
-170.41666
23
-155.75801
33
-598.0126
0
3DFACE
8
0
10
-156.55524
20
-129.82504
30
-593.0127
11
-170.41676
21
-155.75812
31
-598.0127
12
-155.75812
22
-129.58325
32
-598.0127
13
-155.75801
23
-129.58315
33
-598.0126
0
3DFACE
8
0
10
-144.24188
20
-170.41675
30
-598.0127
11
-170.41676
21
-155.75812
31
-598.0127
12
-170.17496
22
-156.55524
32
-593.0127
13
-170.17485
23
-156.55513
33
-593.0126
0
3DFACE
8
0
10
-144.24188
20
-170.41675
30
-598.0127
11
-170.17496
21
-156.55524
31
-593.0127
12
-143.44476
22
-170.17496
32
-593.0127
13
-143.44466
23
-170.17485
33
-593.0126
0
3DFACE
8
0
10
-129.58325
20
-144.24188
30
-598.0127
11
-144.24188
21
-170.41675
31
-598.0127
12
-143.44476
22
-170.17496
32
-593.0127
13
-143.44466
23
-170.17485
33
-593.0126
0
3DFACE
8
0
10
-129.58325
20
-144.24188
30
-598.0127
11
-143.44476
21
-170.17496
31
-593.0127
12
-129.82504
22
-143.44476
32
-593.0127
13
-129.82494
23
-143.44466
33
-593.0126
0
3DFACE
8
0
10
-155.75812
20
-129.58325
30
-598.0127
11
-129.58325
21
-144.24188
31
-598.0127
12
-129.82504
22
-143.44476
32
-593.0127
13
-129.82494
23
-143.44466
33
-593.0126
0
3DFACE
8
0
10
-155.75812
20
-129.58325
30
-598.0127
11
-129.82504
21
-143.44476
31
-593.0127
12
-156.55524
22
-129.82504
32
-593.0127
13
-156.55513
23
-129.82494
33
-593.0126
0
3DFACE
8
0
10
-157.34225
20
-130.09796
30
-588.0127
11
-169.90204
21
-157.34225
31
-588.0127
12
-170.17496
22
-156.55524
32
-593.0127
13
-170.17485
23
-156.55513
33
-593.0126
0
3DFACE
8
0
10
-157.34225
20
-130.09796
30
-588.0127
11
-170.17496
21
-156.55524
31
-593.0127
12
-156.55524
22
-129.82504
32
-593.0127
13
-156.55513
23
-129.82494
33
-593.0126
0
3DFACE
8
0
10
-143.44476
20
-170.17496
30
-593.0127
11
-170.17496
21
-156.55524
31
-593.0127
12
-169.90204
22
-157.34225
32
-588.0127
13
-169.90193
23
-157.34215
33
-588.0126
0
3DFACE
8
0
10
-143.44476
20
-170.17496
30
-593.0127
11
-169.90204
21
-157.34225
31
-588.0127
12
-142.65775
22
-169.90204
32
-588.0127
13
-142.65764
23
-169.90193
33
-588.0126
0
3DFACE
8
0
10
-129.82504
20
-143.44476
30
-593.0127
11
-143.44476
21
-170.17496
31
-593.0127
12
-142.65775
22
-169.90204
32
-588.0127
13
-142.65764
23
-169.90193
33
-588.0126
0
3DFACE
8
0
10
-129.82504
20
-143.44476
30
-593.0127
11
-142.65775
21
-169.90204
31
-588.0127
12
-130.09796
22
-142.65775
32
-588.0127
13
-130.09785
23
-142.65764
33
-588.0126
0
3DFACE
8
0
10
-156.55524
20
-129.82504
30
-593.0127
11
-129.82504
21
-143.44476
31
-593.0127
12
-130.09796
22
-142.65775
32
-588.0127
13
-130.09785
23
-142.65764
33
-588.0126
0
3DFACE
8
0
10
-156.55524
20
-129.82504
30
-593.0127
11
-130.09796
21
-142.65775
31
-588.0127
12
-157.34225
22
-130.09796
32
-588.0127
13
-157.34215
23
-130.09785
33
-588.0126
0
3DFACE
8
0
10
-158.11795
20
-130.40155
30
-583.0127
11
-169.59845
21
-158.11795
31
-583.0127
12
-169.90204
22
-157.34225
32
-588.0127
13
-169.90193
23
-157.34215
33
-588.0126
0
3DFACE
8
0
10
-158.11795
20
-130.40155
30
-583.0127
11
-169.90204
21
-157.34225
31
-588.0127
12
-157.34225
22
-130.09796
32
-588.0127
13
-157.34215
23
-130.09785
33
-588.0126
0
3DFACE
8
0
10
-142.65775
20
-169.90204
30
-588.0127
11
-169.90204
21
-157.34225
31
-588.0127
12
-169.59845
22
-158.11795
32
-583.0127
13
-169.59834
23
-158.11784
33
-583.0126
0
3DFACE
8
0
10
-142.65775
20
-169.90204
30
-588.0127
11
-169.59845
21
-158.11795
31
-583.0127
12
-141.88205
22
-169.59845
32
-583.0127
13
-141.88194
23
-169.59834
33
-583.0126
0
3DFACE
8
0
10
-130.09796
20
-142.65775
30
-588.0127
11
-142.65775
21
-169.90204
31
-588.0127
12
-141.88205
22
-169.59845
32
-583.0127
13
-141.88194
23
-169.59834
33
-583.0126
0
3DFACE
8
0
10
-130.09796
20
-142.65775
30
-588.0127
11
-141.88205
21
-169.59845
31
-583.0127
12
-130.40155
22
-141.88205
32
-583.0127
13
-130.40144
23
-141.88194
33
-583.0126
0
3DFACE
8
0
10
-157.34225
20
-130.09796
30
-588.0127
11
-130.09796
21
-142.65775
31
-588.0127
12
-130.40155
22
-141.88205
32
-583.0127
13
-130.40144
23
-141.88194
33
-583.0126
0
3DFACE
8
0
10
-157.34225
20
-130.09796
30
-588.0127
11
-130.40155
21
-141.88205
31
-583.0127
12
-158.11795
22
-130.40155
32
-583.0127
13
-158.11784
23
-130.40144
33
-583.0126
0
3DFACE
8
0
10
-158.88112
20
-130.73538
30
-578.0127
11
-169.26462
21
-158.8811
31
-578.0127
12
-169.59845
22
-158.11795
32
-583.0127
13
-169.59834
23
-158.11784
33
-583.0126
0
3DFACE
8
0
10
-158.88112
20
-130.73538
30
-578.0127
11
-169.59845
21
-158.11795
31
-583.0127
12
-158.11795
22
-130.40155
32
-583.0127
13
-158.11784
23
-130.40144
33
-583.0126
0
3DFACE
8
0
10
-141.88205
20
-169.59845
30
-583.0127
11
-169.59845
21
-158.11795
31
-583.0127
12
-169.26462
22
-158.8811
32
-578.0127
13
-169.26451
23
-158.881
33
-578.0126
0
3DFACE
8
0
10
-141.88205
20
-169.59845
30
-583.0127
11
-169.26462
21
-158.8811
31
-578.0127
12
-141.11888
22
-169.26462
32
-578.0127
13
-141.11877
23
-169.26451
33
-578.0126
0
3DFACE
8
0
10
-130.40155
20
-141.88205
30
-583.0127
11
-141.88205
21
-169.59845
31
-583.0127
12
-141.11888
22
-169.26462
32
-578.0127
13
-141.11877
23
-169.26451
33
-578.0126
0
3DFACE
8
0
10
-130.40155
20
-141.88205
30
-583.0127
11
-141.11888
21
-169.26462
31
-578.0127
12
-130.73538
22
-141.11888
32
-578.0127
13
-130.73528
23
-141.11877
33
-578.0126
0
3DFACE
8
0
10
-158.11795
20
-130.40155
30
-583.0127
11
-130.40155
21
-141.88205
31
-583.0127
12
-130.73538
22
-141.11888
32
-578.0127
13
-130.73528
23
-141.11877
33
-578.0126
0
3DFACE
8
0
10
-158.11795
20
-130.40155
30
-583.0127
11
-130.73538
21
-141.11888
31
-578.0127
12
-158.88112
22
-130.73538
32
-578.0127
13
-158.88101
23
-130.73528
33
-578.0126
0
3DFACE
8
0
10
-159.63058
20
-131.0989
30
-573.0127
11
-168.9011
21
-159.63058
31
-573.0127
12
-169.26462
22
-158.8811
32
-578.0127
13
-169.26451
23
-158.881
33
-578.0126
0
3DFACE
8
0
10
-159.63058
20
-131.0989
30
-573.0127
11
-169.26462
21
-158.8811
31
-578.0127
12
-158.88112
22
-130.73538
32
-578.0127
13
-158.88101
23
-130.73528
33
-578.0126
0
3DFACE
8
0
10
-141.11888
20
-169.26462
30
-578.0127
11
-169.26462
21
-158.8811
31
-578.0127
12
-168.9011
22
-159.63058
32
-573.0127
13
-168.90099
23
-159.63048
33
-573.0126
0
3DFACE
8
0
10
-141.11888
20
-169.26462
30
-578.0127
11
-168.9011
21
-159.63058
31
-573.0127
12
-140.3694
22
-168.9011
32
-573.0127
13
-140.3693
23
-168.90099
33
-573.0126
0
3DFACE
8
0
10
-130.73538
20
-141.11888
30
-578.0127
11
-141.11888
21
-169.26462
31
-578.0127
12
-140.3694
22
-168.9011
32
-573.0127
13
-140.3693
23
-168.90099
33
-573.0126
0
3DFACE
8
0
10
-130.73538
20
-141.11888
30
-578.0127
11
-140.3694
21
-168.9011
31
-573.0127
12
-131.0989
22
-140.3694
32
-573.0127
13
-131.0988
23
-140.3693
33
-573.0126
0
3DFACE
8
0
10
-158.88112
20
-130.73538
30
-578.0127
11
-130.73538
21
-141.11888
31
-578.0127
12
-131.0989
22
-140.3694
32
-573.0127
13
-131.0988
23
-140.3693
33
-573.0126
0
3DFACE
8
0
10
-158.88112
20
-130.73538
30
-578.0127
11
-131.0989
21
-140.3694
31
-573.0127
12
-159.63058
22
-131.0989
32
-573.0127
13
-159.63048
23
-131.0988
33
-573.0126
0
3DFACE
8
0
10
-160.36523
20
-131.49156
30
-568.0127
11
-168.50844
21
-160.36522
31
-568.0127
12
-168.9011
22
-159.63058
32
-573.0127
13
-168.90099
23
-159.63048
33
-573.0126
0
3DFACE
8
0
10
-160.36523
20
-131.49156
30
-568.0127
11
-168.9011
21
-159.63058
31
-573.0127
12
-159.63058
22
-131.0989
32
-573.0127
13
-159.63048
23
-131.0988
33
-573.0126
0
3DFACE
8
0
10
-140.3694
20
-168.9011
30
-573.0127
11
-168.9011
21
-159.63058
31
-573.0127
12
-168.50844
22
-160.36522
32
-568.0127
13
-168.50833
23
-160.36511
33
-568.0126
0
3DFACE
8
0
10
-140.3694
20
-168.9011
30
-573.0127
11
-168.50844
21
-160.36522
31
-568.0127
12
-139.63477
22
-168.50842
32
-568.0127
13
-139.63466
23
-168.50832
33
-568.0126
0
3DFACE
8
0
10
-131.0989
20
-140.3694
30
-573.0127
11
-140.3694
21
-168.9011
31
-573.0127
12
-139.63477
22
-168.50842
32
-568.0127
13
-139.63466
23
-168.50832
33
-568.0126
0
3DFACE
8
0
10
-131.0989
20
-140.3694
30
-573.0127
11
-139.63477
21
-168.50842
31
-568.0127
12
-131.49158
22
-139.63477
32
-568.0127
13
-131.49147
23
-139.63466
33
-568.0126
0
3DFACE
8
0
10
-159.63058
20
-131.0989
30
-573.0127
11
-131.0989
21
-140.3694
31
-573.0127
12
-131.49158
22
-139.63477
32
-568.0127
13
-131.49147
23
-139.63466
33
-568.0126
0
3DFACE
8
0
10
-159.63058
20
-131.0989
30
-573.0127
11
-131.49158
21
-139.63477
31
-568.0127
12
-160.36523
22
-131.49156
32
-568.0127
13
-160.36513
23
-131.49146
33
-568.0126
0
3DFACE
8
0
10
-161.08386
20
-131.91278
30
-563.0127
11
-168.08722
21
-161.08386
31
-563.0127
12
-168.50844
22
-160.36522
32
-568.0127
13
-168.50833
23
-160.36511
33
-568.0126
0
3DFACE
8
0
10
-161.08386
20
-131.91278
30
-563.0127
11
-168.50844
21
-160.36522
31
-568.0127
12
-160.36523
22
-131.49156
32
-568.0127
13
-160.36513
23
-131.49146
33
-568.0126
0
3DFACE
8
0
10
-139.63477
20
-168.50842
30
-568.0127
11
-168.50844
21
-160.36522
31
-568.0127
12
-168.08722
22
-161.08386
32
-563.0127
13
-168.08711
23
-161.08376
33
-563.0126
0
3DFACE
8
0
10
-139.63477
20
-168.50842
30
-568.0127
11
-168.08722
21
-161.08386
31
-563.0127
12
-138.91614
22
-168.08722
32
-563.0127
13
-138.91603
23
-168.08711
33
-563.0126
0
3DFACE
8
0
10
-131.49158
20
-139.63477
30
-568.0127
11
-139.63477
21
-168.50842
31
-568.0127
12
-138.91614
22
-168.08722
32
-563.0127
13
-138.91603
23
-168.08711
33
-563.0126
0
3DFACE
8
0
10
-131.49158
20
-139.63477
30
-568.0127
11
-138.91614
21
-168.08722
31
-563.0127
12
-131.91278
22
-138.91612
32
-563.0127
13
-131.91267
23
-138.91602
33
-563.0126
0
3DFACE
8
0
10
-160.36523
20
-131.49156
30
-568.0127
11
-131.49158
21
-139.63477
31
-568.0127
12
-131.91278
22
-138.91612
32
-563.0127
13
-131.91267
23
-138.91602
33
-563.0126
0
3DFACE
8
0
10
-160.36523
20
-131.49156
30
-568.0127
11
-131.91278
21
-138.91612
31
-563.0127
12
-161.08386
22
-131.91278
32
-563.0127
13
-161.08376
23
-131.91267
33
-563.0126
0
3DFACE
8
0
10
-161.78543
20
-132.36188
30
-558.0127
11
-167.63812
21
-161.78543
31
-558.0127
12
-168.08722
22
-161.08386
32
-563.0127
13
-168.08711
23
-161.08376
33
-563.0126
0
3DFACE
8
0
10
-161.78543
20
-132.36188
30
-558.0127
11
-168.08722
21
-161.08386
31
-563.0127
12
-161.08386
22
-131.91278
32
-563.0127
13
-161.08376
23
-131.91267
33
-563.0126
0
3DFACE
8
0
10
-138.91614
20
-168.08722
30
-563.0127
11
-168.08722
21
-161.08386
31
-563.0127
12
-167.63812
22
-161.78543
32
-558.0127
13
-167.63802
23
-161.78532
33
-558.0126
0
3DFACE
8
0
10
-138.91614
20
-168.08722
30
-563.0127
11
-167.63812
21
-161.78543
31
-558.0127
12
-138.21457
22
-167.63812
32
-558.0127
13
-138.21446
23
-167.63802
33
-558.0126
0
3DFACE
8
0
10
-131.91278
20
-138.91612
30
-563.0127
11
-138.91614
21
-168.08722
31
-563.0127
12
-138.21457
22
-167.63812
32
-558.0127
13
-138.21446
23
-167.63802
33
-558.0126
0
3DFACE
8
0
10
-131.91278
20
-138.91612
30
-563.0127
11
-138.21457
21
-167.63812
31
-558.0127
12
-132.36188
22
-138.21457
32
-558.0127
13
-132.36177
23
-138.21446
33
-558.0126
0
3DFACE
8
0
10
-161.08386
20
-131.91278
30
-563.0127
11
-131.91278
21
-138.91612
31
-563.0127
12
-132.36188
22
-138.21457
32
-558.0127
13
-132.36177
23
-138.21446
33
-558.0126
0
3DFACE
8
0
10
-161.08386
20
-131.91278
30
-563.0127
11
-132.36188
21
-138.21457
31
-558.0127
12
-161.78543
22
-132.36188
32
-558.0127
13
-161.78532
23
-132.36177
33
-558.0126
0
3DFACE
8
0
10
-162.46881
20
-132.83817
30
-553.0127
11
-167.16183
21
-162.46881
31
-553.0127
12
-167.63812
22
-161.78543
32
-558.0127
13
-167.63802
23
-161.78532
33
-558.0126
0
3DFACE
8
0
10
-162.46881
20
-132.83817
30
-553.0127
11
-167.63812
21
-161.78543
31
-558.0127
12
-161.78543
22
-132.36188
32
-558.0127
13
-161.78532
23
-132.36177
33
-558.0126
0
3DFACE
8
0
10
-138.21457
20
-167.63812
30
-558.0127
11
-167.63812
21
-161.78543
31
-558.0127
12
-167.16183
22
-162.46881
32
-553.0127
13
-167.16173
23
-162.4687
33
-553.0126
0
3DFACE
8
0
10
-138.21457
20
-167.63812
30
-558.0127
11
-167.16183
21
-162.46881
31
-553.0127
12
-137.53119
22
-167.16183
32
-553.0127
13
-137.53108
23
-167.16173
33
-553.0126
0
3DFACE
8
0
10
-132.36188
20
-138.21457
30
-558.0127
11
-138.21457
21
-167.63812
31
-558.0127
12
-137.53119
22
-167.16183
32
-553.0127
13
-137.53108
23
-167.16173
33
-553.0126
0
3DFACE
8
0
10
-132.36188
20
-138.21457
30
-558.0127
11
-137.53119
21
-167.16183
31
-553.0127
12
-132.83817
22
-137.53119
32
-553.0127
13
-132.83806
23
-137.53108
33
-553.0126
0
3DFACE
8
0
10
-161.78543
20
-132.36188
30
-558.0127
11
-132.36188
21
-138.21457
31
-558.0127
12
-132.83817
22
-137.53119
32
-553.0127
13
-132.83806
23
-137.53108
33
-553.0126
0
3DFACE
8
0
10
-161.78543
20
-132.36188
30
-558.0127
11
-132.83817
21
-137.53119
31
-553.0127
12
-162.46881
22
-132.83817
32
-553.0127
13
-162.4687
23
-132.83806
33
-553.0126
0
3DFACE
8
0
10
-163.13297
20
-133.34091
30
-548.0127
11
-166.65909
21
-163.13297
31
-548.0127
12
-167.16183
22
-162.46881
32
-553.0127
13
-167.16173
23
-162.4687
33
-553.0126
0
3DFACE
8
0
10
-163.13297
20
-133.34091
30
-548.0127
11
-167.16183
21
-162.46881
31
-553.0127
12
-162.46881
22
-132.83817
32
-553.0127
13
-162.4687
23
-132.83806
33
-553.0126
0
3DFACE
8
0
10
-137.53119
20
-167.16183
30
-553.0127
11
-167.16183
21
-162.46881
31
-553.0127
12
-166.65909
22
-163.13297
32
-548.0127
13
-166.65898
23
-163.13286
33
-548.0126
0
3DFACE
8
0
10
-137.53119
20
-167.16183
30
-553.0127
11
-166.65909
21
-163.13297
31
-548.0127
12
-136.86703
22
-166.65909
32
-548.0127
13
-136.86693
23
-166.65898
33
-548.0126
0
3DFACE
8
0
10
-132.83817
20
-137.53119
30
-553.0127
11
-137.53119
21
-167.16183
31
-553.0127
12
-136.86703
22
-166.65909
32
-548.0127
13
-136.86693
23
-166.65898
33
-548.0126
0
3DFACE
8
0
10
-132.83817
20
-137.53119
30
-553.0127
11
-136.86703
21
-166.65909
31
-548.0127
12
-133.34091
22
-136.86703
32
-548.0127
13
-133.3408
23
-136.86693
33
-548.0126
0
3DFACE
8
0
10
-162.46881
20
-132.83817
30
-553.0127
11
-132.83817
21
-137.53119
31
-553.0127
12
-133.34091
22
-136.86703
32
-548.0127
13
-133.3408
23
-136.86693
33
-548.0126
0
3DFACE
8
0
10
-162.46881
20
-132.83817
30
-553.0127
11
-133.34091
21
-136.86703
31
-548.0127
12
-163.13297
22
-133.34091
32
-548.0127
13
-163.13286
23
-133.3408
33
-548.0126
0
3DFACE
8
0
10
-163.77689
20
-133.86935
30
-543.0127
11
-166.13065
21
-163.77689
31
-543.0127
12
-166.65909
22
-163.13297
32
-548.0127
13
-166.65898
23
-163.13286
33
-548.0126
0
3DFACE
8
0
10
-163.77689
20
-133.86935
30
-543.0127
11
-166.65909
21
-163.13297
31
-548.0127
12
-163.13297
22
-133.34091
32
-548.0127
13
-163.13286
23
-133.3408
33
-548.0126
0
3DFACE
8
0
10
-136.86703
20
-166.65909
30
-548.0127
11
-166.65909
21
-163.13297
31
-548.0127
12
-166.13065
22
-163.77689
32
-543.0127
13
-166.13054
23
-163.77678
33
-543.0126
0
3DFACE
8
0
10
-136.86703
20
-166.65909
30
-548.0127
11
-166.13065
21
-163.77689
31
-543.0127
12
-136.22311
22
-166.13065
32
-543.0127
13
-136.223
23
-166.13054
33
-543.0126
0
3DFACE
8
0
10
-133.34091
20
-136.86703
30
-548.0127
11
-136.86703
21
-166.65909
31
-548.0127
12
-136.22311
22
-166.13065
32
-543.0127
13
-136.223
23
-166.13054
33
-543.0126
0
3DFACE
8
0
10
-133.34091
20
-136.86703
30
-548.0127
11
-136.22311
21
-166.13065
31
-543.0127
12
-133.86935
22
-136.22311
32
-543.0127
13
-133.86925
23
-136.223
33
-543.0126
0
3DFACE
8
0
10
-163.13297
20
-133.34091
30
-548.0127
11
-133.34091
21
-136.86703
31
-548.0127
12
-133.86935
22
-136.22311
32
-543.0127
13
-133.86925
23
-136.223
33
-543.0126
0
3DFACE
8
0
10
-163.13297
20
-133.34091
30
-548.0127
11
-133.86935
21
-136.22311
31
-543.0127
12
-163.77689
22
-133.86935
32
-543.0127
13
-163.77678
23
-133.86925
33
-543.0126
0
3DFACE
8
0
10
-164.39954
20
-134.42267
30
-538.0127
11
-165.57733
21
-164.39954
31
-538.0127
12
-166.13065
22
-163.77689
32
-543.0127
13
-166.13054
23
-163.77678
33
-543.0126
0
3DFACE
8
0
10
-164.39954
20
-134.42267
30
-538.0127
11
-166.13065
21
-163.77689
31
-543.0127
12
-163.77689
22
-133.86935
32
-543.0127
13
-163.77678
23
-133.86925
33
-543.0126
0
3DFACE
8
0
10
-136.22311
20
-166.13065
30
-543.0127
11
-166.13065
21
-163.77689
31
-543.0127
12
-165.57733
22
-164.39954
32
-538.0127
13
-165.57722
23
-164.39943
33
-538.0126
0
3DFACE
8
0
10
-136.22311
20
-166.13065
30
-543.0127
11
-165.57733
21
-164.39954
31
-538.0127
12
-135.60046
22
-165.57733
32
-538.0127
13
-135.60036
23
-165.57722
33
-538.0126
0
3DFACE
8
0
10
-133.86935
20
-136.22311
30
-543.0127
11
-136.22311
21
-166.13065
31
-543.0127
12
-135.60046
22
-165.57733
32
-538.0127
13
-135.60036
23
-165.57722
33
-538.0126
0
3DFACE
8
0
10
-133.86935
20
-136.22311
30
-543.0127
11
-135.60046
21
-165.57733
31
-538.0127
12
-134.42267
22
-135.60046
32
-538.0127
13
-134.42256
23
-135.60036
33
-538.0126
0
3DFACE
8
0
10
-163.77689
20
-133.86935
30
-543.0127
11
-133.86935
21
-136.22311
31
-543.0127
12
-134.42267
22
-135.60046
32
-538.0127
13
-134.42256
23
-135.60036
33
-538.0126
0
3DFACE
8
0
10
-163.77689
20
-133.86935
30
-543.0127
11
-134.42267
21
-135.60046
31
-538.0127
12
-164.39954
22
-134.42267
32
-538.0127
13
-164.39943
23
-134.42256
33
-538.0126
0
3DFACE
8
0
10
-165.0
20
-135.0
30
-533.0127
11
-165.0
21
-165.0
31
-533.0127
12
-165.57733
22
-164.39954
32
-538.0127
13
-165.57722
23
-164.39943
33
-538.0126
0
3DFACE
8
0
10
-165.0
20
-135.0
30
-533.0127
11
-165.57733
21
-164.39954
31
-538.0127
12
-164.39954
22
-134.42267
32
-538.0127
13
-164.39943
23
-134.42256
33
-538.0126
0
3DFACE
8
0
10
-135.60046
20
-165.57733
30
-538.0127
11
-165.57733
21
-164.39954
31
-538.0127
12
-165.0
22
-165.0
32
-533.0127
13
-164.9999
23
-164.9999
33
-533.0126
0
3DFACE
8
0
10
-135.60046
20
-165.57733
30
-538.0127
11
-165.0
21
-165.0
31
-533.0127
12
-135.0
22
-165.0
32
-533.0127
13
-134.9999
23
-164.9999
33
-533.0126
0
3DFACE
8
0
10
-134.42267
20
-135.60046
30
-538.0127
11
-135.60046
21
-165.57733
31
-538.0127
12
-135.0
22
-165.0
32
-533.0127
13
-134.9999
23
-164.9999
33
-533.0126
0
3DFACE
8
0
10
-134.42267
20
-135.60046
30
-538.0127
11
-135.0
21
-165.0
31
-533.0127
12
-135.0
22
-135.0
32
-533.0127
13
-134.9999
23
-134.9999
33
-533.0126
0
3DFACE
8
0
10
-164.39954
20
-134.42267
30
-538.0127
11
-134.42267
21
-135.60046
31
-538.0127
12
-135.0
22
-135.0
32
-533.0127
13
-134.9999
23
-134.9999
33
-533.0126
0
3DFACE
8
0
10
-164.39954
20
-134.42267
30
-538.0127
11
-135.0
21
-135.0
31
-533.0127
12
-165.0
22
-135.0
32
-533.0127
13
-164.9999
23
-134.9999
33
-533.0126
0
3DFACE
8
0
10
-165.57733
20
-135.60046
30
-528.0127
11
-164.39954
21
-165.57733
31
-528.0127
12
-165.0
22
-165.0
32
-533.0127
13
-164.9999
23
-164.9999
33
-533.0126
0
3DFACE
8
0
10
-165.57733
20
-135.60046
30
-528.0127
11
-165.0
21
-165.0
31
-533.0127
12
-165.0
22
-135.0
32
-533.0127
13
-164.9999
23
-134.9999
33
-533.0126
0
3DFACE
8
0
10
-135.0
20
-165.0
30
-533.0127
11
-165.0
21
-165.0
31
-533.0127
12
-164.39954
22
-165.57733
32
-528.0127
13
-164.39943
23
-165.57722
33
-528.0126
0
3DFACE
8
0
10
-135.0
20
-165.0
30
-533.0127
11
-164.39954
21
-165.57733
31
-528.0127
12
-134.42267
22
-164.39954
32
-528.0127
13
-134.42256
23
-164.39943
33
-528.0126
0
3DFACE
8
0
10
-135.0
20
-135.0
30
-533.0127
11
-135.0
21
-165.0
31
-533.0127
12
-134.42267
22
-164.39954
32
-528.0127
13
-134.42256
23
-164.39943
33
-528.0126
0
3DFACE
8
0
10
-135.0
20
-135.0
30
-533.0127
11
-134.42267
21
-164.39954
31
-528.0127
12
-135.60046
22
-134.42267
32
-528.0127
13
-135.60036
23
-134.42256
33
-528.0126
0
3DFACE
8
0
10
-165.0
20
-135.0
30
-533.0127
11
-135.0
21
-135.0
31
-533.0127
12
-135.60046
22
-134.42267
32
-528.0127
13
-135.60036
23
-134.42256
33
-528.0126
0
3DFACE
8
0
10
-165.0
20
-135.0
30
-533.0127
11
-135.60046
21
-134.42267
31
-528.0127
12
-165.57733
22
-135.60046
32
-528.0127
13
-165.57722
23
-135.60036
33
-528.0126
0
3DFACE
8
0
10
-166.13065
20
-136.22313
30
-523.0127
11
-163.77687
21
-166.13065
31
-523.0127
12
-164.39954
22
-165.57733
32
-528.0127
13
-164.39943
23
-165.57722
33
-528.0126
0
3DFACE
8
0
10
-166.13065
20
-136.22313
30
-523.0127
11
-164.39954
21
-165.57733
31
-528.0127
12
-165.57733
22
-135.60046
32
-528.0127
13
-165.57722
23
-135.60036
33
-528.0126
0
3DFACE
8
0
10
-134.42267
20
-164.39954
30
-528.0127
11
-164.39954
21
-165.57733
31
-528.0127
12
-163.77687
22
-166.13065
32
-523.0127
13
-163.77676
23
-166.13054
33
-523.0126
0
3DFACE
8
0
10
-134.42267
20
-164.39954
30
-528.0127
11
-163.77687
21
-166.13065
31
-523.0127
12
-133.86935
22
-163.77687
32
-523.0127
13
-133.86925
23
-163.77676
33
-523.0126
0
3DFACE
8
0
10
-135.60046
20
-134.42267
30
-528.0127
11
-134.42267
21
-164.39954
31
-528.0127
12
-133.86935
22
-163.77687
32
-523.0127
13
-133.86925
23
-163.77676
33
-523.0126
0
3DFACE
8
0
10
-135.60046
20
-134.42267
30
-528.0127
11
-133.86935
21
-163.77687
31
-523.0127
12
-136.22314
22
-133.86935
32
-523.0127
13
-136.22304
23
-133.86925
33
-523.0126
0
3DFACE
8
0
10
-165.57733
20
-135.60046
30
-528.0127
11
-135.60046
21
-134.42267
31
-528.0127
12
-136.22314
22
-133.86935
32
-523.0127
13
-136.22304
23
-133.86925
33
-523.0126
0
3DFACE
8
0
10
-165.57733
20
-135.60046
30
-528.0127
11
-136.22314
21
-133.86935
31
-523.0127
12
-166.13065
22
-136.22313
32
-523.0127
13
-166.13054
23
-136.22302
33
-523.0126
0
3DFACE
8
0
10
-166.65909
20
-136.86703
30
-518.0127
11
-163.13297
21
-166.65909
31
-518.0127
12
-163.77687
22
-166.13065
32
-523.0127
13
-163.77676
23
-166.13054
33
-523.0126
0
3DFACE
8
0
10
-166.65909
20
-136.86703
30
-518.0127
11
-163.77687
21
-166.13065
31
-523.0127
12
-166.13065
22
-136.22313
32
-523.0127
13
-166.13054
23
-136.22302
33
-523.0126
0
3DFACE
8
0
10
-133.86935
20
-163.77687
30
-523.0127
11
-163.77687
21
-166.13065
31
-523.0127
12
-163.13297
22
-166.65909
32
-518.0127
13
-163.13286
23
-166.65898
33
-518.0126
0
3DFACE
8
0
10
-133.86935
20
-163.77687
30
-523.0127
11
-163.13297
21
-166.65909
31
-518.0127
12
-133.34091
22
-163.13297
32
-518.0127
13
-133.3408
23
-163.13286
33
-518.0126
0
3DFACE
8
0
10
-136.22314
20
-133.86935
30
-523.0127
11
-133.86935
21
-163.77687
31
-523.0127
12
-133.34091
22
-163.13297
32
-518.0127
13
-133.3408
23
-163.13286
33
-518.0126
0
3DFACE
8
0
10
-136.22314
20
-133.86935
30
-523.0127
11
-133.34091
21
-163.13297
31
-518.0127
12
-136.86703
22
-133.34091
32
-518.0127
13
-136.86693
23
-133.3408
33
-518.0126
0
3DFACE
8
0
10
-166.13065
20
-136.22313
30
-523.0127
11
-136.22314
21
-133.86935
31
-523.0127
12
-136.86703
22
-133.34091
32
-518.0127
13
-136.86693
23
-133.3408
33
-518.0126
0
3DFACE
8
0
10
-166.13065
20
-136.22313
30
-523.0127
11
-136.86703
21
-133.34091
31
-518.0127
12
-166.65909
22
-136.86703
32
-518.0127
13
-166.65898
23
-136.86693
33
-518.0126
0
3DFACE
8
0
10
-167.16183
20
-137.53119
30
-513.0127
11
-162.46881
21
-167.16183
31
-513.0127
12
-163.13297
22
-166.65909
32
-518.0127
13
-163.13286
23
-166.65898
33
-518.0126
0
3DFACE
8
0
10
-167.16183
20
-137.53119
30
-513.0127
11
-163.13297
21
-166.65909
31
-518.0127
12
-166.65909
22
-136.86703
32
-518.0127
13
-166.65898
23
-136.86693
33
-518.0126
0
3DFACE
8
0
10
-133.34091
20
-163.13297
30
-518.0127
11
-163.13297
21
-166.65909
31
-518.0127
12
-162.46881
22
-167.16183
32
-513.0127
13
-162.4687
23
-167.16173
33
-513.0126
0
3DFACE
8
0
10
-133.34091
20
-163.13297
30
-518.0127
11
-162.46881
21
-167.16183
31
-513.0127
12
-132.83815
22
-162.46881
32
-513.0127
13
-132.83804
23
-162.4687
33
-513.0126
0
3DFACE
8
0
10
-136.86703
20
-133.34091
30
-518.0127
11
-133.34091
21
-163.13297
31
-518.0127
12
-132.83815
22
-162.46881
32
-513.0127
13
-132.83804
23
-162.4687
33
-513.0126
0
3DFACE
8
0
10
-136.86703
20
-133.34091
30
-518.0127
11
-132.83815
21
-162.46881
31
-513.0127
12
-137.5312
22
-132.83815
32
-513.0127
13
-137.5311
23
-132.83804
33
-513.0126
0
3DFACE
8
0
10
-166.65909
20
-136.86703
30
-518.0127
11
-136.86703
21
-133.34091
31
-518.0127
12
-137.5312
22
-132.83815
32
-513.0127
13
-137.5311
23
-132.83804
33
-513.0126
0
3DFACE
8
0
10
-166.65909
20
-136.86703
30
-518.0127
11
-137.5312
21
-132.83815
31
-513.0127
12
-167.16183
22
-137.53119
32
-513.0127
13
-167.16173
23
-137.53108
33
-513.0126
0
3DFACE
8
0
10
-167.63814
20
-138.21457
30
-508.0127
11
-161.78542
21
-167.63814
31
-508.0127
12
-162.46881
22
-167.16183
32
-513.0127
13
-162.4687
23
-167.16173
33
-513.0126
0
3DFACE
8
0
10
-167.63814
20
-138.21457
30
-508.0127
11
-162.46881
21
-167.16183
31
-513.0127
12
-167.16183
22
-137.53119
32
-513.0127
13
-167.16173
23
-137.53108
33
-513.0126
0
3DFACE
8
0
10
-132.83815
20
-162.46881
30
-513.0127
11
-162.46881
21
-167.16183
31
-513.0127
12
-161.78542
22
-167.63814
32
-508.0127
13
-161.78531
23
-167.63803
33
-508.0126
0
3DFACE
8
0
10
-132.83815
20
-162.46881
30
-513.0127
11
-161.78542
21
-167.63814
31
-508.0127
12
-132.36186
22
-161.78542
32
-508.0127
13
-132.36176
23
-161.78531
33
-508.0126
0
3DFACE
8
0
10
-137.5312
20
-132.83815
30
-513.0127
11
-132.83815
21
-162.46881
31
-513.0127
12
-132.36186
22
-161.78542
32
-508.0127
13
-132.36176
23
-161.78531
33
-508.0126
0
3DFACE
8
0
10
-137.5312
20
-132.83815
30
-513.0127
11
-132.36186
21
-161.78542
31
-508.0127
12
-138.21458
22
-132.36186
32
-508.0127
13
-138.21448
23
-132.36176
33
-508.0126
0
3DFACE
8
0
10
-167.16183
20
-137.53119
30
-513.0127
11
-137.5312
21
-132.83815
31
-513.0127
12
-138.21458
22
-132.36186
32
-508.0127
13
-138.21448
23
-132.36176
33
-508.0126
0
3DFACE
8
0
10
-167.16183
20
-137.53119
30
-513.0127
11
-138.21458
21
-132.36186
31
-508.0127
12
-167.63814
22
-138.21457
32
-508.0127
13
-167.63803
23
-138.21446
33
-508.0126
0
3DFACE
8
0
10
-168.08723
20
-138.91614
30
-503.0127
11
-161.08386
21
-168.08723
31
-503.0127
12
-161.78542
22
-167.63814
32
-508.0127
13
-161.78531
23
-167.63803
33
-508.0126
0
3DFACE
8
0
10
-168.08723
20
-138.91614
30
-503.0127
11
-161.78542
21
-167.63814
31
-508.0127
12
-167.63814
22
-138.21457
32
-508.0127
13
-167.63803
23
-138.21446
33
-508.0126
0
3DFACE
8
0
10
-132.36186
20
-161.78542
30
-508.0127
11
-161.78542
21
-167.63814
31
-508.0127
12
-161.08386
22
-168.08723
32
-503.0127
13
-161.08376
23
-168.08713
33
-503.0126
0
3DFACE
8
0
10
-132.36186
20
-161.78542
30
-508.0127
11
-161.08386
21
-168.08723
31
-503.0127
12
-131.91277
22
-161.08386
32
-503.0127
13
-131.91266
23
-161.08376
33
-503.0126
0
3DFACE
8
0
10
-138.21458
20
-132.36186
30
-508.0127
11
-132.36186
21
-161.78542
31
-508.0127
12
-131.91277
22
-161.08386
32
-503.0127
13
-131.91266
23
-161.08376
33
-503.0126
0
3DFACE
8
0
10
-138.21458
20
-132.36186
30
-508.0127
11
-131.91277
21
-161.08386
31
-503.0127
12
-138.91614
22
-131.91277
32
-503.0127
13
-138.91603
23
-131.91266
33
-503.0126
0
3DFACE
8
0
10
-167.63814
20
-138.21457
30
-508.0127
11
-138.21458
21
-132.36186
31
-508.0127
12
-138.91614
22
-131.91277
32
-503.0127
13
-138.91603
23
-131.91266
33
-503.0126
0
3DFACE
8
0
10
-167.63814
20
-138.21457
30
-508.0127
11
-138.91614
21
-131.91277
31
-503.0127
12
-168.08723
22
-138.91614
32
-503.0127
13
-168.08713
23
-138.91603
33
-503.0126
0
3DFACE
8
0
10
-168.50844
20
-139.63478
30
-498.0127
11
-160.36522
21
-168.50844
31
-498.0127
12
-161.08386
22
-168.08723
32
-503.0127
13
-161.08376
23
-168.08713
33
-503.0126
0
3DFACE
8
0
10
-168.50844
20
-139.63478
30
-498.0127
11
-161.08386
21
-168.08723
31
-503.0127
12
-168.08723
22
-138.91614
32
-503.0127
13
-168.08713
23
-138.91603
33
-503.0126
0
3DFACE
8
0
10
-131.91277
20
-161.08386
30
-503.0127
11
-161.08386
21
-168.08723
31
-503.0127
12
-160.36522
22
-168.50844
32
-498.0127
13
-160.36511
23
-168.50833
33
-498.0126
0
3DFACE
8
0
10
-131.91277
20
-161.08386
30
-503.0127
11
-160.36522
21
-168.50844
31
-498.0127
12
-131.49156
22
-160.36522
32
-498.0127
13
-131.49146
23
-160.36511
33
-498.0126
0
3DFACE
8
0
10
-138.91614
20
-131.91277
30
-503.0127
11
-131.91277
21
-161.08386
31
-503.0127
12
-131.49156
22
-160.36522
32
-498.0127
13
-131.49146
23
-160.36511
33
-498.0126
0
3DFACE
8
0
10
-138.91614
20
-131.91277
30
-503.0127
11
-131.49156
21
-160.36522
31
-498.0127
12
-139.6348
22
-131.49156
32
-498.0127
13
-139.63469
23
-131.49146
33
-498.0126
0
3DFACE
8
0
10
-168.08723
20
-138.91614
30
-503.0127
11
-138.91614
21
-131.91277
31
-503.0127
12
-139.6348
22
-131.49156
32
-498.0127
13
-139.63469
23
-131.49146
33
-498.0126
0
3DFACE
8
0
10
-168.08723
20
-138.91614
30
-503.0127
11
-139.6348
21
-131.49156
31
-498.0127
12
-168.50844
22
-139.63478
32
-498.0127
13
-168.50833
23
-139.63467
33
-498.0126
0
3DFACE
8
0
10
-168.90111
20
-140.36942
30
-493.0127
11
-159.6306
21
-168.9011
31
-493.0127
12
-160.36522
22
-168.50844
32
-498.0127
13
-160.36511
23
-168.50833
33
-498.0126
0
3DFACE
8
0
10
-168.90111
20
-140.36942
30
-493.0127
11
-160.36522
21
-168.50844
31
-498.0127
12
-168.50844
22
-139.63478
32
-498.0127
13
-168.50833
23
-139.63467
33
-498.0126
0
3DFACE
8
0
10
-131.49156
20
-160.36522
30
-498.0127
11
-160.36522
21
-168.50844
31
-498.0127
12
-159.6306
22
-168.9011
32
-493.0127
13
-159.6305
23
-168.90099
33
-493.0126
0
3DFACE
8
0
10
-131.49156
20
-160.36522
30
-498.0127
11
-159.6306
21
-168.9011
31
-493.0127
12
-131.09889
22
-159.63058
32
-493.0127
13
-131.09879
23
-159.63048
33
-493.0126
0
3DFACE
8
0
10
-139.6348
20
-131.49156
30
-498.0127
11
-131.49156
21
-160.36522
31
-498.0127
12
-131.09889
22
-159.63058
32
-493.0127
13
-131.09879
23
-159.63048
33
-493.0126
0
3DFACE
8
0
10
-139.6348
20
-131.49156
30
-498.0127
11
-131.09889
21
-159.63058
31
-493.0127
12
-140.36942
22
-131.09889
32
-493.0127
13
-140.36931
23
-131.09879
33
-493.0126
0
3DFACE
8
0
10
-168.50844
20
-139.63478
30
-498.0127
11
-139.6348
21
-131.49156
31
-498.0127
12
-140.36942
22
-131.09889
32
-493.0127
13
-140.36931
23
-131.09879
33
-493.0126
0
3DFACE
8
0
10
-168.50844
20
-139.63478
30
-498.0127
11
-140.36942
21
-131.09889
31
-493.0127
12
-168.90111
22
-140.36942
32
-493.0127
13
-168.901
23
-140.36931
33
-493.0126
0
3DFACE
8
0
10
-169.26462
20
-141.1189
30
-488.0127
11
-158.8811
21
-169.26462
31
-488.0127
12
-159.6306
22
-168.9011
32
-493.0127
13
-159.6305
23
-168.90099
33
-493.0126
0
3DFACE
8
0
10
-169.26462
20
-141.1189
30
-488.0127
11
-159.6306
21
-168.9011
31
-493.0127
12
-168.90111
22
-140.36942
32
-493.0127
13
-168.901
23
-140.36931
33
-493.0126
0
3DFACE
8
0
10
-131.09889
20
-159.63058
30
-493.0127
11
-159.6306
21
-168.9011
31
-493.0127
12
-158.8811
22
-169.26462
32
-488.0127
13
-158.881
23
-169.26451
33
-488.0126
0
3DFACE
8
0
10
-131.09889
20
-159.63058
30
-493.0127
11
-158.8811
21
-169.26462
31
-488.0127
12
-130.73538
22
-158.8811
32
-488.0127
13
-130.73528
23
-158.881
33
-488.0126
0
3DFACE
8
0
10
-140.36942
20
-131.09889
30
-493.0127
11
-131.09889
21
-159.63058
31
-493.0127
12
-130.73538
22
-158.8811
32
-488.0127
13
-130.73528
23
-158.881
33
-488.0126
0
3DFACE
8
0
10
-140.36942
20
-131.09889
30
-493.0127
11
-130.73538
21
-158.8811
31
-488.0127
12
-141.1189
22
-130.73537
32
-488.0127
13
-141.11879
23
-130.73526
33
-488.0126
0
3DFACE
8
0
10
-168.90111
20
-140.36942
30
-493.0127
11
-140.36942
21
-131.09889
31
-493.0127
12
-141.1189
22
-130.73537
32
-488.0127
13
-141.11879
23
-130.73526
33
-488.0126
0
3DFACE
8
0
10
-168.90111
20
-140.36942
30
-493.0127
11
-141.1189
21
-130.73537
31
-488.0127
12
-169.26462
22
-141.1189
32
-488.0127
13
-169.26451
23
-141.11879
33
-488.0126
0
3DFACE
8
0
10
-169.59845
20
-141.88206
30
-483.0127
11
-158.11795
21
-169.59845
31
-483.0127
12
-158.8811
22
-169.26462
32
-488.0127
13
-158.881
23
-169.26451
33
-488.0126
0
3DFACE
8
0
10
-169.59845
20
-141.88206
30
-483.0127
11
-158.8811
21
-169.26462
31
-488.0127
12
-169.26462
22
-141.1189
32
-488.0127
13
-169.26451
23
-141.11879
33
-488.0126
0
3DFACE
8
0
10
-130.73538
20
-158.8811
30
-488.0127
11
-158.8811
21
-169.26462
31
-488.0127
12
-158.11795
22
-169.59845
32
-483.0127
13
-158.11784
23
-169.59834
33
-483.0126
0
3DFACE
8
0
10
-130.73538
20
-158.8811
30
-488.0127
11
-158.11795
21
-169.59845
31
-483.0127
12
-130.40155
22
-158.11794
32
-483.0127
13
-130.40144
23
-158.11783
33
-483.0126
0
3DFACE
8
0
10
-141.1189
20
-130.73537
30
-488.0127
11
-130.73538
21
-158.8811
31
-488.0127
12
-130.40155
22
-158.11794
32
-483.0127
13
-130.40144
23
-158.11783
33
-483.0126
0
3DFACE
8
0
10
-141.1189
20
-130.73537
30
-488.0127
11
-130.40155
21
-158.11794
31
-483.0127
12
-141.88206
22
-130.40155
32
-483.0127
13
-141.88196
23
-130.40144
33
-483.0126
0
3DFACE
8
0
10
-169.26462
20
-141.1189
30
-488.0127
11
-141.1189
21
-130.73537
31
-488.0127
12
-141.88206
22
-130.40155
32
-483.0127
13
-141.88196
23
-130.40144
33
-483.0126
0
3DFACE
8
0
10
-169.26462
20
-141.1189
30
-488.0127
11
-141.88206
21
-130.40155
31
-483.0127
12
-169.59845
22
-141.88206
32
-483.0127
13
-169.59834
23
-141.88196
33
-483.0126
0
3DFACE
8
0
10
-158.2716
20
-169.53409
30
-478.0127
11
-158.11795
21
-169.59845
31
-483.0127
12
-169.59845
22
-141.88206
32
-483.0127
13
-169.59834
23
-141.88196
33
-483.0126
0
3DFACE
8
0
10
-158.2716
20
-169.53409
30
-478.0127
11
-169.59845
21
-141.88206
31
-483.0127
12
-169.53409
22
-141.7284
32
-478.0127
13
-169.53398
23
-141.72829
33
-478.0126
0
3DFACE
8
0
10
-130.40155
20
-158.11794
30
-483.0127
11
-158.11795
21
-169.59845
31
-483.0127
12
-158.2716
22
-169.53409
32
-478.0127
13
-158.2715
23
-169.53398
33
-478.0126
0
3DFACE
8
0
10
-130.40155
20
-158.11794
30
-483.0127
11
-158.2716
21
-169.53409
31
-478.0127
12
-130.46591
22
-158.2716
32
-478.0127
13
-130.4658
23
-158.2715
33
-478.0126
0
3DFACE
8
0
10
-130.40155
20
-158.11794
30
-483.0127
11
-130.46591
21
-158.2716
31
-478.0127
12
-141.7284
22
-130.46591
32
-478.0127
13
-141.72829
23
-130.4658
33
-478.0126
0
3DFACE
8
0
10
-130.40155
20
-158.11794
30
-483.0127
11
-141.7284
21
-130.46591
31
-478.0127
12
-141.88206
22
-130.40155
32
-483.0127
13
-141.88196
23
-130.40144
33
-483.0126
0
3DFACE
8
0
10
-169.59845
20
-141.88206
30
-483.0127
11
-141.88206
21
-130.40155
31
-483.0127
12
-141.7284
22
-130.46591
32
-478.0127
13
-141.72829
23
-130.4658
33
-478.0126
0
3DFACE
8
0
10
-169.59845
20
-141.88206
30
-483.0127
11
-141.7284
21
-130.46591
31
-478.0127
12
-169.53409
22
-141.7284
32
-478.0127
13
-169.53398
23
-141.72829
33
-478.0126
0
3DFACE
8
0
10
-158.2716
20
-169.53409
30
-473.0127
11
-158.2716
21
-169.53409
31
-478.0127
12
-169.53409
22
-141.7284
32
-478.0127
13
-169.53398
23
-141.72829
33
-478.0126
0
3DFACE
8
0
10
-158.2716
20
-169.53409
30
-473.0127
11
-169.53409
21
-141.7284
31
-478.0127
12
-169.53409
22
-141.7284
32
-473.0127
13
-169.53398
23
-141.72829
33
-473.0126
0
3DFACE
8
0
10
-130.46591
20
-158.2716
30
-478.0127
11
-158.2716
21
-169.53409
31
-478.0127
12
-158.2716
22
-169.53409
32
-473.0127
13
-158.2715
23
-169.53398
33
-473.0126
0
3DFACE
8
0
10
-130.46591
20
-158.2716
30
-478.0127
11
-158.2716
21
-169.53409
31
-473.0127
12
-130.46591
22
-158.2716
32
-473.0127
13
-130.4658
23
-158.2715
33
-473.0126
0
3DFACE
8
0
10
-130.46591
20
-158.2716
30
-478.0127
11
-130.46591
21
-158.2716
31
-473.0127
12
-141.7284
22
-130.46591
32
-473.0127
13
-141.72829
23
-130.4658
33
-473.0126
0
3DFACE
8
0
10
-130.46591
20
-158.2716
30
-478.0127
11
-141.7284
21
-130.46591
31
-473.0127
12
-141.7284
22
-130.46591
32
-478.0127
13
-141.72829
23
-130.4658
33
-478.0126
0
3DFACE
8
0
10
-169.53409
20
-141.7284
30
-478.0127
11
-141.7284
21
-130.46591
31
-478.0127
12
-141.7284
22
-130.46591
32
-473.0127
13
-141.72829
23
-130.4658
33
-473.0126
0
3DFACE
8
0
10
-169.53409
20
-141.7284
30
-478.0127
11
-141.7284
21
-130.46591
31
-473.0127
12
-169.53409
22
-141.7284
32
-473.0127
13
-169.53398
23
-141.72829
33
-473.0126
0
3DFACE
8
0
10
-158.2716
20
-169.53409
30
-468.0127
11
-158.2716
21
-169.53409
31
-473.0127
12
-169.53409
22
-141.7284
32
-473.0127
13
-169.53398
23
-141.72829
33
-473.0126
0
3DFACE
8
0
10
-158.2716
20
-169.53409
30
-468.0127
11
-169.53409
21
-141.7284
31
-473.0127
12
-169.53409
22
-141.7284
32
-468.0127
13
-169.53398
23
-141.72829
33
-468.0126
0
3DFACE
8
0
10
-130.46591
20
-158.2716
30
-473.0127
11
-158.2716
21
-169.53409
31
-473.0127
12
-158.2716
22
-169.53409
32
-468.0127
13
-158.2715
23
-169.53398
33
-468.0126
0
3DFACE
8
0
10
-130.46591
20
-158.2716
30
-473.0127
11
-158.2716
21
-169.53409
31
-468.0127
12
-130.46591
22
-158.2716
32
-468.0127
13
-130.4658
23
-158.2715
33
-468.0126
0
3DFACE
8
0
10
-130.46591
20
-158.2716
30
-473.0127
11
-130.46591
21
-158.2716
31
-468.0127
12
-141.7284
22
-130.46591
32
-468.0127
13
-141.72829
23
-130.4658
33
-468.0126
0
3DFACE
8
0
10
-130.46591
20
-158.2716
30
-473.0127
11
-141.7284
21
-130.46591
31
-468.0127
12
-141.7284
22
-130.46591
32
-473.0127
13
-141.72829
23
-130.4658
33
-473.0126
0
3DFACE
8
0
10
-169.53409
20
-141.7284
30
-473.0127
11
-141.7284
21
-130.46591
31
-473.0127
12
-141.7284
22
-130.46591
32
-468.0127
13
-141.72829
23
-130.4658
33
-468.0126
0
3DFACE
8
0
10
-169.53409
20
-141.7284
30
-473.0127
11
-141.7284
21
-130.46591
31
-468.0127
12
-169.53409
22
-141.7284
32
-468.0127
13
-169.53398
23
-141.72829
33
-468.0126
0
3DFACE
8
0
10
-158.2716
20
-169.53409
30
-463.0127
11
-158.2716
21
-169.53409
31
-468.0127
12
-169.53409
22
-141.7284
32
-468.0127
13
-169.53398
23
-141.72829
33
-468.0126
0
3DFACE
8
0
10
-158.2716
20
-169.53409
30
-463.0127
11
-169.53409
21
-141.7284
31
-468.0127
12
-169.53409
22
-141.7284
32
-463.0127
13
-169.53398
23
-141.72829
33
-463.0126
0
3DFACE
8
0
10
-130.46591
20
-158.2716
30
-468.0127
11
-158.2716
21
-169.53409
31
-468.0127
12
-158.2716
22
-169.53409
32
-463.0127
13
-158.2715
23
-169.53398
33
-463.0126
0
3DFACE
8
0
10
-130.46591
20
-158.2716
30
-468.0127
11
-158.2716
21
-169.53409
31
-463.0127
12
-130.46591
22
-158.2716
32
-463.0127
13
-130.4658
23
-158.2715
33
-463.0126
0
3DFACE
8
0
10
-130.46591
20
-158.2716
30
-468.0127
11
-130.46591
21
-158.2716
31
-463.0127
12
-141.7284
22
-130.46591
32
-463.0127
13
-141.72829
23
-130.4658
33
-463.0126
0
3DFACE
8
0
10
-130.46591
20
-158.2716
30
-468.0127
11
-141.7284
21
-130.46591
31
-463.0127
12
-141.7284
22
-130.46591
32
-468.0127
13
-141.72829
23
-130.4658
33
-468.0126
0
3DFACE
8
0
10
-169.53409
20
-141.7284
30
-468.0127
11
-141.7284
21
-130.46591
31
-468.0127
12
-141.7284
22
-130.46591
32
-463.0127
13
-141.72829
23
-130.4658
33
-463.0126
0
3DFACE
8
0
10
-169.53409
20
-141.7284
30
-468.0127
11
-141.7284
21
-130.46591
31
-463.0127
12
-169.53409
22
-141.7284
32
-463.0127
13
-169.53398
23
-141.72829
33
-463.0126
0
3DFACE
8
0
10
-158.2716
20
-169.53409
30
-458.0127
11
-158.2716
21
-169.53409
31
-463.0127
12
-169.53409
22
-141.7284
32
-463.0127
13
-169.53398
23
-141.72829
33
-463.0126
0
3DFACE
8
0
10
-158.2716
20
-169.53409
30
-458.0127
11
-169.53409
21
-141.7284
31
-463.0127
12
-169.53409
22
-141.7284
32
-458.0127
13
-169.53398
23
-141.72829
33
-458.0126
0
3DFACE
8
0
10
-130.46591
20
-158.2716
30
-463.0127
11
-158.2716
21
-169.53409
31
-463.0127
12
-158.2716
22
-169.53409
32
-458.0127
13
-158.2715
23
-169.53398
33
-458.0126
0
3DFACE
8
0
10
-130.46591
20
-158.2716
30
-463.0127
11
-158.2716
21
-169.53409
31
-458.0127
12
-130.46591
22
-158.2716
32
-458.0127
13
-130.4658
23
-158.2715
33
-458.0126
0
3DFACE
8
0
10
-130.46591
20
-158.2716
30
-463.0127
11
-130.46591
21
-158.2716
31
-458.0127
12
-141.7284
22
-130.46591
32
-458.0127
13
-141.72829
23
-130.4658
33
-458.0126
0
3DFACE
8
0
10
-130.46591
20
-158.2716
30
-463.0127
11
-141.7284
21
-130.46591
31
-458.0127
12
-141.7284
22
-130.46591
32
-463.0127
13
-141.72829
23
-130.4658
33
-463.0126
0
3DFACE
8
0
10
-169.53409
20
-141.7284
30
-463.0127
11
-141.7284
21
-130.46591
31
-463.0127
12
-141.7284
22
-130.46591
32
-458.0127
13
-141.72829
23
-130.4658
33
-458.0126
0
3DFACE
8
0
10
-169.53409
20
-141.7284
30
-463.0127
11
-141.7284
21
-130.46591
31
-458.0127
12
-169.53409
22
-141.7284
32
-458.0127
13
-169.53398
23
-141.72829
33
-458.0126
0
3DFACE
8
0
10
-158.2716
20
-169.53409
30
-453.0127
11
-158.2716
21
-169.53409
31
-458.0127
12
-169.53409
22
-141.7284
32
-458.0127
13
-169.53398
23
-141.72829
33
-458.0126
0
3DFACE
8
0
10
-158.2716
20
-169.53409
30
-453.0127
11
-169.53409
21
-141.7284
31
-458.0127
12
-169.53409
22
-141.7284
32
-453.0127
13
-169.53398
23
-141.72829
33
-453.0126
0
3DFACE
8
0
10
-130.46591
20
-158.2716
30
-458.0127
11
-158.2716
21
-169.53409
31
-458.0127
12
-158.2716
22
-169.53409
32
-453.0127
13
-158.2715
23
-169.53398
33
-453.0126
0
3DFACE
8
0
10
-130.46591
20
-158.2716
30
-458.0127
11
-158.2716
21
-169.53409
31
-453.0127
12
-130.46591
22
-158.2716
32
-453.0127
13
-130.4658
23
-158.2715
33
-453.0126
0
3DFACE
8
0
10
-130.46591
20
-158.2716
30
-458.0127
11
-130.46591
21
-158.2716
31
-453.0127
12
-141.7284
22
-130.46591
32
-453.0127
13
-141.72829
23
-130.4658
33
-453.0126
0
3DFACE
8
0
10
-130.46591
20
-158.2716
30
-458.0127
11
-141.7284
21
-130.46591
31
-453.0127
12
-141.7284
22
-130.46591
32
-458.0127
13
-141.72829
23
-130.4658
33
-458.0126
0
3DFACE
8
0
10
-169.53409
20
-141.7284
30
-458.0127
11
-141.7284
21
-130.46591
31
-458.0127
12
-141.7284
22
-130.46591
32
-453.0127
13
-141.72829
23
-130.4658
33
-453.0126
0
3DFACE
8
0
10
-169.53409
20
-141.7284
30
-458.0127
11
-141.7284
21
-130.46591
31
-453.0127
12
-169.53409
22
-141.7284
32
-453.0127
13
-169.53398
23
-141.72829
33
-453.0126
0
3DFACE
8
0
10
-158.2716
20
-169.53409
30
-448.0127
11
-158.2716
21
-169.53409
31
-453.0127
12
-169.53409
22
-141.7284
32
-453.0127
13
-169.53398
23
-141.72829
33
-453.0126
0
3DFACE
8
0
10
-158.2716
20
-169.53409
30
-448.0127
11
-169.53409
21
-141.7284
31
-453.0127
12
-169.53409
22
-141.7284
32
-448.0127
13
-169.53398
23
-141.72829
33
-448.0126
0
3DFACE
8
0
10
-130.46591
20
-158.2716
30
-453.0127
11
-158.2716
21
-169.53409
31
-453.0127
12
-158.2716
22
-169.53409
32
-448.0127
13
-158.2715
23
-169.53398
33
-448.0126
0
3DFACE
8
0
10
-130.46591
20
-158.2716
30
-453.0127
11
-158.2716
21
-169.53409
31
-448.0127
12
-130.46591
22
-158.2716
32
-448.0127
13
-130.4658
23
-158.2715
33
-448.0126
0
3DFACE
8
0
10
-130.46591
20
-158.2716
30
-453.0127
11
-130.46591
21
-158.2716
31
-448.0127
12
-141.7284
22
-130.46591
32
-448.0127
13
-141.72829
23
-130.4658
33
-448.0126
0
3DFACE
8
0
10
-130.46591
20
-158.2716
30
-453.0127
11
-141.7284
21
-130.46591
31
-448.0127
12
-141.7284
22
-130.46591
32
-453.0127
13
-141.72829
23
-130.4658
33
-453.0126
0
3DFACE
8
0
10
-169.53409
20
-141.7284
30
-453.0127
11
-141.7284
21
-130.46591
31
-453.0127
12
-141.7284
22
-130.46591
32
-448.0127
13
-141.72829
23
-130.4658
33
-448.0126
0
3DFACE
8
0
10
-169.53409
20
-141.7284
30
-453.0127
11
-141.7284
21
-130.46591
31
-448.0127
12
-169.53409
22
-141.7284
32
-448.0127
13
-169.53398
23
-141.72829
33
-448.0126
0
3DFACE
8
0
10
-158.2716
20
-169.53409
30
-443.0127
11
-158.2716
21
-169.53409
31
-448.0127
12
-169.53409
22
-141.7284
32
-448.0127
13
-169.53398
23
-141.72829
33
-448.0126
0
3DFACE
8
0
10
-158.2716
20
-169.53409
30
-443.0127
11
-169.53409
21
-141.7284
31
-448.0127
12
-169.53409
22
-141.7284
32
-443.0127
13
-169.53398
23
-141.72829
33
-443.0126
0
3DFACE
8
0
10
-130.46591
20
-158.2716
30
-448.0127
11
-158.2716
21
-169.53409
31
-448.0127
12
-158.2716
22
-169.53409
32
-443.0127
13
-158.2715
23
-169.53398
33
-443.0126
0
3DFACE
8
0
10
-130.46591
20
-158.2716
30
-448.0127
11
-158.2716
21
-169.53409
31
-443.0127
12
-130.46591
22
-158.2716
32
-443.0127
13
-130.4658
23
-158.2715
33
-443.0126
0
3DFACE
8
0
10
-130.46591
20
-158.2716
30
-448.0127
11
-130.46591
21
-158.2716
31
-443.0127
12
-141.7284
22
-130.46591
32
-443.0127
13
-141.72829
23
-130.4658
33
-443.0126
0
3DFACE
8
0
10
-130.46591
20
-158.2716
30
-448.0127
11
-141.7284
21
-130.46591
31
-443.0127
12
-141.7284
22
-130.46591
32
-448.0127
13
-141.72829
23
-130.4658
33
-448.0126
0
3DFACE
8
0
10
-169.53409
20
-141.7284
30
-448.0127
11
-141.7284
21
-130.46591
31
-448.0127
12
-141.7284
22
-130.46591
32
-443.0127
13
-141.72829
23
-130.4658
33
-443.0126
0
3DFACE
8
0
10
-169.53409
20
-141.7284
30
-448.0127
11
-141.7284
21
-130.46591
31
-443.0127
12
-169.53409
22
-141.7284
32
-443.0127
13
-169.53398
23
-141.72829
33
-443.0126
0
3DFACE
8
0
10
-158.2716
20
-169.53409
30
-438.0127
11
-158.2716
21
-169.53409
31
-443.0127
12
-169.53409
22
-141.7284
32
-443.0127
13
-169.53398
23
-141.72829
33
-443.0126
0
3DFACE
8
0
10
-158.2716
20
-169.53409
30
-438.0127
11
-169.53409
21
-141.7284
31
-443.0127
12
-169.53409
22
-141.7284
32
-438.0127
13
-169.53398
23
-141.72829
33
-438.0126
0
3DFACE
8
0
10
-130.46591
20
-158.2716
30
-443.0127
11
-158.2716
21
-169.53409
31
-443.0127
12
-158.2716
22
-169.53409
32
-438.0127
13
-158.2715
23
-169.53398
33
-438.0126
0
3DFACE
8
0
10
-130.46591
20
-158.2716
30
-443.0127
11
-158.2716
21
-169.53409
31
-438.0127
12
-130.46591
22
-158.2716
32
-438.0127
13
-130.4658
23
-158.2715
33
-438.0126
0
3DFACE
8
0
10
-130.46591
20
-158.2716
30
-443.0127
11
-130.46591
21
-158.2716
31
-438.0127
12
-141.7284
22
-130.46591
32
-438.0127
13
-141.72829
23
-130.4658
33
-438.0126
0
3DFACE
8
0
10
-130.46591
20
-158.2716
30
-443.0127
11
-141.7284
21
-130.46591
31
-438.0127
12
-141.7284
22
-130.46591
32
-443.0127
13
-141.72829
23
-130.4658
33
-443.0126
0
3DFACE
8
0
10
-169.53409
20
-141.7284
30
-443.0127
11
-141.7284
21
-130.46591
31
-443.0127
12
-141.7284
22
-130.46591
32
-438.0127
13
-141.72829
23
-130.4658
33
-438.0126
0
3DFACE
8
0
10
-169.53409
20
-141.7284
30
-443.0127
11
-141.7284
21
-130.46591
31
-438.0127
12
-169.53409
22
-141.7284
32
-438.0127
13
-169.53398
23
-141.72829
33
-438.0126
0
3DFACE
8
0
10
-141.7284
20
-130.46591
30
-438.0127
11
-169.53409
21
-141.7284
31
-438.0127
12
-158.2716
22
-169.53409
32
-438.0127
13
-158.2715
23
-169.53398
33
-438.0126
0
3DFACE
8
0
10
-141.7284
20
-130.46591
30
-438.0127
11
-158.2716
21
-169.53409
31
-438.0127
12
-130.46591
22
-158.2716
32
-438.0127
13
-130.4658
23
-158.2715
33
-438.0126
0
LINE
8
0
10
-141.88205
20
-130.40155
30
-733.0127
11
-169.59845
21
-141.88205
31
-733.0127
0
LINE
8
0
10
-169.59845
20
-141.88205
30
-733.0127
11
-158.11794
21
-169.59845
31
-733.0127
0
LINE
8
0
10
-158.11794
20
-169.59845
30
-733.0127
11
-130.40155
21
-158.11794
31
-733.0127
0
LINE
8
0
10
-130.40155
20
-158.11794
30
-733.0127
11
-141.88205
21
-130.40155
31
-733.0127
0
LINE
8
0
10
-141.88205
20
-130.40155
30
-733.0127
11
-141.88205
21
-130.40155
31
-728.0127
0
LINE
8
0
10
-141.88205
20
-130.40155
30
-728.0127
11
-169.59845
21
-141.88205
31
-728.0127
0
LINE
8
0
10
-169.59845
20
-141.88205
30
-728.0127
11
-169.59845
21
-141.88205
31
-733.0127
0
LINE
8
0
10
-169.59845
20
-141.88205
30
-733.0127
11
-141.88205
21
-130.40155
31
-733.0127
0
LINE
8
0
10
-169.59845
20
-141.88205
30
-733.0127
11
-169.59845
21
-141.88205
31
-728.0127
0
LINE
8
0
10
-169.59845
20
-141.88205
30
-728.0127
11
-158.11794
21
-169.59845
31
-728.0127
0
LINE
8
0
10
-158.11794
20
-169.59845
30
-728.0127
11
-158.11794
21
-169.59845
31
-733.0127
0
LINE
8
0
10
-158.11794
20
-169.59845
30
-733.0127
11
-169.59845
21
-141.88205
31
-733.0127
0
LINE
8
0
10
-158.11794
20
-169.59845
30
-733.0127
11
-158.11794
21
-169.59845
31
-728.0127
0
LINE
8
0
10
-158.11794
20
-169.59845
30
-728.0127
11
-130.40155
21
-158.11794
31
-728.0127
0
LINE
8
0
10
-130.40155
20
-158.11794
30
-728.0127
11
-130.40155
21
-158.11794
31
-733.0127
0
LINE
8
0
10
-130.40155
20
-158.11794
30
-733.0127
11
-158.11794
21
-169.59845
31
-733.0127
0
LINE
8
0
10
-130.40155
20
-158.11794
30
-728.0127
11
-130.40155
21
-158.11794
31
-728.0127
0
LINE
8
0
10
-130.40155
20
-158.11794
30
-728.0127
11
-141.88205
21
-130.40155
31
-728.0127
0
LINE
8
0
10
-141.88205
20
-130.40155
30
-728.0127
11
-141.88205
21
-130.40155
31
-733.0127
0
LINE
8
0
10
-141.88205
20
-130.40155
30
-733.0127
11
-130.40155
21
-158.11794
31
-733.0127
0
LINE
8
0
10
-141.88205
20
-130.40155
30
-728.0127
11
-141.88205
21
-130.40155
31
-723.0127
0
LINE
8
0
10
-141.88205
20
-130.40155
30
-723.0127
11
-169.59845
21
-141.88205
31
-723.0127
0
LINE
8
0
10
-169.59845
20
-141.88205
30
-723.0127
11
-169.59845
21
-141.88205
31
-728.0127
0
LINE
8
0
10
-169.59845
20
-141.88205
30
-728.0127
11
-141.88205
21
-130.40155
31
-728.0127
0
LINE
8
0
10
-169.59845
20
-141.88205
30
-728.0127
11
-169.59845
21
-141.88205
31
-723.0127
0
LINE
8
0
10
-169.59845
20
-141.88205
30
-723.0127
11
-158.11794
21
-169.59845
31
-723.0127
0
LINE
8
0
10
-158.11794
20
-169.59845
30
-723.0127
11
-158.11794
21
-169.59845
31
-728.0127
0
LINE
8
0
10
-158.11794
20
-169.59845
30
-728.0127
11
-169.59845
21
-141.88205
31
-728.0127
0
LINE
8
0
10
-158.11794
20
-169.59845
30
-728.0127
11
-158.11794
21
-169.59845
31
-723.0127
0
LINE
8
0
10
-158.11794
20
-169.59845
30
-723.0127
11
-130.40155
21
-158.11794
31
-723.0127
0
LINE
8
0
10
-130.40155
20
-158.11794
30
-723.0127
11
-130.40155
21
-158.11794
31
-728.0127
0
LINE
8
0
10
-130.40155
20
-158.11794
30
-728.0127
11
-158.11794
21
-169.59845
31
-728.0127
0
LINE
8
0
10
-130.40155
20
-158.11794
30
-723.0127
11
-130.40155
21
-158.11794
31
-723.0127
0
LINE
8
0
10
-130.40155
20
-158.11794
30
-723.0127
11
-141.88205
21
-130.40155
31
-723.0127
0
LINE
8
0
10
-141.88205
20
-130.40155
30
-723.0127
11
-141.88205
21
-130.40155
31
-728.0127
0
LINE
8
0
10
-141.88205
20
-130.40155
30
-728.0127
11
-130.40155
21
-158.11794
31
-728.0127
0
LINE
8
0
10
-141.88205
20
-130.40155
30
-723.0127
11
-141.88205
21
-130.40155
31
-718.0127
0
LINE
8
0
10
-141.88205
20
-130.40155
30
-718.0127
11
-169.59845
21
-141.88205
31
-718.0127
0
LINE
8
0
10
-169.59845
20
-141.88205
30
-718.0127
11
-169.59845
21
-141.88205
31
-723.0127
0
LINE
8
0
10
-169.59845
20
-141.88205
30
-723.0127
11
-141.88205
21
-130.40155
31
-723.0127
0
LINE
8
0
10
-169.59845
20
-141.88205
30
-723.0127
11
-169.59845
21
-141.88205
31
-718.0127
0
LINE
8
0
10
-169.59845
20
-141.88205
30
-718.0127
11
-158.11794
21
-169.59845
31
-718.0127
0
LINE
8
0
10
-158.11794
20
-169.59845
30
-718.0127
11
-158.11794
21
-169.59845
31
-723.0127
0
LINE
8
0
10
-158.11794
20
-169.59845
30
-723.0127
11
-169.59845
21
-141.88205
31
-723.0127
0
LINE
8
0
10
-158.11794
20
-169.59845
30
-723.0127
11
-158.11794
21
-169.59845
31
-718.0127
0
LINE
8
0
10
-158.11794
20
-169.59845
30
-718.0127
11
-130.40155
21
-158.11794
31
-718.0127
0
LINE
8
0
10
-130.40155
20
-158.11794
30
-718.0127
11
-130.40155
21
-158.11794
31
-723.0127
0
LINE
8
0
10
-130.40155
20
-158.11794
30
-723.0127
11
-158.11794
21
-169.59845
31
-723.0127
0
LINE
8
0
10
-130.40155
20
-158.11794
30
-718.0127
11
-130.40155
21
-158.11794
31
-718.0127
0
LINE
8
0
10
-130.40155
20
-158.11794
30
-718.0127
11
-141.88205
21
-130.40155
31
-718.0127
0
LINE
8
0
10
-141.88205
20
-130.40155
30
-718.0127
11
-141.88205
21
-130.40155
31
-723.0127
0
LINE
8
0
10
-141.88205
20
-130.40155
30
-723.0127
11
-130.40155
21
-158.11794
31
-723.0127
0
LINE
8
0
10
-141.88205
20
-130.40155
30
-718.0127
11
-141.88205
21
-130.40155
31
-713.0127
0
LINE
8
0
10
-141.88205
20
-130.40155
30
-713.0127
11
-169.59845
21
-141.88205
31
-713.0127
0
LINE
8
0
10
-169.59845
20
-141.88205
30
-713.0127
11
-169.59845
21
-141.88205
31
-718.0127
0
LINE
8
0
10
-169.59845
20
-141.88205
30
-718.0127
11
-141.88205
21
-130.40155
31
-718.0127
0
LINE
8
0
10
-169.59845
20
-141.88205
30
-718.0127
11
-169.59845
21
-141.88205
31
-713.0127
0
LINE
8
0
10
-169.59845
20
-141.88205
30
-713.0127
11
-158.11794
21
-169.59845
31
-713.0127
0
LINE
8
0
10
-158.11794
20
-169.59845
30
-713.0127
11
-158.11794
21
-169.59845
31
-718.0127
0
LINE
8
0
10
-158.11794
20
-169.59845
30
-718.0127
11
-169.59845
21
-141.88205
31
-718.0127
0
LINE
8
0
10
-158.11794
20
-169.59845
30
-718.0127
11
-158.11794
21
-169.59845
31
-713.0127
0
LINE
8
0
10
-158.11794
20
-169.59845
30
-713.0127
11
-130.40155
21
-158.11794
31
-713.0127
0
LINE
8
0
10
-130.40155
20
-158.11794
30
-713.0127
11
-130.40155
21
-158.11794
31
-718.0127
0
LINE
8
0
10
-130.40155
20
-158.11794
30
-718.0127
11
-158.11794
21
-169.59845
31
-718.0127
0
LINE
8
0
10
-130.40155
20
-158.11794
30
-713.0127
11
-130.40155
21
-158.11794
31
-713.0127
0
LINE
8
0
10
-130.40155
20
-158.11794
30
-713.0127
11
-141.88205
21
-130.40155
31
-713.0127
0
LINE
8
0
10
-141.88205
20
-130.40155
30
-713.0127
11
-141.88205
21
-130.40155
31
-718.0127
0
LINE
8
0
10
-141.88205
20
-130.40155
30
-718.0127
11
-130.40155
21
-158.11794
31
-718.0127
0
LINE
8
0
10
-141.88205
20
-130.40155
30
-713.0127
11
-141.88205
21
-130.40155
31
-708.0127
0
LINE
8
0
10
-141.88205
20
-130.40155
30
-708.0127
11
-169.59845
21
-141.88205
31
-708.0127
0
LINE
8
0
10
-169.59845
20
-141.88205
30
-708.0127
11
-169.59845
21
-141.88205
31
-713.0127
0
LINE
8
0
10
-169.59845
20
-141.88205
30
-713.0127
11
-141.88205
21
-130.40155
31
-713.0127
0
LINE
8
0
10
-169.59845
20
-141.88205
30
-713.0127
11
-169.59845
21
-141.88205
31
-708.0127
0
LINE
8
0
10
-169.59845
20
-141.88205
30
-708.0127
11
-158.11794
21
-169.59845
31
-708.0127
0
LINE
8
0
10
-158.11794
20
-169.59845
30
-708.0127
11
-158.11794
21
-169.59845
31
-713.0127
0
LINE
8
0
10
-158.11794
20
-169.59845
30
-713.0127
11
-169.59845
21
-141.88205
31
-713.0127
0
LINE
8
0
10
-158.11794
20
-169.59845
30
-713.0127
11
-158.11794
21
-169.59845
31
-708.0127
0
LINE
8
0
10
-158.11794
20
-169.59845
30
-708.0127
11
-130.40155
21
-158.11794
31
-708.0127
0
LINE
8
0
10
-130.40155
20
-158.11794
30
-708.0127
11
-130.40155
21
-158.11794
31
-713.0127
0
LINE
8
0
10
-130.40155
20
-158.11794
30
-713.0127
11
-158.11794
21
-169.59845
31
-713.0127
0
LINE
8
0
10
-130.40155
20
-158.11794
30
-708.0127
11
-130.40155
21
-158.11794
31
-708.0127
0
LINE
8
0
10
-130.40155
20
-158.11794
30
-708.0127
11
-141.88205
21
-130.40155
31
-708.0127
0
LINE
8
0
10
-141.88205
20
-130.40155
30
-708.0127
11
-141.88205
21
-130.40155
31
-713.0127
0
LINE
8
0
10
-141.88205
20
-130.40155
30
-713.0127
11
-130.40155
21
-158.11794
31
-713.0127
0
LINE
8
0
10
-141.88205
20
-130.40155
30
-708.0127
11
-141.88205
21
-130.40155
31
-703.0127
0
LINE
8
0
10
-141.88205
20
-130.40155
30
-703.0127
11
-169.59845
21
-141.88205
31
-703.0127
0
LINE
8
0
10
-169.59845
20
-141.88205
30
-703.0127
11
-169.59845
21
-141.88205
31
-708.0127
0
LINE
8
0
10
-169.59845
20
-141.88205
30
-708.0127
11
-141.88205
21
-130.40155
31
-708.0127
0
LINE
8
0
10
-169.59845
20
-141.88205
30
-708.0127
11
-169.59845
21
-141.88205
31
-703.0127
0
LINE
8
0
10
-169.59845
20
-141.88205
30
-703.0127
11
-158.11794
21
-169.59845
31
-703.0127
0
LINE
8
0
10
-158.11794
20
-169.59845
30
-703.0127
11
-158.11794
21
-169.59845
31
-708.0127
0
LINE
8
0
10
-158.11794
20
-169.59845
30
-708.0127
11
-169.59845
21
-141.88205
31
-708.0127
0
LINE
8
0
10
-158.11794
20
-169.59845
30
-708.0127
11
-158.11794
21
-169.59845
31
-703.0127
0
LINE
8
0
10
-158.11794
20
-169.59845
30
-703.0127
11
-130.40155
21
-158.11794
31
-703.0127
0
LINE
8
0
10
-130.40155
20
-158.11794
30
-703.0127
11
-130.40155
21
-158.11794
31
-708.0127
0
LINE
8
0
10
-130.40155
20
-158.11794
30
-708.0127
11
-158.11794
21
-169.59845
31
-708.0127
0
LINE
8
0
10
-130.40155
20
-158.11794
30
-703.0127
11
-130.40155
21
-158.11794
31
-703.0127
0
LINE
8
0
10
-130.40155
20
-158.11794
30
-703.0127
11
-141.88205
21
-130.40155
31
-703.0127
0
LINE
8
0
10
-141.88205
20
-130.40155
30
-703.0127
11
-141.88205
21
-130.40155
31
-708.0127
0
LINE
8
0
10
-141.88205
20
-130.40155
30
-708.0127
11
-130.40155
21
-158.11794
31
-708.0127
0
LINE
8
0
10
-141.88205
20
-130.40155
30
-703.0127
11
-141.88205
21
-130.40155
31
-698.0127
0
LINE
8
0
10
-141.88205
20
-130.40155
30
-698.0127
11
-169.59845
21
-141.88205
31
-698.0127
0
LINE
8
0
10
-169.59845
20
-141.88205
30
-698.0127
11
-169.59845
21
-141.88205
31
-703.0127
0
LINE
8
0
10
-169.59845
20
-141.88205
30
-703.0127
11
-141.88205
21
-130.40155
31
-703.0127
0
LINE
8
0
10
-169.59845
20
-141.88205
30
-703.0127
11
-169.59845
21
-141.88205
31
-698.0127
0
LINE
8
0
10
-169.59845
20
-141.88205
30
-698.0127
11
-158.11794
21
-169.59845
31
-698.0127
0
LINE
8
0
10
-158.11794
20
-169.59845
30
-698.0127
11
-158.11794
21
-169.59845
31
-703.0127
0
LINE
8
0
10
-158.11794
20
-169.59845
30
-703.0127
11
-169.59845
21
-141.88205
31
-703.0127
0
LINE
8
0
10
-158.11794
20
-169.59845
30
-703.0127
11
-158.11794
21
-169.59845
31
-698.0127
0
LINE
8
0
10
-158.11794
20
-169.59845
30
-698.0127
11
-130.40155
21
-158.11794
31
-698.0127
0
LINE
8
0
10
-130.40155
20
-158.11794
30
-698.0127
11
-130.40155
21
-158.11794
31
-703.0127
0
LINE
8
0
10
-130.40155
20
-158.11794
30
-703.0127
11
-158.11794
21
-169.59845
31
-703.0127
0
LINE
8
0
10
-130.40155
20
-158.11794
30
-698.0127
11
-130.40155
21
-158.11794
31
-698.0127
0
LINE
8
0
10
-130.40155
20
-158.11794
30
-698.0127
11
-141.88205
21
-130.40155
31
-698.0127
0
LINE
8
0
10
-141.88205
20
-130.40155
30
-698.0127
11
-141.88205
21
-130.40155
31
-703.0127
0
LINE
8
0
10
-141.88205
20
-130.40155
30
-703.0127
11
-130.40155
21
-158.11794
31
-703.0127
0
LINE
8
0
10
-141.88205
20
-130.40155
30
-698.0127
11
-141.88205
21
-130.40155
31
-693.0127
0
LINE
8
0
10
-141.88205
20
-130.40155
30
-693.0127
11
-169.59845
21
-141.88205
31
-693.0127
0
LINE
8
0
10
-169.59845
20
-141.88205
30
-693.0127
11
-169.59845
21
-141.88205
31
-698.0127
0
LINE
8
0
10
-169.59845
20
-141.88205
30
-698.0127
11
-141.88205
21
-130.40155
31
-698.0127
0
LINE
8
0
10
-169.59845
20
-141.88205
30
-698.0127
11
-169.59845
21
-141.88205
31
-693.0127
0
LINE
8
0
10
-169.59845
20
-141.88205
30
-693.0127
11
-158.11794
21
-169.59845
31
-693.0127
0
LINE
8
0
10
-158.11794
20
-169.59845
30
-693.0127
11
-158.11794
21
-169.59845
31
-698.0127
0
LINE
8
0
10
-158.11794
20
-169.59845
30
-698.0127
11
-169.59845
21
-141.88205
31
-698.0127
0
LINE
8
0
10
-158.11794
20
-169.59845
30
-698.0127
11
-158.11794
21
-169.59845
31
-693.0127
0
LINE
8
0
10
-158.11794
20
-169.59845
30
-693.0127
11
-130.40155
21
-158.11794
31
-693.0127
0
LINE
8
0
10
-130.40155
20
-158.11794
30
-693.0127
11
-130.40155
21
-158.11794
31
-698.0127
0
LINE
8
0
10
-130.40155
20
-158.11794
30
-698.0127
11
-158.11794
21
-169.59845
31
-698.0127
0
LINE
8
0
10
-130.40155
20
-158.11794
30
-693.0127
11
-130.40155
21
-158.11794
31
-693.0127
0
LINE
8
0
10
-130.40155
20
-158.11794
30
-693.0127
11
-141.88205
21
-130.40155
31
-693.0127
0
LINE
8
0
10
-141.88205
20
-130.40155
30
-693.0127
11
-141.88205
21
-130.40155
31
-698.0127
0
LINE
8
0
10
-141.88205
20
-130.40155
30
-698.0127
11
-130.40155
21
-158.11794
31
-698.0127
0
LINE
8
0
10
-141.88205
20
-130.40155
30
-693.0127
11
-141.88205
21
-130.40155
31
-688.0127
0
LINE
8
0
10
-141.88205
20
-130.40155
30
-688.0127
11
-169.59845
21
-141.88205
31
-688.0127
0
LINE
8
0
10
-169.59845
20
-141.88205
30
-688.0127
11
-169.59845
21
-141.88205
31
-693.0127
0
LINE
8
0
10
-169.59845
20
-141.88205
30
-693.0127
11
-141.88205
21
-130.40155
31
-693.0127
0
LINE
8
0
10
-169.59845
20
-141.88205
30
-693.0127
11
-169.59845
21
-141.88205
31
-688.0127
0
LINE
8
0
10
-169.59845
20
-141.88205
30
-688.0127
11
-158.11794
21
-169.59845
31
-688.0127
0
LINE
8
0
10
-158.11794
20
-169.59845
30
-688.0127
11
-158.11794
21
-169.59845
31
-693.0127
0
LINE
8
0
10
-158.11794
20
-169.59845
30
-693.0127
11
-169.59845
21
-141.88205
31
-693.0127
0
LINE
8
0
10
-158.11794
20
-169.59845
30
-693.0127
11
-158.11794
21
-169.59845
31
-688.0127
0
LINE
8
0
10
-158.11794
20
-169.59845
30
-688.0127
11
-130.40155
21
-158.11794
31
-688.0127
0
LINE
8
0
10
-130.40155
20
-158.11794
30
-688.0127
11
-130.40155
21
-158.11794
31
-693.0127
0
LINE
8
0
10
-130.40155
20
-158.11794
30
-693.0127
11
-158.11794
21
-169.59845
31
-693.0127
0
LINE
8
0
10
-130.40155
20
-158.11794
30
-688.0127
11
-130.40155
21
-158.11794
31
-688.0127
0
LINE
8
0
10
-130.40155
20
-158.11794
30
-688.0127
11
-141.88205
21
-130.40155
31
-688.0127
0
LINE
8
0
10
-141.88205
20
-130.40155
30
-688.0127
11
-141.88205
21
-130.40155
31
-693.0127
0
LINE
8
0
10
-141.88205
20
-130.40155
30
-693.0127
11
-130.40155
21
-158.11794
31
-693.0127
0
LINE
8
0
10
-141.88205
20
-130.40155
30
-688.0127
11
-141.88205
21
-130.40155
31
-683.0127
0
LINE
8
0
10
-141.88205
20
-130.40155
30
-683.0127
11
-169.59845
21
-141.88205
31
-683.0127
0
LINE
8
0
10
-169.59845
20
-141.88205
30
-683.0127
11
-169.59845
21
-141.88205
31
-688.0127
0
LINE
8
0
10
-169.59845
20
-141.88205
30
-688.0127
11
-141.88205
21
-130.40155
31
-688.0127
0
LINE
8
0
10
-169.59845
20
-141.88205
30
-688.0127
11
-169.59845
21
-141.88205
31
-683.0127
0
LINE
8
0
10
-169.59845
20
-141.88205
30
-683.0127
11
-158.11794
21
-169.59845
31
-683.0127
0
LINE
8
0
10
-158.11794
20
-169.59845
30
-683.0127
11
-158.11794
21
-169.59845
31
-688.0127
0
LINE
8
0
10
-158.11794
20
-169.59845
30
-688.0127
11
-169.59845
21
-141.88205
31
-688.0127
0
LINE
8
0
10
-158.11794
20
-169.59845
30
-688.0127
11
-158.11794
21
-169.59845
31
-683.0127
0
LINE
8
0
10
-158.11794
20
-169.59845
30
-683.0127
11
-130.40155
21
-158.11794
31
-683.0127
0
LINE
8
0
10
-130.40155
20
-158.11794
30
-683.0127
11
-130.40155
21
-158.11794
31
-688.0127
0
LINE
8
0
10
-130.40155
20
-158.11794
30
-688.0127
11
-158.11794
21
-169.59845
31
-688.0127
0
LINE
8
0
10
-130.40155
20
-158.11794
30
-683.0127
11
-130.40155
21
-158.11794
31
-683.0127
0
LINE
8
0
10
-130.40155
20
-158.11794
30
-683.0127
11
-141.88205
21
-130.40155
31
-683.0127
0
LINE
8
0
10
-141.88205
20
-130.40155
30
-683.0127
11
-141.88205
21
-130.40155
31
-688.0127
0
LINE
8
0
10
-141.88205
20
-130.40155
30
-688.0127
11
-130.40155
21
-158.11794
31
-688.0127
0
LINE
8
0
10
-141.88205
20
-130.40155
30
-683.0127
11
-142.65775
21
-130.09796
31
-678.0127
0
LINE
8
0
10
-142.65775
20
-130.09796
30
-678.0127
11
-169.90204
21
-142.65775
31
-678.0127
0
LINE
8
0
10
-169.90204
20
-142.65775
30
-678.0127
11
-169.59845
21
-141.88205
31
-683.0127
0
LINE
8
0
10
-169.59845
20
-141.88205
30
-683.0127
11
-141.88205
21
-130.40155
31
-683.0127
0
LINE
8
0
10
-169.59845
20
-141.88205
30
-683.0127
11
-169.90204
21
-142.65775
31
-678.0127
0
LINE
8
0
10
-169.90204
20
-142.65775
30
-678.0127
11
-157.34225
21
-169.90204
31
-678.0127
0
LINE
8
0
10
-157.34225
20
-169.90204
30
-678.0127
11
-158.11794
21
-169.59845
31
-683.0127
0
LINE
8
0
10
-158.11794
20
-169.59845
30
-683.0127
11
-169.59845
21
-141.88205
31
-683.0127
0
LINE
8
0
10
-158.11794
20
-169.59845
30
-683.0127
11
-157.34225
21
-169.90204
31
-678.0127
0
LINE
8
0
10
-157.34225
20
-169.90204
30
-678.0127
11
-130.09796
21
-157.34224
31
-678.0127
0
LINE
8
0
10
-130.09796
20
-157.34224
30
-678.0127
11
-130.40155
21
-158.11794
31
-683.0127
0
LINE
8
0
10
-130.40155
20
-158.11794
30
-683.0127
11
-158.11794
21
-169.59845
31
-683.0127
0
LINE
8
0
10
-130.09796
20
-157.34224
30
-678.0127
11
-130.09796
21
-157.34224
31
-678.0127
0
LINE
8
0
10
-130.09796
20
-157.34224
30
-678.0127
11
-142.65775
21
-130.09796
31
-678.0127
0
LINE
8
0
10
-142.65775
20
-130.09796
30
-678.0127
11
-141.88205
21
-130.40155
31
-683.0127
0
LINE
8
0
10
-141.88205
20
-130.40155
30
-683.0127
11
-130.40155
21
-158.11794
31
-683.0127
0
LINE
8
0
10
-142.65775
20
-130.09796
30
-678.0127
11
-143.44476
21
-129.82504
31
-673.0127
0
LINE
8
0
10
-143.44476
20
-129.82504
30
-673.0127
11
-170.17496
21
-143.44476
31
-673.0127
0
LINE
8
0
10
-170.17496
20
-143.44476
30
-673.0127
11
-169.90204
21
-142.65775
31
-678.0127
0
LINE
8
0
10
-169.90204
20
-142.65775
30
-678.0127
11
-142.65775
21
-130.09796
31
-678.0127
0
LINE
8
0
10
-169.90204
20
-142.65775
30
-678.0127
11
-170.17496
21
-143.44476
31
-673.0127
0
LINE
8
0
10
-170.17496
20
-143.44476
30
-673.0127
11
-156.55524
21
-170.17496
31
-673.0127
0
LINE
8
0
10
-156.55524
20
-170.17496
30
-673.0127
11
-157.34225
21
-169.90204
31
-678.0127
0
LINE
8
0
10
-157.34225
20
-169.90204
30
-678.0127
11
-169.90204
21
-142.65775
31
-678.0127
0
LINE
8
0
10
-157.34225
20
-169.90204
30
-678.0127
11
-156.55524
21
-170.17496
31
-673.0127
0
LINE
8
0
10
-156.55524
20
-170.17496
30
-673.0127
11
-129.82504
21
-156.55524
31
-673.0127
0
LINE
8
0
10
-129.82504
20
-156.55524
30
-673.0127
11
-130.09796
21
-157.34224
31
-678.0127
0
LINE
8
0
10
-130.09796
20
-157.34224
30
-678.0127
11
-157.34225
21
-169.90204
31
-678.0127
0
LINE
8
0
10
-129.82504
20
-156.55524
30
-673.0127
11
-129.82504
21
-156.55524
31
-673.0127
0
LINE
8
0
10
-129.82504
20
-156.55524
30
-673.0127
11
-143.44476
21
-129.82504
31
-673.0127
0
LINE
8
0
10
-143.44476
20
-129.82504
30
-673.0127
11
-142.65775
21
-130.09796
31
-678.0127
0
LINE
8
0
10
-142.65775
20
-130.09796
30
-678.0127
11
-130.09796
21
-157.34224
31
-678.0127
0
LINE
8
0
10
-143.44476
20
-129.82504
30
-673.0127
11
-144.24188
21
-129.58324
31
-668.0127
0
LINE
8
0
10
-144.24188
20
-129.58324
30
-668.0127
11
-170.41675
21
-144.24188
31
-668.0127
0
LINE
8
0
10
-170.41675
20
-144.24188
30
-668.0127
11
-170.17496
21
-143.44476
31
-673.0127
0
LINE
8
0
10
-170.17496
20
-143.44476
30
-673.0127
11
-143.44476
21
-129.82504
31
-673.0127
0
LINE
8
0
10
-170.17496
20
-143.44476
30
-673.0127
11
-170.41675
21
-144.24188
31
-668.0127
0
LINE
8
0
10
-170.41675
20
-144.24188
30
-668.0127
11
-155.75812
21
-170.41676
31
-668.0127
0
LINE
8
0
10
-155.75812
20
-170.41676
30
-668.0127
11
-156.55524
21
-170.17496
31
-673.0127
0
LINE
8
0
10
-156.55524
20
-170.17496
30
-673.0127
11
-170.17496
21
-143.44476
31
-673.0127
0
LINE
8
0
10
-156.55524
20
-170.17496
30
-673.0127
11
-155.75812
21
-170.41676
31
-668.0127
0
LINE
8
0
10
-155.75812
20
-170.41676
30
-668.0127
11
-129.58324
21
-155.75812
31
-668.0127
0
LINE
8
0
10
-129.58324
20
-155.75812
30
-668.0127
11
-129.82504
21
-156.55524
31
-673.0127
0
LINE
8
0
10
-129.82504
20
-156.55524
30
-673.0127
11
-156.55524
21
-170.17496
31
-673.0127
0
LINE
8
0
10
-129.58324
20
-155.75812
30
-668.0127
11
-129.58324
21
-155.75812
31
-668.0127
0
LINE
8
0
10
-129.58324
20
-155.75812
30
-668.0127
11
-144.24188
21
-129.58324
31
-668.0127
0
LINE
8
0
10
-144.24188
20
-129.58324
30
-668.0127
11
-143.44476
21
-129.82504
31
-673.0127
0
LINE
8
0
10
-143.44476
20
-129.82504
30
-673.0127
11
-129.82504
21
-156.55524
31
-673.0127
0
LINE
8
0
10
-144.24188
20
-129.58324
30
-668.0127
11
-145.04788
21
-129.37292
31
-663.0127
0
LINE
8
0
10
-145.04788
20
-129.37292
30
-663.0127
11
-170.62708
21
-145.04788
31
-663.0127
0
LINE
8
0
10
-170.62708
20
-145.04788
30
-663.0127
11
-170.41675
21
-144.24188
31
-668.0127
0
LINE
8
0
10
-170.41675
20
-144.24188
30
-668.0127
11
-144.24188
21
-129.58324
31
-668.0127
0
LINE
8
0
10
-170.41675
20
-144.24188
30
-668.0127
11
-170.62708
21
-145.04788
31
-663.0127
0
LINE
8
0
10
-170.62708
20
-145.04788
30
-663.0127
11
-154.95212
21
-170.62708
31
-663.0127
0
LINE
8
0
10
-154.95212
20
-170.62708
30
-663.0127
11
-155.75812
21
-170.41676
31
-668.0127
0
LINE
8
0
10
-155.75812
20
-170.41676
30
-668.0127
11
-170.41675
21
-144.24188
31
-668.0127
0
LINE
8
0
10
-155.75812
20
-170.41676
30
-668.0127
11
-154.95212
21
-170.62708
31
-663.0127
0
LINE
8
0
10
-154.95212
20
-170.62708
30
-663.0127
11
-129.37292
21
-154.95212
31
-663.0127
0
LINE
8
0
10
-129.37292
20
-154.95212
30
-663.0127
11
-129.58324
21
-155.75812
31
-668.0127
0
LINE
8
0
10
-129.58324
20
-155.75812
30
-668.0127
11
-155.75812
21
-170.41676
31
-668.0127
0
LINE
8
0
10
-129.37292
20
-154.95212
30
-663.0127
11
-129.37292
21
-154.95212
31
-663.0127
0
LINE
8
0
10
-129.37292
20
-154.95212
30
-663.0127
11
-145.04788
21
-129.37292
31
-663.0127
0
LINE
8
0
10
-145.04788
20
-129.37292
30
-663.0127
11
-144.24188
21
-129.58324
31
-668.0127
0
LINE
8
0
10
-144.24188
20
-129.58324
30
-668.0127
11
-129.58324
21
-155.75812
31
-668.0127
0
LINE
8
0
10
-145.04788
20
-129.37292
30
-663.0127
11
-145.86151
21
-129.1944
31
-658.0127
0
LINE
8
0
10
-145.86151
20
-129.1944
30
-658.0127
11
-170.8056
21
-145.86151
31
-658.0127
0
LINE
8
0
10
-170.8056
20
-145.86151
30
-658.0127
11
-170.62708
21
-145.04788
31
-663.0127
0
LINE
8
0
10
-170.62708
20
-145.04788
30
-663.0127
11
-145.04788
21
-129.37292
31
-663.0127
0
LINE
8
0
10
-170.62708
20
-145.04788
30
-663.0127
11
-170.8056
21
-145.86151
31
-658.0127
0
LINE
8
0
10
-170.8056
20
-145.86151
30
-658.0127
11
-154.13849
21
-170.8056
31
-658.0127
0
LINE
8
0
10
-154.13849
20
-170.8056
30
-658.0127
11
-154.95212
21
-170.62708
31
-663.0127
0
LINE
8
0
10
-154.95212
20
-170.62708
30
-663.0127
11
-170.62708
21
-145.04788
31
-663.0127
0
LINE
8
0
10
-154.95212
20
-170.62708
30
-663.0127
11
-154.13849
21
-170.8056
31
-658.0127
0
LINE
8
0
10
-154.13849
20
-170.8056
30
-658.0127
11
-129.1944
21
-154.13849
31
-658.0127
0
LINE
8
0
10
-129.1944
20
-154.13849
30
-658.0127
11
-129.37292
21
-154.95212
31
-663.0127
0
LINE
8
0
10
-129.37292
20
-154.95212
30
-663.0127
11
-154.95212
21
-170.62708
31
-663.0127
0
LINE
8
0
10
-129.1944
20
-154.13849
30
-658.0127
11
-129.1944
21
-154.13849
31
-658.0127
0
LINE
8
0
10
-129.1944
20
-154.13849
30
-658.0127
11
-145.86151
21
-129.1944
31
-658.0127
0
LINE
8
0
10
-145.86151
20
-129.1944
30
-658.0127
11
-145.04788
21
-129.37292
31
-663.0127
0
LINE
8
0
10
-145.04788
20
-129.37292
30
-663.0127
11
-129.37292
21
-154.95212
31
-663.0127
0
LINE
8
0
10
-145.86151
20
-129.1944
30
-658.0127
11
-146.68152
21
-129.04797
31
-653.0127
0
LINE
8
0
10
-146.68152
20
-129.04797
30
-653.0127
11
-170.95203
21
-146.68152
31
-653.0127
0
LINE
8
0
10
-170.95203
20
-146.68152
30
-653.0127
11
-170.8056
21
-145.86151
31
-658.0127
0
LINE
8
0
10
-170.8056
20
-145.86151
30
-658.0127
11
-145.86151
21
-129.1944
31
-658.0127
0
LINE
8
0
10
-170.8056
20
-145.86151
30
-658.0127
11
-170.95203
21
-146.68152
31
-653.0127
0
LINE
8
0
10
-170.95203
20
-146.68152
30
-653.0127
11
-153.31848
21
-170.95203
31
-653.0127
0
LINE
8
0
10
-153.31848
20
-170.95203
30
-653.0127
11
-154.13849
21
-170.8056
31
-658.0127
0
LINE
8
0
10
-154.13849
20
-170.8056
30
-658.0127
11
-170.8056
21
-145.86151
31
-658.0127
0
LINE
8
0
10
-154.13849
20
-170.8056
30
-658.0127
11
-153.31848
21
-170.95203
31
-653.0127
0
LINE
8
0
10
-153.31848
20
-170.95203
30
-653.0127
11
-129.04797
21
-153.31847
31
-653.0127
0
LINE
8
0
10
-129.04797
20
-153.31847
30
-653.0127
11
-129.1944
21
-154.13849
31
-658.0127
0
LINE
8
0
10
-129.1944
20
-154.13849
30
-658.0127
11
-154.13849
21
-170.8056
31
-658.0127
0
LINE
8
0
10
-129.04797
20
-153.31847
30
-653.0127
11
-129.04797
21
-153.31847
31
-653.0127
0
LINE
8
0
10
-129.04797
20
-153.31847
30
-653.0127
11
-146.68152
21
-129.04797
31
-653.0127
0
LINE
8
0
10
-146.68152
20
-129.04797
30
-653.0127
11
-145.86151
21
-129.1944
31
-658.0127
0
LINE
8
0
10
-145.86151
20
-129.1944
30
-658.0127
11
-129.1944
21
-154.13849
31
-658.0127
0
LINE
8
0
10
-146.68152
20
-129.04797
30
-653.0127
11
-147.50665
21
-128.93384
31
-648.0127
0
LINE
8
0
10
-147.50665
20
-128.93384
30
-648.0127
11
-171.06616
21
-147.50665
31
-648.0127
0
LINE
8
0
10
-171.06616
20
-147.50665
30
-648.0127
11
-170.95203
21
-146.68152
31
-653.0127
0
LINE
8
0
10
-170.95203
20
-146.68152
30
-653.0127
11
-146.68152
21
-129.04797
31
-653.0127
0
LINE
8
0
10
-170.95203
20
-146.68152
30
-653.0127
11
-171.06616
21
-147.50665
31
-648.0127
0
LINE
8
0
10
-171.06616
20
-147.50665
30
-648.0127
11
-152.49333
21
-171.06616
31
-648.0127
0
LINE
8
0
10
-152.49333
20
-171.06616
30
-648.0127
11
-153.31848
21
-170.95203
31
-653.0127
0
LINE
8
0
10
-153.31848
20
-170.95203
30
-653.0127
11
-170.95203
21
-146.68152
31
-653.0127
0
LINE
8
0
10
-153.31848
20
-170.95203
30
-653.0127
11
-152.49333
21
-171.06616
31
-648.0127
0
LINE
8
0
10
-152.49333
20
-171.06616
30
-648.0127
11
-128.93384
21
-152.49335
31
-648.0127
0
LINE
8
0
10
-128.93384
20
-152.49335
30
-648.0127
11
-129.04797
21
-153.31847
31
-653.0127
0
LINE
8
0
10
-129.04797
20
-153.31847
30
-653.0127
11
-153.31848
21
-170.95203
31
-653.0127
0
LINE
8
0
10
-128.93384
20
-152.49335
30
-648.0127
11
-128.93384
21
-152.49335
31
-648.0127
0
LINE
8
0
10
-128.93384
20
-152.49335
30
-648.0127
11
-147.50665
21
-128.93384
31
-648.0127
0
LINE
8
0
10
-147.50665
20
-128.93384
30
-648.0127
11
-146.68152
21
-129.04797
31
-653.0127
0
LINE
8
0
10
-146.68152
20
-129.04797
30
-653.0127
11
-129.04797
21
-153.31847
31
-653.0127
0
LINE
8
0
10
-147.50665
20
-128.93384
30
-648.0127
11
-148.33563
21
-128.85219
31
-643.0127
0
LINE
8
0
10
-148.33563
20
-128.85219
30
-643.0127
11
-171.14781
21
-148.33563
31
-643.0127
0
LINE
8
0
10
-171.14781
20
-148.33563
30
-643.0127
11
-171.06616
21
-147.50665
31
-648.0127
0
LINE
8
0
10
-171.06616
20
-147.50665
30
-648.0127
11
-147.50665
21
-128.93384
31
-648.0127
0
LINE
8
0
10
-171.06616
20
-147.50665
30
-648.0127
11
-171.14781
21
-148.33563
31
-643.0127
0
LINE
8
0
10
-171.14781
20
-148.33563
30
-643.0127
11
-151.66437
21
-171.14781
31
-643.0127
0
LINE
8
0
10
-151.66437
20
-171.14781
30
-643.0127
11
-152.49333
21
-171.06616
31
-648.0127
0
LINE
8
0
10
-152.49333
20
-171.06616
30
-648.0127
11
-171.06616
21
-147.50665
31
-648.0127
0
LINE
8
0
10
-152.49333
20
-171.06616
30
-648.0127
11
-151.66437
21
-171.14781
31
-643.0127
0
LINE
8
0
10
-151.66437
20
-171.14781
30
-643.0127
11
-128.85219
21
-151.66435
31
-643.0127
0
LINE
8
0
10
-128.85219
20
-151.66435
30
-643.0127
11
-128.93384
21
-152.49335
31
-648.0127
0
LINE
8
0
10
-128.93384
20
-152.49335
30
-648.0127
11
-152.49333
21
-171.06616
31
-648.0127
0
LINE
8
0
10
-128.85219
20
-151.66435
30
-643.0127
11
-128.85219
21
-151.66435
31
-643.0127
0
LINE
8
0
10
-128.85219
20
-151.66435
30
-643.0127
11
-148.33563
21
-128.85219
31
-643.0127
0
LINE
8
0
10
-148.33563
20
-128.85219
30
-643.0127
11
-147.50665
21
-128.93384
31
-648.0127
0
LINE
8
0
10
-147.50665
20
-128.93384
30
-648.0127
11
-128.93384
21
-152.49335
31
-648.0127
0
LINE
8
0
10
-148.33563
20
-128.85219
30
-643.0127
11
-149.16718
21
-128.80316
31
-638.0127
0
LINE
8
0
10
-149.16718
20
-128.80316
30
-638.0127
11
-171.19684
21
-149.16718
31
-638.0127
0
LINE
8
0
10
-171.19684
20
-149.16718
30
-638.0127
11
-171.14781
21
-148.33563
31
-643.0127
0
LINE
8
0
10
-171.14781
20
-148.33563
30
-643.0127
11
-148.33563
21
-128.85219
31
-643.0127
0
LINE
8
0
10
-171.14781
20
-148.33563
30
-643.0127
11
-171.19684
21
-149.16718
31
-638.0127
0
LINE
8
0
10
-171.19684
20
-149.16718
30
-638.0127
11
-150.83282
21
-171.19685
31
-638.0127
0
LINE
8
0
10
-150.83282
20
-171.19685
30
-638.0127
11
-151.66437
21
-171.14781
31
-643.0127
0
LINE
8
0
10
-151.66437
20
-171.14781
30
-643.0127
11
-171.14781
21
-148.33563
31
-643.0127
0
LINE
8
0
10
-151.66437
20
-171.14781
30
-643.0127
11
-150.83282
21
-171.19685
31
-638.0127
0
LINE
8
0
10
-150.83282
20
-171.19685
30
-638.0127
11
-128.80316
21
-150.83282
31
-638.0127
0
LINE
8
0
10
-128.80316
20
-150.83282
30
-638.0127
11
-128.85219
21
-151.66435
31
-643.0127
0
LINE
8
0
10
-128.85219
20
-151.66435
30
-643.0127
11
-151.66437
21
-171.14781
31
-643.0127
0
LINE
8
0
10
-128.80316
20
-150.83282
30
-638.0127
11
-128.80316
21
-150.83282
31
-638.0127
0
LINE
8
0
10
-128.80316
20
-150.83282
30
-638.0127
11
-149.16718
21
-128.80316
31
-638.0127
0
LINE
8
0
10
-149.16718
20
-128.80316
30
-638.0127
11
-148.33563
21
-128.85219
31
-643.0127
0
LINE
8
0
10
-148.33563
20
-128.85219
30
-643.0127
11
-128.85219
21
-151.66435
31
-643.0127
0
LINE
8
0
10
-149.16718
20
-128.80316
30
-638.0127
11
-150.0
21
-128.7868
31
-633.0127
0
LINE
8
0
10
-150.0
20
-128.7868
30
-633.0127
11
-171.2132
21
-150.0
31
-633.0127
0
LINE
8
0
10
-171.2132
20
-150.0
30
-633.0127
11
-171.19684
21
-149.16718
31
-638.0127
0
LINE
8
0
10
-171.19684
20
-149.16718
30
-638.0127
11
-149.16718
21
-128.80316
31
-638.0127
0
LINE
8
0
10
-171.19684
20
-149.16718
30
-638.0127
11
-171.2132
21
-150.0
31
-633.0127
0
LINE
8
0
10
-171.2132
20
-150.0
30
-633.0127
11
-150.0
21
-171.2132
31
-633.0127
0
LINE
8
0
10
-150.0
20
-171.2132
30
-633.0127
11
-150.83282
21
-171.19685
31
-638.0127
0
LINE
8
0
10
-150.83282
20
-171.19685
30
-638.0127
11
-171.19684
21
-149.16718
31
-638.0127
0
LINE
8
0
10
-150.83282
20
-171.19685
30
-638.0127
11
-150.0
21
-171.2132
31
-633.0127
0
LINE
8
0
10
-150.0
20
-171.2132
30
-633.0127
11
-128.7868
21
-150.0
31
-633.0127
0
LINE
8
0
10
-128.7868
20
-150.0
30
-633.0127
11
-128.80316
21
-150.83282
31
-638.0127
0
LINE
8
0
10
-128.80316
20
-150.83282
30
-638.0127
11
-150.83282
21
-171.19685
31
-638.0127
0
LINE
8
0
10
-128.7868
20
-150.0
30
-633.0127
11
-128.7868
21
-150.0
31
-633.0127
0
LINE
8
0
10
-128.7868
20
-150.0
30
-633.0127
11
-150.0
21
-128.7868
31
-633.0127
0
LINE
8
0
10
-150.0
20
-128.7868
30
-633.0127
11
-149.16718
21
-128.80316
31
-638.0127
0
LINE
8
0
10
-149.16718
20
-128.80316
30
-638.0127
11
-128.80316
21
-150.83282
31
-638.0127
0
LINE
8
0
10
-150.0
20
-128.7868
30
-633.0127
11
-150.83282
21
-128.80316
31
-628.0127
0
LINE
8
0
10
-150.83282
20
-128.80316
30
-628.0127
11
-171.19684
21
-150.83282
31
-628.0127
0
LINE
8
0
10
-171.19684
20
-150.83282
30
-628.0127
11
-171.2132
21
-150.0
31
-633.0127
0
LINE
8
0
10
-171.2132
20
-150.0
30
-633.0127
11
-150.0
21
-128.7868
31
-633.0127
0
LINE
8
0
10
-171.2132
20
-150.0
30
-633.0127
11
-171.19684
21
-150.83282
31
-628.0127
0
LINE
8
0
10
-171.19684
20
-150.83282
30
-628.0127
11
-149.16718
21
-171.19684
31
-628.0127
0
LINE
8
0
10
-149.16718
20
-171.19684
30
-628.0127
11
-150.0
21
-171.2132
31
-633.0127
0
LINE
8
0
10
-150.0
20
-171.2132
30
-633.0127
11
-171.2132
21
-150.0
31
-633.0127
0
LINE
8
0
10
-150.0
20
-171.2132
30
-633.0127
11
-149.16718
21
-171.19684
31
-628.0127
0
LINE
8
0
10
-149.16718
20
-171.19684
30
-628.0127
11
-128.80316
21
-149.16718
31
-628.0127
0
LINE
8
0
10
-128.80316
20
-149.16718
30
-628.0127
11
-128.7868
21
-150.0
31
-633.0127
0
LINE
8
0
10
-128.7868
20
-150.0
30
-633.0127
11
-150.0
21
-171.2132
31
-633.0127
0
LINE
8
0
10
-128.80316
20
-149.16718
30
-628.0127
11
-128.80316
21
-149.16718
31
-628.0127
0
LINE
8
0
10
-128.80316
20
-149.16718
30
-628.0127
11
-150.83282
21
-128.80316
31
-628.0127
0
LINE
8
0
10
-150.83282
20
-128.80316
30
-628.0127
11
-150.0
21
-128.7868
31
-633.0127
0
LINE
8
0
10
-150.0
20
-128.7868
30
-633.0127
11
-128.7868
21
-150.0
31
-633.0127
0
LINE
8
0
10
-150.83282
20
-128.80316
30
-628.0127
11
-151.66437
21
-128.85219
31
-623.0127
0
LINE
8
0
10
-151.66437
20
-128.85219
30
-623.0127
11
-171.14781
21
-151.66437
31
-623.0127
0
LINE
8
0
10
-171.14781
20
-151.66437
30
-623.0127
11
-171.19684
21
-150.83282
31
-628.0127
0
LINE
8
0
10
-171.19684
20
-150.83282
30
-628.0127
11
-150.83282
21
-128.80316
31
-628.0127
0
LINE
8
0
10
-171.19684
20
-150.83282
30
-628.0127
11
-171.14781
21
-151.66437
31
-623.0127
0
LINE
8
0
10
-171.14781
20
-151.66437
30
-623.0127
11
-148.33563
21
-171.14781
31
-623.0127
0
LINE
8
0
10
-148.33563
20
-171.14781
30
-623.0127
11
-149.16718
21
-171.19684
31
-628.0127
0
LINE
8
0
10
-149.16718
20
-171.19684
30
-628.0127
11
-171.19684
21
-150.83282
31
-628.0127
0
LINE
8
0
10
-149.16718
20
-171.19684
30
-628.0127
11
-148.33563
21
-171.14781
31
-623.0127
0
LINE
8
0
10
-148.33563
20
-171.14781
30
-623.0127
11
-128.85219
21
-148.33563
31
-623.0127
0
LINE
8
0
10
-128.85219
20
-148.33563
30
-623.0127
11
-128.80316
21
-149.16718
31
-628.0127
0
LINE
8
0
10
-128.80316
20
-149.16718
30
-628.0127
11
-149.16718
21
-171.19684
31
-628.0127
0
LINE
8
0
10
-128.85219
20
-148.33563
30
-623.0127
11
-128.85219
21
-148.33563
31
-623.0127
0
LINE
8
0
10
-128.85219
20
-148.33563
30
-623.0127
11
-151.66437
21
-128.85219
31
-623.0127
0
LINE
8
0
10
-151.66437
20
-128.85219
30
-623.0127
11
-150.83282
21
-128.80316
31
-628.0127
0
LINE
8
0
10
-150.83282
20
-128.80316
30
-628.0127
11
-128.80316
21
-149.16718
31
-628.0127
0
LINE
8
0
10
-151.66437
20
-128.85219
30
-623.0127
11
-152.49335
21
-128.93384
31
-618.0127
0
LINE
8
0
10
-152.49335
20
-128.93384
30
-618.0127
11
-171.06616
21
-152.49335
31
-618.0127
0
LINE
8
0
10
-171.06616
20
-152.49335
30
-618.0127
11
-171.14781
21
-151.66437
31
-623.0127
0
LINE
8
0
10
-171.14781
20
-151.66437
30
-623.0127
11
-151.66437
21
-128.85219
31
-623.0127
0
LINE
8
0
10
-171.14781
20
-151.66437
30
-623.0127
11
-171.06616
21
-152.49335
31
-618.0127
0
LINE
8
0
10
-171.06616
20
-152.49335
30
-618.0127
11
-147.50665
21
-171.06616
31
-618.0127
0
LINE
8
0
10
-147.50665
20
-171.06616
30
-618.0127
11
-148.33563
21
-171.14781
31
-623.0127
0
LINE
8
0
10
-148.33563
20
-171.14781
30
-623.0127
11
-171.14781
21
-151.66437
31
-623.0127
0
LINE
8
0
10
-148.33563
20
-171.14781
30
-623.0127
11
-147.50665
21
-171.06616
31
-618.0127
0
LINE
8
0
10
-147.50665
20
-171.06616
30
-618.0127
11
-128.93384
21
-147.50665
31
-618.0127
0
LINE
8
0
10
-128.93384
20
-147.50665
30
-618.0127
11
-128.85219
21
-148.33563
31
-623.0127
0
LINE
8
0
10
-128.85219
20
-148.33563
30
-623.0127
11
-148.33563
21
-171.14781
31
-623.0127
0
LINE
8
0
10
-128.93384
20
-147.50665
30
-618.0127
11
-128.93384
21
-147.50665
31
-618.0127
0
LINE
8
0
10
-128.93384
20
-147.50665
30
-618.0127
11
-152.49335
21
-128.93384
31
-618.0127
0
LINE
8
0
10
-152.49335
20
-128.93384
30
-618.0127
11
-151.66437
21
-128.85219
31
-623.0127
0
LINE
8
0
10
-151.66437
20
-128.85219
30
-623.0127
11
-128.85219
21
-148.33563
31
-623.0127
0
LINE
8
0
10
-152.49335
20
-128.93384
30
-618.0127
11
-153.31848
21
-129.04797
31
-613.0127
0
LINE
8
0
10
-153.31848
20
-129.04797
30
-613.0127
11
-170.95203
21
-153.31848
31
-613.0127
0
LINE
8
0
10
-170.95203
20
-153.31848
30
-613.0127
11
-171.06616
21
-152.49335
31
-618.0127
0
LINE
8
0
10
-171.06616
20
-152.49335
30
-618.0127
11
-152.49335
21
-128.93384
31
-618.0127
0
LINE
8
0
10
-171.06616
20
-152.49335
30
-618.0127
11
-170.95203
21
-153.31848
31
-613.0127
0
LINE
8
0
10
-170.95203
20
-153.31848
30
-613.0127
11
-146.68152
21
-170.95203
31
-613.0127
0
LINE
8
0
10
-146.68152
20
-170.95203
30
-613.0127
11
-147.50665
21
-171.06616
31
-618.0127
0
LINE
8
0
10
-147.50665
20
-171.06616
30
-618.0127
11
-171.06616
21
-152.49335
31
-618.0127
0
LINE
8
0
10
-147.50665
20
-171.06616
30
-618.0127
11
-146.68152
21
-170.95203
31
-613.0127
0
LINE
8
0
10
-146.68152
20
-170.95203
30
-613.0127
11
-129.04797
21
-146.68152
31
-613.0127
0
LINE
8
0
10
-129.04797
20
-146.68152
30
-613.0127
11
-128.93384
21
-147.50665
31
-618.0127
0
LINE
8
0
10
-128.93384
20
-147.50665
30
-618.0127
11
-147.50665
21
-171.06616
31
-618.0127
0
LINE
8
0
10
-129.04797
20
-146.68152
30
-613.0127
11
-129.04797
21
-146.68152
31
-613.0127
0
LINE
8
0
10
-129.04797
20
-146.68152
30
-613.0127
11
-153.31848
21
-129.04797
31
-613.0127
0
LINE
8
0
10
-153.31848
20
-129.04797
30
-613.0127
11
-152.49335
21
-128.93384
31
-618.0127
0
LINE
8
0
10
-152.49335
20
-128.93384
30
-618.0127
11
-128.93384
21
-147.50665
31
-618.0127
0
LINE
8
0
10
-153.31848
20
-129.04797
30
-613.0127
11
-154.13849
21
-129.1944
31
-608.0127
0
LINE
8
0
10
-154.13849
20
-129.1944
30
-608.0127
11
-170.8056
21
-154.13849
31
-608.0127
0
LINE
8
0
10
-170.8056
20
-154.13849
30
-608.0127
11
-170.95203
21
-153.31848
31
-613.0127
0
LINE
8
0
10
-170.95203
20
-153.31848
30
-613.0127
11
-153.31848
21
-129.04797
31
-613.0127
0
LINE
8
0
10
-170.95203
20
-153.31848
30
-613.0127
11
-170.8056
21
-154.13849
31
-608.0127
0
LINE
8
0
10
-170.8056
20
-154.13849
30
-608.0127
11
-145.86151
21
-170.8056
31
-608.0127
0
LINE
8
0
10
-145.86151
20
-170.8056
30
-608.0127
11
-146.68152
21
-170.95203
31
-613.0127
0
LINE
8
0
10
-146.68152
20
-170.95203
30
-613.0127
11
-170.95203
21
-153.31848
31
-613.0127
0
LINE
8
0
10
-146.68152
20
-170.95203
30
-613.0127
11
-145.86151
21
-170.8056
31
-608.0127
0
LINE
8
0
10
-145.86151
20
-170.8056
30
-608.0127
11
-129.1944
21
-145.86151
31
-608.0127
0
LINE
8
0
10
-129.1944
20
-145.86151
30
-608.0127
11
-129.04797
21
-146.68152
31
-613.0127
0
LINE
8
0
10
-129.04797
20
-146.68152
30
-613.0127
11
-146.68152
21
-170.95203
31
-613.0127
0
LINE
8
0
10
-129.1944
20
-145.86151
30
-608.0127
11
-129.1944
21
-145.86151
31
-608.0127
0
LINE
8
0
10
-129.1944
20
-145.86151
30
-608.0127
11
-154.13849
21
-129.1944
31
-608.0127
0
LINE
8
0
10
-154.13849
20
-129.1944
30
-608.0127
11
-153.31848
21
-129.04797
31
-613.0127
0
LINE
8
0
10
-153.31848
20
-129.04797
30
-613.0127
11
-129.04797
21
-146.68152
31
-613.0127
0
LINE
8
0
10
-154.13849
20
-129.1944
30
-608.0127
11
-154.95212
21
-129.37292
31
-603.0127
0
LINE
8
0
10
-154.95212
20
-129.37292
30
-603.0127
11
-170.62708
21
-154.95212
31
-603.0127
0
LINE
8
0
10
-170.62708
20
-154.95212
30
-603.0127
11
-170.8056
21
-154.13849
31
-608.0127
0
LINE
8
0
10
-170.8056
20
-154.13849
30
-608.0127
11
-154.13849
21
-129.1944
31
-608.0127
0
LINE
8
0
10
-170.8056
20
-154.13849
30
-608.0127
11
-170.62708
21
-154.95212
31
-603.0127
0
LINE
8
0
10
-170.62708
20
-154.95212
30
-603.0127
11
-145.04788
21
-170.62708
31
-603.0127
0
LINE
8
0
10
-145.04788
20
-170.62708
30
-603.0127
11
-145.86151
21
-170.8056
31
-608.0127
0
LINE
8
0
10
-145.86151
20
-170.8056
30
-608.0127
11
-170.8056
21
-154.13849
31
-608.0127
0
LINE
8
0
10
-145.86151
20
-170.8056
30
-608.0127
11
-145.04788
21
-170.62708
31
-603.0127
0
LINE
8
0
10
-145.04788
20
-170.62708
30
-603.0127
11
-129.37292
21
-145.04787
31
-603.0127
0
LINE
8
0
10
-129.37292
20
-145.04787
30
-603.0127
11
-129.1944
21
-145.86151
31
-608.0127
0
LINE
8
0
10
-129.1944
20
-145.86151
30
-608.0127
11
-145.86151
21
-170.8056
31
-608.0127
0
LINE
8
0
10
-129.37292
20
-145.04787
30
-603.0127
11
-129.37292
21
-145.04787
31
-603.0127
0
LINE
8
0
10
-129.37292
20
-145.04787
30
-603.0127
11
-154.95212
21
-129.37292
31
-603.0127
0
LINE
8
0
10
-154.95212
20
-129.37292
30
-603.0127
11
-154.13849
21
-129.1944
31
-608.0127
0
LINE
8
0
10
-154.13849
20
-129.1944
30
-608.0127
11
-129.1944
21
-145.86151
31
-608.0127
0
LINE
8
0
10
-154.95212
20
-129.37292
30
-603.0127
11
-155.75812
21
-129.58325
31
-598.0127
0
LINE
8
0
10
-155.75812
20
-129.58325
30
-598.0127
11
-170.41676
21
-155.75812
31
-598.0127
0
LINE
8
0
10
-170.41676
20
-155.75812
30
-598.0127
11
-170.62708
21
-154.95212
31
-603.0127
0
LINE
8
0
10
-170.62708
20
-154.95212
30
-603.0127
11
-154.95212
21
-129.37292
31
-603.0127
0
LINE
8
0
10
-170.62708
20
-154.95212
30
-603.0127
11
-170.41676
21
-155.75812
31
-598.0127
0
LINE
8
0
10
-170.41676
20
-155.75812
30
-598.0127
11
-144.24188
21
-170.41675
31
-598.0127
0
LINE
8
0
10
-144.24188
20
-170.41675
30
-598.0127
11
-145.04788
21
-170.62708
31
-603.0127
0
LINE
8
0
10
-145.04788
20
-170.62708
30
-603.0127
11
-170.62708
21
-154.95212
31
-603.0127
0
LINE
8
0
10
-145.04788
20
-170.62708
30
-603.0127
11
-144.24188
21
-170.41675
31
-598.0127
0
LINE
8
0
10
-144.24188
20
-170.41675
30
-598.0127
11
-129.58325
21
-144.24188
31
-598.0127
0
LINE
8
0
10
-129.58325
20
-144.24188
30
-598.0127
11
-129.37292
21
-145.04787
31
-603.0127
0
LINE
8
0
10
-129.37292
20
-145.04787
30
-603.0127
11
-145.04788
21
-170.62708
31
-603.0127
0
LINE
8
0
10
-129.58325
20
-144.24188
30
-598.0127
11
-129.58325
21
-144.24188
31
-598.0127
0
LINE
8
0
10
-129.58325
20
-144.24188
30
-598.0127
11
-155.75812
21
-129.58325
31
-598.0127
0
LINE
8
0
10
-155.75812
20
-129.58325
30
-598.0127
11
-154.95212
21
-129.37292
31
-603.0127
0
LINE
8
0
10
-154.95212
20
-129.37292
30
-603.0127
11
-129.37292
21
-145.04787
31
-603.0127
0
LINE
8
0
10
-155.75812
20
-129.58325
30
-598.0127
11
-156.55524
21
-129.82504
31
-593.0127
0
LINE
8
0
10
-156.55524
20
-129.82504
30
-593.0127
11
-170.17496
21
-156.55524
31
-593.0127
0
LINE
8
0
10
-170.17496
20
-156.55524
30
-593.0127
11
-170.41676
21
-155.75812
31
-598.0127
0
LINE
8
0
10
-170.41676
20
-155.75812
30
-598.0127
11
-155.75812
21
-129.58325
31
-598.0127
0
LINE
8
0
10
-170.41676
20
-155.75812
30
-598.0127
11
-170.17496
21
-156.55524
31
-593.0127
0
LINE
8
0
10
-170.17496
20
-156.55524
30
-593.0127
11
-143.44476
21
-170.17496
31
-593.0127
0
LINE
8
0
10
-143.44476
20
-170.17496
30
-593.0127
11
-144.24188
21
-170.41675
31
-598.0127
0
LINE
8
0
10
-144.24188
20
-170.41675
30
-598.0127
11
-170.41676
21
-155.75812
31
-598.0127
0
LINE
8
0
10
-144.24188
20
-170.41675
30
-598.0127
11
-143.44476
21
-170.17496
31
-593.0127
0
LINE
8
0
10
-143.44476
20
-170.17496
30
-593.0127
11
-129.82504
21
-143.44476
31
-593.0127
0
LINE
8
0
10
-129.82504
20
-143.44476
30
-593.0127
11
-129.58325
21
-144.24188
31
-598.0127
0
LINE
8
0
10
-129.58325
20
-144.24188
30
-598.0127
11
-144.24188
21
-170.41675
31
-598.0127
0
LINE
8
0
10
-129.82504
20
-143.44476
30
-593.0127
11
-129.82504
21
-143.44476
31
-593.0127
0
LINE
8
0
10
-129.82504
20
-143.44476
30
-593.0127
11
-156.55524
21
-129.82504
31
-593.0127
0
LINE
8
0
10
-156.55524
20
-129.82504
30
-593.0127
11
-155.75812
21
-129.58325
31
-598.0127
0
LINE
8
0
10
-155.75812
20
-129.58325
30
-598.0127
11
-129.58325
21
-144.24188
31
-598.0127
0
LINE
8
0
10
-156.55524
20
-129.82504
30
-593.0127
11
-157.34225
21
-130.09796
31
-588.0127
0
LINE
8
0
10
-157.34225
20
-130.09796
30
-588.0127
11
-169.90204
21
-157.34225
31
-588.0127
0
LINE
8
0
10
-169.90204
20
-157.34225
30
-588.0127
11
-170.17496
21
-156.55524
31
-593.0127
0
LINE
8
0
10
-170.17496
20
-156.55524
30
-593.0127
11
-156.55524
21
-129.82504
31
-593.0127
0
LINE
8
0
10
-170.17496
20
-156.55524
30
-593.0127
11
-169.90204
21
-157.34225
31
-588.0127
0
LINE
8
0
10
-169.90204
20
-157.34225
30
-588.0127
11
-142.65775
21
-169.90204
31
-588.0127
0
LINE
8
0
10
-142.65775
20
-169.90204
30
-588.0127
11
-143.44476
21
-170.17496
31
-593.0127
0
LINE
8
0
10
-143.44476
20
-170.17496
30
-593.0127
11
-170.17496
21
-156.55524
31
-593.0127
0
LINE
8
0
10
-143.44476
20
-170.17496
30
-593.0127
11
-142.65775
21
-169.90204
31
-588.0127
0
LINE
8
0
10
-142.65775
20
-169.90204
30
-588.0127
11
-130.09796
21
-142.65775
31
-588.0127
0
LINE
8
0
10
-130.09796
20
-142.65775
30
-588.0127
11
-129.82504
21
-143.44476
31
-593.0127
0
LINE
8
0
10
-129.82504
20
-143.44476
30
-593.0127
11
-143.44476
21
-170.17496
31
-593.0127
0
LINE
8
0
10
-130.09796
20
-142.65775
30
-588.0127
11
-130.09796
21
-142.65775
31
-588.0127
0
LINE
8
0
10
-130.09796
20
-142.65775
30
-588.0127
11
-157.34225
21
-130.09796
31
-588.0127
0
LINE
8
0
10
-157.34225
20
-130.09796
30
-588.0127
11
-156.55524
21
-129.82504
31
-593.0127
0
LINE
8
0
10
-156.55524
20
-129.82504
30
-593.0127
11
-129.82504
21
-143.44476
31
-593.0127
0
LINE
8
0
10
-157.34225
20
-130.09796
30
-588.0127
11
-158.11795
21
-130.40155
31
-583.0127
0
LINE
8
0
10
-158.11795
20
-130.40155
30
-583.0127
11
-169.59845
21
-158.11795
31
-583.0127
0
LINE
8
0
10
-169.59845
20
-158.11795
30
-583.0127
11
-169.90204
21
-157.34225
31
-588.0127
0
LINE
8
0
10
-169.90204
20
-157.34225
30
-588.0127
11
-157.34225
21
-130.09796
31
-588.0127
0
LINE
8
0
10
-169.90204
20
-157.34225
30
-588.0127
11
-169.59845
21
-158.11795
31
-583.0127
0
LINE
8
0
10
-169.59845
20
-158.11795
30
-583.0127
11
-141.88205
21
-169.59845
31
-583.0127
0
LINE
8
0
10
-141.88205
20
-169.59845
30
-583.0127
11
-142.65775
21
-169.90204
31
-588.0127
0
LINE
8
0
10
-142.65775
20
-169.90204
30
-588.0127
11
-169.90204
21
-157.34225
31
-588.0127
0
LINE
8
0
10
-142.65775
20
-169.90204
30
-588.0127
11
-141.88205
21
-169.59845
31
-583.0127
0
LINE
8
0
10
-141.88205
20
-169.59845
30
-583.0127
11
-130.40155
21
-141.88205
31
-583.0127
0
LINE
8
0
10
-130.40155
20
-141.88205
30
-583.0127
11
-130.09796
21
-142.65775
31
-588.0127
0
LINE
8
0
10
-130.09796
20
-142.65775
30
-588.0127
11
-142.65775
21
-169.90204
31
-588.0127
0
LINE
8
0
10
-130.40155
20
-141.88205
30
-583.0127
11
-130.40155
21
-141.88205
31
-583.0127
0
LINE
8
0
10
-130.40155
20
-141.88205
30
-583.0127
11
-158.11795
21
-130.40155
31
-583.0127
0
LINE
8
0
10
-158.11795
20
-130.40155
30
-583.0127
11
-157.34225
21
-130.09796
31
-588.0127
0
LINE
8
0
10
-157.34225
20
-130.09796
30
-588.0127
11
-130.09796
21
-142.65775
31
-588.0127
0
LINE
8
0
10
-158.11795
20
-130.40155
30
-583.0127
11
-158.88112
21
-130.73538
31
-578.0127
0
LINE
8
0
10
-158.88112
20
-130.73538
30
-578.0127
11
-169.26462
21
-158.8811
31
-578.0127
0
LINE
8
0
10
-169.26462
20
-158.8811
30
-578.0127
11
-169.59845
21
-158.11795
31
-583.0127
0
LINE
8
0
10
-169.59845
20
-158.11795
30
-583.0127
11
-158.11795
21
-130.40155
31
-583.0127
0
LINE
8
0
10
-169.59845
20
-158.11795
30
-583.0127
11
-169.26462
21
-158.8811
31
-578.0127
0
LINE
8
0
10
-169.26462
20
-158.8811
30
-578.0127
11
-141.11888
21
-169.26462
31
-578.0127
0
LINE
8
0
10
-141.11888
20
-169.26462
30
-578.0127
11
-141.88205
21
-169.59845
31
-583.0127
0
LINE
8
0
10
-141.88205
20
-169.59845
30
-583.0127
11
-169.59845
21
-158.11795
31
-583.0127
0
LINE
8
0
10
-141.88205
20
-169.59845
30
-583.0127
11
-141.11888
21
-169.26462
31
-578.0127
0
LINE
8
0
10
-141.11888
20
-169.26462
30
-578.0127
11
-130.73538
21
-141.11888
31
-578.0127
0
LINE
8
0
10
-130.73538
20
-141.11888
30
-578.0127
11
-130.40155
21
-141.88205
31
-583.0127
0
LINE
8
0
10
-130.40155
20
-141.88205
30
-583.0127
11
-141.88205
21
-169.59845
31
-583.0127
0
LINE
8
0
10
-130.73538
20
-141.11888
30
-578.0127
11
-130.73538
21
-141.11888
31
-578.0127
0
LINE
8
0
10
-130.73538
20
-141.11888
30
-578.0127
11
-158.88112
21
-130.73538
31
-578.0127
0
LINE
8
0
10
-158.88112
20
-130.73538
30
-578.0127
11
-158.11795
21
-130.40155
31
-583.0127
0
LINE
8
0
10
-158.11795
20
-130.40155
30
-583.0127
11
-130.40155
21
-141.88205
31
-583.0127
0
LINE
8
0
10
-158.88112
20
-130.73538
30
-578.0127
11
-159.63058
21
-131.0989
31
-573.0127
0
LINE
8
0
10
-159.63058
20
-131.0989
30
-573.0127
11
-168.9011
21
-159.63058
31
-573.0127
0
LINE
8
0
10
-168.9011
20
-159.63058
30
-573.0127
11
-169.26462
21
-158.8811
31
-578.0127
0
LINE
8
0
10
-169.26462
20
-158.8811
30
-578.0127
11
-158.88112
21
-130.73538
31
-578.0127
0
LINE
8
0
10
-169.26462
20
-158.8811
30
-578.0127
11
-168.9011
21
-159.63058
31
-573.0127
0
LINE
8
0
10
-168.9011
20
-159.63058
30
-573.0127
11
-140.3694
21
-168.9011
31
-573.0127
0
LINE
8
0
10
-140.3694
20
-168.9011
30
-573.0127
11
-141.11888
21
-169.26462
31
-578.0127
0
LINE
8
0
10
-141.11888
20
-169.26462
30
-578.0127
11
-169.26462
21
-158.8811
31
-578.0127
0
LINE
8
0
10
-141.11888
20
-169.26462
30
-578.0127
11
-140.3694
21
-168.9011
31
-573.0127
0
LINE
8
0
10
-140.3694
20
-168.9011
30
-573.0127
11
-131.0989
21
-140.3694
31
-573.0127
0
LINE
8
0
10
-131.0989
20
-140.3694
30
-573.0127
11
-130.73538
21
-141.11888
31
-578.0127
0
LINE
8
0
10
-130.73538
20
-141.11888
30
-578.0127
11
-141.11888
21
-169.26462
31
-578.0127
0
LINE
8
0
10
-131.0989
20
-140.3694
30
-573.0127
11
-131.0989
21
-140.3694
31
-573.0127
0
LINE
8
0
10
-131.0989
20
-140.3694
30
-573.0127
11
-159.63058
21
-131.0989
31
-573.0127
0
LINE
8
0
10
-159.63058
20
-131.0989
30
-573.0127
11
-158.88112
21
-130.73538
31
-578.0127
0
LINE
8
0
10
-158.88112
20
-130.73538
30
-578.0127
11
-130.73538
21
-141.11888
31
-578.0127
0
LINE
8
0
10
-159.63058
20
-131.0989
30
-573.0127
11
-160.36523
21
-131.49156
31
-568.0127
0
LINE
8
0
10
-160.36523
20
-131.49156
30
-568.0127
11
-168.50844
21
-160.36522
31
-568.0127
0
LINE
8
0
10
-168.50844
20
-160.36522
30
-568.0127
11
-168.9011
21
-159.63058
31
-573.0127
0
LINE
8
0
10
-168.9011
20
-159.63058
30
-573.0127
11
-159.63058
21
-131.0989
31
-573.0127
0
LINE
8
0
10
-168.9011
20
-159.63058
30
-573.0127
11
-168.50844
21
-160.36522
31
-568.0127
0
LINE
8
0
10
-168.50844
20
-160.36522
30
-568.0127
11
-139.63477
21
-168.50842
31
-568.0127
0
LINE
8
0
10
-139.63477
20
-168.50842
30
-568.0127
11
-140.3694
21
-168.9011
31
-573.0127
0
LINE
8
0
10
-140.3694
20
-168.9011
30
-573.0127
11
-168.9011
21
-159.63058
31
-573.0127
0
LINE
8
0
10
-140.3694
20
-168.9011
30
-573.0127
11
-139.63477
21
-168.50842
31
-568.0127
0
LINE
8
0
10
-139.63477
20
-168.50842
30
-568.0127
11
-131.49158
21
-139.63477
31
-568.0127
0
LINE
8
0
10
-131.49158
20
-139.63477
30
-568.0127
11
-131.0989
21
-140.3694
31
-573.0127
0
LINE
8
0
10
-131.0989
20
-140.3694
30
-573.0127
11
-140.3694
21
-168.9011
31
-573.0127
0
LINE
8
0
10
-131.49158
20
-139.63477
30
-568.0127
11
-131.49158
21
-139.63477
31
-568.0127
0
LINE
8
0
10
-131.49158
20
-139.63477
30
-568.0127
11
-160.36523
21
-131.49156
31
-568.0127
0
LINE
8
0
10
-160.36523
20
-131.49156
30
-568.0127
11
-159.63058
21
-131.0989
31
-573.0127
0
LINE
8
0
10
-159.63058
20
-131.0989
30
-573.0127
11
-131.0989
21
-140.3694
31
-573.0127
0
LINE
8
0
10
-160.36523
20
-131.49156
30
-568.0127
11
-161.08386
21
-131.91278
31
-563.0127
0
LINE
8
0
10
-161.08386
20
-131.91278
30
-563.0127
11
-168.08722
21
-161.08386
31
-563.0127
0
LINE
8
0
10
-168.08722
20
-161.08386
30
-563.0127
11
-168.50844
21
-160.36522
31
-568.0127
0
LINE
8
0
10
-168.50844
20
-160.36522
30
-568.0127
11
-160.36523
21
-131.49156
31
-568.0127
0
LINE
8
0
10
-168.50844
20
-160.36522
30
-568.0127
11
-168.08722
21
-161.08386
31
-563.0127
0
LINE
8
0
10
-168.08722
20
-161.08386
30
-563.0127
11
-138.91614
21
-168.08722
31
-563.0127
0
LINE
8
0
10
-138.91614
20
-168.08722
30
-563.0127
11
-139.63477
21
-168.50842
31
-568.0127
0
LINE
8
0
10
-139.63477
20
-168.50842
30
-568.0127
11
-168.50844
21
-160.36522
31
-568.0127
0
LINE
8
0
10
-139.63477
20
-168.50842
30
-568.0127
11
-138.91614
21
-168.08722
31
-563.0127
0
LINE
8
0
10
-138.91614
20
-168.08722
30
-563.0127
11
-131.91278
21
-138.91612
31
-563.0127
0
LINE
8
0
10
-131.91278
20
-138.91612
30
-563.0127
11
-131.49158
21
-139.63477
31
-568.0127
0
LINE
8
0
10
-131.49158
20
-139.63477
30
-568.0127
11
-139.63477
21
-168.50842
31
-568.0127
0
LINE
8
0
10
-131.91278
20
-138.91612
30
-563.0127
11
-131.91278
21
-138.91612
31
-563.0127
0
LINE
8
0
10
-131.91278
20
-138.91612
30
-563.0127
11
-161.08386
21
-131.91278
31
-563.0127
0
LINE
8
0
10
-161.08386
20
-131.91278
30
-563.0127
11
-160.36523
21
-131.49156
31
-568.0127
0
LINE
8
0
10
-160.36523
20
-131.49156
30
-568.0127
11
-131.49158
21
-139.63477
31
-568.0127
0
LINE
8
0
10
-161.08386
20
-131.91278
30
-563.0127
11
-161.78543
21
-132.36188
31
-558.0127
0
LINE
8
0
10
-161.78543
20
-132.36188
30
-558.0127
11
-167.63812
21
-161.78543
31
-558.0127
0
LINE
8
0
10
-167.63812
20
-161.78543
30
-558.0127
11
-168.08722
21
-161.08386
31
-563.0127
0
LINE
8
0
10
-168.08722
20
-161.08386
30
-563.0127
11
-161.08386
21
-131.91278
31
-563.0127
0
LINE
8
0
10
-168.08722
20
-161.08386
30
-563.0127
11
-167.63812
21
-161.78543
31
-558.0127
0
LINE
8
0
10
-167.63812
20
-161.78543
30
-558.0127
11
-138.21457
21
-167.63812
31
-558.0127
0
LINE
8
0
10
-138.21457
20
-167.63812
30
-558.0127
11
-138.91614
21
-168.08722
31
-563.0127
0
LINE
8
0
10
-138.91614
20
-168.08722
30
-563.0127
11
-168.08722
21
-161.08386
31
-563.0127
0
LINE
8
0
10
-138.91614
20
-168.08722
30
-563.0127
11
-138.21457
21
-167.63812
31
-558.0127
0
LINE
8
0
10
-138.21457
20
-167.63812
30
-558.0127
11
-132.36188
21
-138.21457
31
-558.0127
0
LINE
8
0
10
-132.36188
20
-138.21457
30
-558.0127
11
-131.91278
21
-138.91612
31
-563.0127
0
LINE
8
0
10
-131.91278
20
-138.91612
30
-563.0127
11
-138.91614
21
-168.08722
31
-563.0127
0
LINE
8
0
10
-132.36188
20
-138.21457
30
-558.0127
11
-132.36188
21
-138.21457
31
-558.0127
0
LINE
8
0
10
-132.36188
20
-138.21457
30
-558.0127
11
-161.78543
21
-132.36188
31
-558.0127
0
LINE
8
0
10
-161.78543
20
-132.36188
30
-558.0127
11
-161.08386
21
-131.91278
31
-563.0127
0
LINE
8
0
10
-161.08386
20
-131.91278
30
-563.0127
11
-131.91278
21
-138.91612
31
-563.0127
0
LINE
8
0
10
-161.78543
20
-132.36188
30
-558.0127
11
-162.46881
21
-132.83817
31
-553.0127
0
LINE
8
0
10
-162.46881
20
-132.83817
30
-553.0127
11
-167.16183
21
-162.46881
31
-553.0127
0
LINE
8
0
10
-167.16183
20
-162.46881
30
-553.0127
11
-167.63812
21
-161.78543
31
-558.0127
0
LINE
8
0
10
-167.63812
20
-161.78543
30
-558.0127
11
-161.78543
21
-132.36188
31
-558.0127
0
LINE
8
0
10
-167.63812
20
-161.78543
30
-558.0127
11
-167.16183
21
-162.46881
31
-553.0127
0
LINE
8
0
10
-167.16183
20
-162.46881
30
-553.0127
11
-137.53119
21
-167.16183
31
-553.0127
0
LINE
8
0
10
-137.53119
20
-167.16183
30
-553.0127
11
-138.21457
21
-167.63812
31
-558.0127
0
LINE
8
0
10
-138.21457
20
-167.63812
30
-558.0127
11
-167.63812
21
-161.78543
31
-558.0127
0
LINE
8
0
10
-138.21457
20
-167.63812
30
-558.0127
11
-137.53119
21
-167.16183
31
-553.0127
0
LINE
8
0
10
-137.53119
20
-167.16183
30
-553.0127
11
-132.83817
21
-137.53119
31
-553.0127
0
LINE
8
0
10
-132.83817
20
-137.53119
30
-553.0127
11
-132.36188
21
-138.21457
31
-558.0127
0
LINE
8
0
10
-132.36188
20
-138.21457
30
-558.0127
11
-138.21457
21
-167.63812
31
-558.0127
0
LINE
8
0
10
-132.83817
20
-137.53119
30
-553.0127
11
-132.83817
21
-137.53119
31
-553.0127
0
LINE
8
0
10
-132.83817
20
-137.53119
30
-553.0127
11
-162.46881
21
-132.83817
31
-553.0127
0
LINE
8
0
10
-162.46881
20
-132.83817
30
-553.0127
11
-161.78543
21
-132.36188
31
-558.0127
0
LINE
8
0
10
-161.78543
20
-132.36188
30
-558.0127
11
-132.36188
21
-138.21457
31
-558.0127
0
LINE
8
0
10
-162.46881
20
-132.83817
30
-553.0127
11
-163.13297
21
-133.34091
31
-548.0127
0
LINE
8
0
10
-163.13297
20
-133.34091
30
-548.0127
11
-166.65909
21
-163.13297
31
-548.0127
0
LINE
8
0
10
-166.65909
20
-163.13297
30
-548.0127
11
-167.16183
21
-162.46881
31
-553.0127
0
LINE
8
0
10
-167.16183
20
-162.46881
30
-553.0127
11
-162.46881
21
-132.83817
31
-553.0127
0
LINE
8
0
10
-167.16183
20
-162.46881
30
-553.0127
11
-166.65909
21
-163.13297
31
-548.0127
0
LINE
8
0
10
-166.65909
20
-163.13297
30
-548.0127
11
-136.86703
21
-166.65909
31
-548.0127
0
LINE
8
0
10
-136.86703
20
-166.65909
30
-548.0127
11
-137.53119
21
-167.16183
31
-553.0127
0
LINE
8
0
10
-137.53119
20
-167.16183
30
-553.0127
11
-167.16183
21
-162.46881
31
-553.0127
0
LINE
8
0
10
-137.53119
20
-167.16183
30
-553.0127
11
-136.86703
21
-166.65909
31
-548.0127
0
LINE
8
0
10
-136.86703
20
-166.65909
30
-548.0127
11
-133.34091
21
-136.86703
31
-548.0127
0
LINE
8
0
10
-133.34091
20
-136.86703
30
-548.0127
11
-132.83817
21
-137.53119
31
-553.0127
0
LINE
8
0
10
-132.83817
20
-137.53119
30
-553.0127
11
-137.53119
21
-167.16183
31
-553.0127
0
LINE
8
0
10
-133.34091
20
-136.86703
30
-548.0127
11
-133.34091
21
-136.86703
31
-548.0127
0
LINE
8
0
10
-133.34091
20
-136.86703
30
-548.0127
11
-163.13297
21
-133.34091
31
-548.0127
0
LINE
8
0
10
-163.13297
20
-133.34091
30
-548.0127
11
-162.46881
21
-132.83817
31
-553.0127
0
LINE
8
0
10
-162.46881
20
-132.83817
30
-553.0127
11
-132.83817
21
-137.53119
31
-553.0127
0
LINE
8
0
10
-163.13297
20
-133.34091
30
-548.0127
11
-163.77689
21
-133.86935
31
-543.0127
0
LINE
8
0
10
-163.77689
20
-133.86935
30
-543.0127
11
-166.13065
21
-163.77689
31
-543.0127
0
LINE
8
0
10
-166.13065
20
-163.77689
30
-543.0127
11
-166.65909
21
-163.13297
31
-548.0127
0
LINE
8
0
10
-166.65909
20
-163.13297
30
-548.0127
11
-163.13297
21
-133.34091
31
-548.0127
0
LINE
8
0
10
-166.65909
20
-163.13297
30
-548.0127
11
-166.13065
21
-163.77689
31
-543.0127
0
LINE
8
0
10
-166.13065
20
-163.77689
30
-543.0127
11
-136.22311
21
-166.13065
31
-543.0127
0
LINE
8
0
10
-136.22311
20
-166.13065
30
-543.0127
11
-136.86703
21
-166.65909
31
-548.0127
0
LINE
8
0
10
-136.86703
20
-166.65909
30
-548.0127
11
-166.65909
21
-163.13297
31
-548.0127
0
LINE
8
0
10
-136.86703
20
-166.65909
30
-548.0127
11
-136.22311
21
-166.13065
31
-543.0127
0
LINE
8
0
10
-136.22311
20
-166.13065
30
-543.0127
11
-133.86935
21
-136.22311
31
-543.0127
0
LINE
8
0
10
-133.86935
20
-136.22311
30
-543.0127
11
-133.34091
21
-136.86703
31
-548.0127
0
LINE
8
0
10
-133.34091
20
-136.86703
30
-548.0127
11
-136.86703
21
-166.65909
31
-548.0127
0
LINE
8
0
10
-133.86935
20
-136.22311
30
-543.0127
11
-133.86935
21
-136.22311
31
-543.0127
0
LINE
8
0
10
-133.86935
20
-136.22311
30
-543.0127
11
-163.77689
21
-133.86935
31
-543.0127
0
LINE
8
0
10
-163.77689
20
-133.86935
30
-543.0127
11
-163.13297
21
-133.34091
31
-548.0127
0
LINE
8
0
10
-163.13297
20
-133.34091
30
-548.0127
11
-133.34091
21
-136.86703
31
-548.0127
0
LINE
8
0
10
-163.77689
20
-133.86935
30
-543.0127
11
-164.39954
21
-134.42267
31
-538.0127
0
LINE
8
0
10
-164.39954
20
-134.42267
30
-538.0127
11
-165.57733
21
-164.39954
31
-538.0127
0
LINE
8
0
10
-165.57733
20
-164.39954
30
-538.0127
11
-166.13065
21
-163.77689
31
-543.0127
0
LINE
8
0
10
-166.13065
20
-163.77689
30
-543.0127
11
-163.77689
21
-133.86935
31
-543.0127
0
LINE
8
0
10
-166.13065
20
-163.77689
30
-543.0127
11
-165.57733
21
-164.39954
31
-538.0127
0
LINE
8
0
10
-165.57733
20
-164.39954
30
-538.0127
11
-135.60046
21
-165.57733
31
-538.0127
0
LINE
8
0
10
-135.60046
20
-165.57733
30
-538.0127
11
-136.22311
21
-166.13065
31
-543.0127
0
LINE
8
0
10
-136.22311
20
-166.13065
30
-543.0127
11
-166.13065
21
-163.77689
31
-543.0127
0
LINE
8
0
10
-136.22311
20
-166.13065
30
-543.0127
11
-135.60046
21
-165.57733
31
-538.0127
0
LINE
8
0
10
-135.60046
20
-165.57733
30
-538.0127
11
-134.42267
21
-135.60046
31
-538.0127
0
LINE
8
0
10
-134.42267
20
-135.60046
30
-538.0127
11
-133.86935
21
-136.22311
31
-543.0127
0
LINE
8
0
10
-133.86935
20
-136.22311
30
-543.0127
11
-136.22311
21
-166.13065
31
-543.0127
0
LINE
8
0
10
-134.42267
20
-135.60046
30
-538.0127
11
-134.42267
21
-135.60046
31
-538.0127
0
LINE
8
0
10
-134.42267
20
-135.60046
30
-538.0127
11
-164.39954
21
-134.42267
31
-538.0127
0
LINE
8
0
10
-164.39954
20
-134.42267
30
-538.0127
11
-163.77689
21
-133.86935
31
-543.0127
0
LINE
8
0
10
-163.77689
20
-133.86935
30
-543.0127
11
-133.86935
21
-136.22311
31
-543.0127
0
LINE
8
0
10
-164.39954
20
-134.42267
30
-538.0127
11
-165.0
21
-135.0
31
-533.0127
0
LINE
8
0
10
-165.0
20
-135.0
30
-533.0127
11
-165.0
21
-165.0
31
-533.0127
0
LINE
8
0
10
-165.0
20
-165.0
30
-533.0127
11
-165.57733
21
-164.39954
31
-538.0127
0
LINE
8
0
10
-165.57733
20
-164.39954
30
-538.0127
11
-164.39954
21
-134.42267
31
-538.0127
0
LINE
8
0
10
-165.57733
20
-164.39954
30
-538.0127
11
-165.0
21
-165.0
31
-533.0127
0
LINE
8
0
10
-165.0
20
-165.0
30
-533.0127
11
-135.0
21
-165.0
31
-533.0127
0
LINE
8
0
10
-135.0
20
-165.0
30
-533.0127
11
-135.60046
21
-165.57733
31
-538.0127
0
LINE
8
0
10
-135.60046
20
-165.57733
30
-538.0127
11
-165.57733
21
-164.39954
31
-538.0127
0
LINE
8
0
10
-135.60046
20
-165.57733
30
-538.0127
11
-135.0
21
-165.0
31
-533.0127
0
LINE
8
0
10
-135.0
20
-165.0
30
-533.0127
11
-135.0
21
-135.0
31
-533.0127
0
LINE
8
0
10
-135.0
20
-135.0
30
-533.0127
11
-134.42267
21
-135.60046
31
-538.0127
0
LINE
8
0
10
-134.42267
20
-135.60046
30
-538.0127
11
-135.60046
21
-165.57733
31
-538.0127
0
LINE
8
0
10
-135.0
20
-135.0
30
-533.0127
11
-135.0
21
-135.0
31
-533.0127
0
LINE
8
0
10
-135.0
20
-135.0
30
-533.0127
11
-165.0
21
-135.0
31
-533.0127
0
LINE
8
0
10
-165.0
20
-135.0
30
-533.0127
11
-164.39954
21
-134.42267
31
-538.0127
0
LINE
8
0
10
-164.39954
20
-134.42267
30
-538.0127
11
-134.42267
21
-135.60046
31
-538.0127
0
LINE
8
0
10
-165.0
20
-135.0
30
-533.0127
11
-165.57733
21
-135.60046
31
-528.0127
0
LINE
8
0
10
-165.57733
20
-135.60046
30
-528.0127
11
-164.39954
21
-165.57733
31
-528.0127
0
LINE
8
0
10
-164.39954
20
-165.57733
30
-528.0127
11
-165.0
21
-165.0
31
-533.0127
0
LINE
8
0
10
-165.0
20
-165.0
30
-533.0127
11
-165.0
21
-135.0
31
-533.0127
0
LINE
8
0
10
-165.0
20
-165.0
30
-533.0127
11
-164.39954
21
-165.57733
31
-528.0127
0
LINE
8
0
10
-164.39954
20
-165.57733
30
-528.0127
11
-134.42267
21
-164.39954
31
-528.0127
0
LINE
8
0
10
-134.42267
20
-164.39954
30
-528.0127
11
-135.0
21
-165.0
31
-533.0127
0
LINE
8
0
10
-135.0
20
-165.0
30
-533.0127
11
-165.0
21
-165.0
31
-533.0127
0
LINE
8
0
10
-135.0
20
-165.0
30
-533.0127
11
-134.42267
21
-164.39954
31
-528.0127
0
LINE
8
0
10
-134.42267
20
-164.39954
30
-528.0127
11
-135.60046
21
-134.42267
31
-528.0127
0
LINE
8
0
10
-135.60046
20
-134.42267
30
-528.0127
11
-135.0
21
-135.0
31
-533.0127
0
LINE
8
0
10
-135.0
20
-135.0
30
-533.0127
11
-135.0
21
-165.0
31
-533.0127
0
LINE
8
0
10
-135.60046
20
-134.42267
30
-528.0127
11
-135.60046
21
-134.42267
31
-528.0127
0
LINE
8
0
10
-135.60046
20
-134.42267
30
-528.0127
11
-165.57733
21
-135.60046
31
-528.0127
0
LINE
8
0
10
-165.57733
20
-135.60046
30
-528.0127
11
-165.0
21
-135.0
31
-533.0127
0
LINE
8
0
10
-165.0
20
-135.0
30
-533.0127
11
-135.0
21
-135.0
31
-533.0127
0
LINE
8
0
10
-165.57733
20
-135.60046
30
-528.0127
11
-166.13065
21
-136.22313
31
-523.0127
0
LINE
8
0
10
-166.13065
20
-136.22313
30
-523.0127
11
-163.77687
21
-166.13065
31
-523.0127
0
LINE
8
0
10
-163.77687
20
-166.13065
30
-523.0127
11
-164.39954
21
-165.57733
31
-528.0127
0
LINE
8
0
10
-164.39954
20
-165.57733
30
-528.0127
11
-165.57733
21
-135.60046
31
-528.0127
0
LINE
8
0
10
-164.39954
20
-165.57733
30
-528.0127
11
-163.77687
21
-166.13065
31
-523.0127
0
LINE
8
0
10
-163.77687
20
-166.13065
30
-523.0127
11
-133.86935
21
-163.77687
31
-523.0127
0
LINE
8
0
10
-133.86935
20
-163.77687
30
-523.0127
11
-134.42267
21
-164.39954
31
-528.0127
0
LINE
8
0
10
-134.42267
20
-164.39954
30
-528.0127
11
-164.39954
21
-165.57733
31
-528.0127
0
LINE
8
0
10
-134.42267
20
-164.39954
30
-528.0127
11
-133.86935
21
-163.77687
31
-523.0127
0
LINE
8
0
10
-133.86935
20
-163.77687
30
-523.0127
11
-136.22314
21
-133.86935
31
-523.0127
0
LINE
8
0
10
-136.22314
20
-133.86935
30
-523.0127
11
-135.60046
21
-134.42267
31
-528.0127
0
LINE
8
0
10
-135.60046
20
-134.42267
30
-528.0127
11
-134.42267
21
-164.39954
31
-528.0127
0
LINE
8
0
10
-136.22314
20
-133.86935
30
-523.0127
11
-136.22314
21
-133.86935
31
-523.0127
0
LINE
8
0
10
-136.22314
20
-133.86935
30
-523.0127
11
-166.13065
21
-136.22313
31
-523.0127
0
LINE
8
0
10
-166.13065
20
-136.22313
30
-523.0127
11
-165.57733
21
-135.60046
31
-528.0127
0
LINE
8
0
10
-165.57733
20
-135.60046
30
-528.0127
11
-135.60046
21
-134.42267
31
-528.0127
0
LINE
8
0
10
-166.13065
20
-136.22313
30
-523.0127
11
-166.65909
21
-136.86703
31
-518.0127
0
LINE
8
0
10
-166.65909
20
-136.86703
30
-518.0127
11
-163.13297
21
-166.65909
31
-518.0127
0
LINE
8
0
10
-163.13297
20
-166.65909
30
-518.0127
11
-163.77687
21
-166.13065
31
-523.0127
0
LINE
8
0
10
-163.77687
20
-166.13065
30
-523.0127
11
-166.13065
21
-136.22313
31
-523.0127
0
LINE
8
0
10
-163.77687
20
-166.13065
30
-523.0127
11
-163.13297
21
-166.65909
31
-518.0127
0
LINE
8
0
10
-163.13297
20
-166.65909
30
-518.0127
11
-133.34091
21
-163.13297
31
-518.0127
0
LINE
8
0
10
-133.34091
20
-163.13297
30
-518.0127
11
-133.86935
21
-163.77687
31
-523.0127
0
LINE
8
0
10
-133.86935
20
-163.77687
30
-523.0127
11
-163.77687
21
-166.13065
31
-523.0127
0
LINE
8
0
10
-133.86935
20
-163.77687
30
-523.0127
11
-133.34091
21
-163.13297
31
-518.0127
0
LINE
8
0
10
-133.34091
20
-163.13297
30
-518.0127
11
-136.86703
21
-133.34091
31
-518.0127
0
LINE
8
0
10
-136.86703
20
-133.34091
30
-518.0127
11
-136.22314
21
-133.86935
31
-523.0127
0
LINE
8
0
10
-136.22314
20
-133.86935
30
-523.0127
11
-133.86935
21
-163.77687
31
-523.0127
0
LINE
8
0
10
-136.86703
20
-133.34091
30
-518.0127
11
-136.86703
21
-133.34091
31
-518.0127
0
LINE
8
0
10
-136.86703
20
-133.34091
30
-518.0127
11
-166.65909
21
-136.86703
31
-518.0127
0
LINE
8
0
10
-166.65909
20
-136.86703
30
-518.0127
11
-166.13065
21
-136.22313
31
-523.0127
0
LINE
8
0
10
-166.13065
20
-136.22313
30
-523.0127
11
-136.22314
21
-133.86935
31
-523.0127
0
LINE
8
0
10
-166.65909
20
-136.86703
30
-518.0127
11
-167.16183
21
-137.53119
31
-513.0127
0
LINE
8
0
10
-167.16183
20
-137.53119
30
-513.0127
11
-162.46881
21
-167.16183
31
-513.0127
0
LINE
8
0
10
-162.46881
20
-167.16183
30
-513.0127
11
-163.13297
21
-166.65909
31
-518.0127
0
LINE
8
0
10
-163.13297
20
-166.65909
30
-518.0127
11
-166.65909
21
-136.86703
31
-518.0127
0
LINE
8
0
10
-163.13297
20
-166.65909
30
-518.0127
11
-162.46881
21
-167.16183
31
-513.0127
0
LINE
8
0
10
-162.46881
20
-167.16183
30
-513.0127
11
-132.83815
21
-162.46881
31
-513.0127
0
LINE
8
0
10
-132.83815
20
-162.46881
30
-513.0127
11
-133.34091
21
-163.13297
31
-518.0127
0
LINE
8
0
10
-133.34091
20
-163.13297
30
-518.0127
11
-163.13297
21
-166.65909
31
-518.0127
0
LINE
8
0
10
-133.34091
20
-163.13297
30
-518.0127
11
-132.83815
21
-162.46881
31
-513.0127
0
LINE
8
0
10
-132.83815
20
-162.46881
30
-513.0127
11
-137.5312
21
-132.83815
31
-513.0127
0
LINE
8
0
10
-137.5312
20
-132.83815
30
-513.0127
11
-136.86703
21
-133.34091
31
-518.0127
0
LINE
8
0
10
-136.86703
20
-133.34091
30
-518.0127
11
-133.34091
21
-163.13297
31
-518.0127
0
LINE
8
0
10
-137.5312
20
-132.83815
30
-513.0127
11
-137.5312
21
-132.83815
31
-513.0127
0
LINE
8
0
10
-137.5312
20
-132.83815
30
-513.0127
11
-167.16183
21
-137.53119
31
-513.0127
0
LINE
8
0
10
-167.16183
20
-137.53119
30
-513.0127
11
-166.65909
21
-136.86703
31
-518.0127
0
LINE
8
0
10
-166.65909
20
-136.86703
30
-518.0127
11
-136.86703
21
-133.34091
31
-518.0127
0
LINE
8
0
10
-167.16183
20
-137.53119
30
-513.0127
11
-167.63814
21
-138.21457
31
-508.0127
0
LINE
8
0
10
-167.63814
20
-138.21457
30
-508.0127
11
-161.78542
21
-167.63814
31
-508.0127
0
LINE
8
0
10
-161.78542
20
-167.63814
30
-508.0127
11
-162.46881
21
-167.16183
31
-513.0127
0
LINE
8
0
10
-162.46881
20
-167.16183
30
-513.0127
11
-167.16183
21
-137.53119
31
-513.0127
0
LINE
8
0
10
-162.46881
20
-167.16183
30
-513.0127
11
-161.78542
21
-167.63814
31
-508.0127
0
LINE
8
0
10
-161.78542
20
-167.63814
30
-508.0127
11
-132.36186
21
-161.78542
31
-508.0127
0
LINE
8
0
10
-132.36186
20
-161.78542
30
-508.0127
11
-132.83815
21
-162.46881
31
-513.0127
0
LINE
8
0
10
-132.83815
20
-162.46881
30
-513.0127
11
-162.46881
21
-167.16183
31
-513.0127
0
LINE
8
0
10
-132.83815
20
-162.46881
30
-513.0127
11
-132.36186
21
-161.78542
31
-508.0127
0
LINE
8
0
10
-132.36186
20
-161.78542
30
-508.0127
11
-138.21458
21
-132.36186
31
-508.0127
0
LINE
8
0
10
-138.21458
20
-132.36186
30
-508.0127
11
-137.5312
21
-132.83815
31
-513.0127
0
LINE
8
0
10
-137.5312
20
-132.83815
30
-513.0127
11
-132.83815
21
-162.46881
31
-513.0127
0
LINE
8
0
10
-138.21458
20
-132.36186
30
-508.0127
11
-138.21458
21
-132.36186
31
-508.0127
0
LINE
8
0
10
-138.21458
20
-132.36186
30
-508.0127
11
-167.63814
21
-138.21457
31
-508.0127
0
LINE
8
0
10
-167.63814
20
-138.21457
30
-508.0127
11
-167.16183
21
-137.53119
31
-513.0127
0
LINE
8
0
10
-167.16183
20
-137.53119
30
-513.0127
11
-137.5312
21
-132.83815
31
-513.0127
0
LINE
8
0
10
-167.63814
20
-138.21457
30
-508.0127
11
-168.08723
21
-138.91614
31
-503.0127
0
LINE
8
0
10
-168.08723
20
-138.91614
30
-503.0127
11
-161.08386
21
-168.08723
31
-503.0127
0
LINE
8
0
10
-161.08386
20
-168.08723
30
-503.0127
11
-161.78542
21
-167.63814
31
-508.0127
0
LINE
8
0
10
-161.78542
20
-167.63814
30
-508.0127
11
-167.63814
21
-138.21457
31
-508.0127
0
LINE
8
0
10
-161.78542
20
-167.63814
30
-508.0127
11
-161.08386
21
-168.08723
31
-503.0127
0
LINE
8
0
10
-161.08386
20
-168.08723
30
-503.0127
11
-131.91277
21
-161.08386
31
-503.0127
0
LINE
8
0
10
-131.91277
20
-161.08386
30
-503.0127
11
-132.36186
21
-161.78542
31
-508.0127
0
LINE
8
0
10
-132.36186
20
-161.78542
30
-508.0127
11
-161.78542
21
-167.63814
31
-508.0127
0
LINE
8
0
10
-132.36186
20
-161.78542
30
-508.0127
11
-131.91277
21
-161.08386
31
-503.0127
0
LINE
8
0
10
-131.91277
20
-161.08386
30
-503.0127
11
-138.91614
21
-131.91277
31
-503.0127
0
LINE
8
0
10
-138.91614
20
-131.91277
30
-503.0127
11
-138.21458
21
-132.36186
31
-508.0127
0
LINE
8
0
10
-138.21458
20
-132.36186
30
-508.0127
11
-132.36186
21
-161.78542
31
-508.0127
0
LINE
8
0
10
-138.91614
20
-131.91277
30
-503.0127
11
-138.91614
21
-131.91277
31
-503.0127
0
LINE
8
0
10
-138.91614
20
-131.91277
30
-503.0127
11
-168.08723
21
-138.91614
31
-503.0127
0
LINE
8
0
10
-168.08723
20
-138.91614
30
-503.0127
11
-167.63814
21
-138.21457
31
-508.0127
0
LINE
8
0
10
-167.63814
20
-138.21457
30
-508.0127
11
-138.21458
21
-132.36186
31
-508.0127
0
LINE
8
0
10
-168.08723
20
-138.91614
30
-503.0127
11
-168.50844
21
-139.63478
31
-498.0127
0
LINE
8
0
10
-168.50844
20
-139.63478
30
-498.0127
11
-160.36522
21
-168.50844
31
-498.0127
0
LINE
8
0
10
-160.36522
20
-168.50844
30
-498.0127
11
-161.08386
21
-168.08723
31
-503.0127
0
LINE
8
0
10
-161.08386
20
-168.08723
30
-503.0127
11
-168.08723
21
-138.91614
31
-503.0127
0
LINE
8
0
10
-161.08386
20
-168.08723
30
-503.0127
11
-160.36522
21
-168.50844
31
-498.0127
0
LINE
8
0
10
-160.36522
20
-168.50844
30
-498.0127
11
-131.49156
21
-160.36522
31
-498.0127
0
LINE
8
0
10
-131.49156
20
-160.36522
30
-498.0127
11
-131.91277
21
-161.08386
31
-503.0127
0
LINE
8
0
10
-131.91277
20
-161.08386
30
-503.0127
11
-161.08386
21
-168.08723
31
-503.0127
0
LINE
8
0
10
-131.91277
20
-161.08386
30
-503.0127
11
-131.49156
21
-160.36522
31
-498.0127
0
LINE
8
0
10
-131.49156
20
-160.36522
30
-498.0127
11
-139.6348
21
-131.49156
31
-498.0127
0
LINE
8
0
10
-139.6348
20
-131.49156
30
-498.0127
11
-138.91614
21
-131.91277
31
-503.0127
0
LINE
8
0
10
-138.91614
20
-131.91277
30
-503.0127
11
-131.91277
21
-161.08386
31
-503.0127
0
LINE
8
0
10
-139.6348
20
-131.49156
30
-498.0127
11
-139.6348
21
-131.49156
31
-498.0127
0
LINE
8
0
10
-139.6348
20
-131.49156
30
-498.0127
11
-168.50844
21
-139.63478
31
-498.0127
0
LINE
8
0
10
-168.50844
20
-139.63478
30
-498.0127
11
-168.08723
21
-138.91614
31
-503.0127
0
LINE
8
0
10
-168.08723
20
-138.91614
30
-503.0127
11
-138.91614
21
-131.91277
31
-503.0127
0
LINE
8
0
10
-168.50844
20
-139.63478
30
-498.0127
11
-168.90111
21
-140.36942
31
-493.0127
0
LINE
8
0
10
-168.90111
20
-140.36942
30
-493.0127
11
-159.6306
21
-168.9011
31
-493.0127
0
LINE
8
0
10
-159.6306
20
-168.9011
30
-493.0127
11
-160.36522
21
-168.50844
31
-498.0127
0
LINE
8
0
10
-160.36522
20
-168.50844
30
-498.0127
11
-168.50844
21
-139.63478
31
-498.0127
0
LINE
8
0
10
-160.36522
20
-168.50844
30
-498.0127
11
-159.6306
21
-168.9011
31
-493.0127
0
LINE
8
0
10
-159.6306
20
-168.9011
30
-493.0127
11
-131.09889
21
-159.63058
31
-493.0127
0
LINE
8
0
10
-131.09889
20
-159.63058
30
-493.0127
11
-131.49156
21
-160.36522
31
-498.0127
0
LINE
8
0
10
-131.49156
20
-160.36522
30
-498.0127
11
-160.36522
21
-168.50844
31
-498.0127
0
LINE
8
0
10
-131.49156
20
-160.36522
30
-498.0127
11
-131.09889
21
-159.63058
31
-493.0127
0
LINE
8
0
10
-131.09889
20
-159.63058
30
-493.0127
11
-140.36942
21
-131.09889
31
-493.0127
0
LINE
8
0
10
-140.36942
20
-131.09889
30
-493.0127
11
-139.6348
21
-131.49156
31
-498.0127
0
LINE
8
0
10
-139.6348
20
-131.49156
30
-498.0127
11
-131.49156
21
-160.36522
31
-498.0127
0
LINE
8
0
10
-140.36942
20
-131.09889
30
-493.0127
11
-140.36942
21
-131.09889
31
-493.0127
0
LINE
8
0
10
-140.36942
20
-131.09889
30
-493.0127
11
-168.90111
21
-140.36942
31
-493.0127
0
LINE
8
0
10
-168.90111
20
-140.36942
30
-493.0127
11
-168.50844
21
-139.63478
31
-498.0127
0
LINE
8
0
10
-168.50844
20
-139.63478
30
-498.0127
11
-139.6348
21
-131.49156
31
-498.0127
0
LINE
8
0
10
-168.90111
20
-140.36942
30
-493.0127
11
-169.26462
21
-141.1189
31
-488.0127
0
LINE
8
0
10
-169.26462
20
-141.1189
30
-488.0127
11
-158.8811
21
-169.26462
31
-488.0127
0
LINE
8
0
10
-158.8811
20
-169.26462
30
-488.0127
11
-159.6306
21
-168.9011
31
-493.0127
0
LINE
8
0
10
-159.6306
20
-168.9011
30
-493.0127
11
-168.90111
21
-140.36942
31
-493.0127
0
LINE
8
0
10
-159.6306
20
-168.9011
30
-493.0127
11
-158.8811
21
-169.26462
31
-488.0127
0
LINE
8
0
10
-158.8811
20
-169.26462
30
-488.0127
11
-130.73538
21
-158.8811
31
-488.0127
0
LINE
8
0
10
-130.73538
20
-158.8811
30
-488.0127
11
-131.09889
21
-159.63058
31
-493.0127
0
LINE
8
0
10
-131.09889
20
-159.63058
30
-493.0127
11
-159.6306
21
-168.9011
31
-493.0127
0
LINE
8
0
10
-131.09889
20
-159.63058
30
-493.0127
11
-130.73538
21
-158.8811
31
-488.0127
0
LINE
8
0
10
-130.73538
20
-158.8811
30
-488.0127
11
-141.1189
21
-130.73537
31
-488.0127
0
LINE
8
0
10
-141.1189
20
-130.73537
30
-488.0127
11
-140.36942
21
-131.09889
31
-493.0127
0
LINE
8
0
10
-140.36942
20
-131.09889
30
-493.0127
11
-131.09889
21
-159.63058
31
-493.0127
0
LINE
8
0
10
-141.1189
20
-130.73537
30
-488.0127
11
-141.1189
21
-130.73537
31
-488.0127
0
LINE
8
0
10
-141.1189
20
-130.73537
30
-488.0127
11
-169.26462
21
-141.1189
31
-488.0127
0
LINE
8
0
10
-169.26462
20
-141.1189
30
-488.0127
11
-168.90111
21
-140.36942
31
-493.0127
0
LINE
8
0
10
-168.90111
20
-140.36942
30
-493.0127
11
-140.36942
21
-131.09889
31
-493.0127
0
LINE
8
0
10
-169.26462
20
-141.1189
30
-488.0127
11
-169.59845
21
-141.88206
31
-483.0127
0
LINE
8
0
10
-169.59845
20
-141.88206
30
-483.0127
11
-158.11795
21
-169.59845
31
-483.0127
0
LINE
8
0
10
-158.11795
20
-169.59845
30
-483.0127
11
-158.8811
21
-169.26462
31
-488.0127
0
LINE
8
0
10
-158.8811
20
-169.26462
30
-488.0127
11
-169.26462
21
-141.1189
31
-488.0127
0
LINE
8
0
10
-158.8811
20
-169.26462
30
-488.0127
11
-158.11795
21
-169.59845
31
-483.0127
0
LINE
8
0
10
-158.11795
20
-169.59845
30
-483.0127
11
-130.40155
21
-158.11794
31
-483.0127
0
LINE
8
0
10
-130.40155
20
-158.11794
30
-483.0127
11
-130.73538
21
-158.8811
31
-488.0127
0
LINE
8
0
10
-130.73538
20
-158.8811
30
-488.0127
11
-158.8811
21
-169.26462
31
-488.0127
0
LINE
8
0
10
-130.73538
20
-158.8811
30
-488.0127
11
-130.40155
21
-158.11794
31
-483.0127
0
LINE
8
0
10
-130.40155
20
-158.11794
30
-483.0127
11
-141.88206
21
-130.40155
31
-483.0127
0
LINE
8
0
10
-141.88206
20
-130.40155
30
-483.0127
11
-141.1189
21
-130.73537
31
-488.0127
0
LINE
8
0
10
-141.1189
20
-130.73537
30
-488.0127
11
-130.73538
21
-158.8811
31
-488.0127
0
LINE
8
0
10
-141.88206
20
-130.40155
30
-483.0127
11
-141.88206
21
-130.40155
31
-483.0127
0
LINE
8
0
10
-141.88206
20
-130.40155
30
-483.0127
11
-169.59845
21
-141.88206
31
-483.0127
0
LINE
8
0
10
-169.59845
20
-141.88206
30
-483.0127
11
-169.26462
21
-141.1189
31
-488.0127
0
LINE
8
0
10
-169.26462
20
-141.1189
30
-488.0127
11
-141.1189
21
-130.73537
31
-488.0127
0
LINE
8
0
10
-169.59845
20
-141.88206
30
-483.0127
11
-169.53409
21
-141.7284
31
-478.0127
0
LINE
8
0
10
-169.53409
20
-141.7284
30
-478.0127
11
-158.2716
21
-169.53409
31
-478.0127
0
LINE
8
0
10
-158.2716
20
-169.53409
30
-478.0127
11
-158.11795
21
-169.59845
31
-483.0127
0
LINE
8
0
10
-158.11795
20
-169.59845
30
-483.0127
11
-169.59845
21
-141.88206
31
-483.0127
0
LINE
8
0
10
-158.11795
20
-169.59845
30
-483.0127
11
-158.2716
21
-169.53409
31
-478.0127
0
LINE
8
0
10
-158.2716
20
-169.53409
30
-478.0127
11
-130.46591
21
-158.2716
31
-478.0127
0
LINE
8
0
10
-130.46591
20
-158.2716
30
-478.0127
11
-130.40155
21
-158.11794
31
-483.0127
0
LINE
8
0
10
-130.40155
20
-158.11794
30
-483.0127
11
-158.11795
21
-169.59845
31
-483.0127
0
LINE
8
0
10
-130.40155
20
-158.11794
30
-483.0127
11
-130.46591
21
-158.2716
31
-478.0127
0
LINE
8
0
10
-130.46591
20
-158.2716
30
-478.0127
11
-141.7284
21
-130.46591
31
-478.0127
0
LINE
8
0
10
-141.7284
20
-130.46591
30
-478.0127
11
-141.88206
21
-130.40155
31
-483.0127
0
LINE
8
0
10
-141.88206
20
-130.40155
30
-483.0127
11
-130.40155
21
-158.11794
31
-483.0127
0
LINE
8
0
10
-141.7284
20
-130.46591
30
-478.0127
11
-141.7284
21
-130.46591
31
-478.0127
0
LINE
8
0
10
-141.7284
20
-130.46591
30
-478.0127
11
-169.53409
21
-141.7284
31
-478.0127
0
LINE
8
0
10
-169.53409
20
-141.7284
30
-478.0127
11
-169.59845
21
-141.88206
31
-483.0127
0
LINE
8
0
10
-169.59845
20
-141.88206
30
-483.0127
11
-141.88206
21
-130.40155
31
-483.0127
0
LINE
8
0
10
-169.53409
20
-141.7284
30
-478.0127
11
-169.53409
21
-141.7284
31
-473.0127
0
LINE
8
0
10
-169.53409
20
-141.7284
30
-473.0127
11
-158.2716
21
-169.53409
31
-473.0127
0
LINE
8
0
10
-158.2716
20
-169.53409
30
-473.0127
11
-158.2716
21
-169.53409
31
-478.0127
0
LINE
8
0
10
-158.2716
20
-169.53409
30
-478.0127
11
-169.53409
21
-141.7284
31
-478.0127
0
LINE
8
0
10
-158.2716
20
-169.53409
30
-478.0127
11
-158.2716
21
-169.53409
31
-473.0127
0
LINE
8
0
10
-158.2716
20
-169.53409
30
-473.0127
11
-130.46591
21
-158.2716
31
-473.0127
0
LINE
8
0
10
-130.46591
20
-158.2716
30
-473.0127
11
-130.46591
21
-158.2716
31
-478.0127
0
LINE
8
0
10
-130.46591
20
-158.2716
30
-478.0127
11
-158.2716
21
-169.53409
31
-478.0127
0
LINE
8
0
10
-130.46591
20
-158.2716
30
-478.0127
11
-130.46591
21
-158.2716
31
-473.0127
0
LINE
8
0
10
-130.46591
20
-158.2716
30
-473.0127
11
-141.7284
21
-130.46591
31
-473.0127
0
LINE
8
0
10
-141.7284
20
-130.46591
30
-473.0127
11
-141.7284
21
-130.46591
31
-478.0127
0
LINE
8
0
10
-141.7284
20
-130.46591
30
-478.0127
11
-130.46591
21
-158.2716
31
-478.0127
0
LINE
8
0
10
-141.7284
20
-130.46591
30
-473.0127
11
-141.7284
21
-130.46591
31
-473.0127
0
LINE
8
0
10
-141.7284
20
-130.46591
30
-473.0127
11
-169.53409
21
-141.7284
31
-473.0127
0
LINE
8
0
10
-169.53409
20
-141.7284
30
-473.0127
11
-169.53409
21
-141.7284
31
-478.0127
0
LINE
8
0
10
-169.53409
20
-141.7284
30
-478.0127
11
-141.7284
21
-130.46591
31
-478.0127
0
LINE
8
0
10
-169.53409
20
-141.7284
30
-473.0127
11
-169.53409
21
-141.7284
31
-468.0127
0
LINE
8
0
10
-169.53409
20
-141.7284
30
-468.0127
11
-158.2716
21
-169.53409
31
-468.0127
0
LINE
8
0
10
-158.2716
20
-169.53409
30
-468.0127
11
-158.2716
21
-169.53409
31
-473.0127
0
LINE
8
0
10
-158.2716
20
-169.53409
30
-473.0127
11
-169.53409
21
-141.7284
31
-473.0127
0
LINE
8
0
10
-158.2716
20
-169.53409
30
-473.0127
11
-158.2716
21
-169.53409
31
-468.0127
0
LINE
8
0
10
-158.2716
20
-169.53409
30
-468.0127
11
-130.46591
21
-158.2716
31
-468.0127
0
LINE
8
0
10
-130.46591
20
-158.2716
30
-468.0127
11
-130.46591
21
-158.2716
31
-473.0127
0
LINE
8
0
10
-130.46591
20
-158.2716
30
-473.0127
11
-158.2716
21
-169.53409
31
-473.0127
0
LINE
8
0
10
-130.46591
20
-158.2716
30
-473.0127
11
-130.46591
21
-158.2716
31
-468.0127
0
LINE
8
0
10
-130.46591
20
-158.2716
30
-468.0127
11
-141.7284
21
-130.46591
31
-468.0127
0
LINE
8
0
10
-141.7284
20
-130.46591
30
-468.0127
11
-141.7284
21
-130.46591
31
-473.0127
0
LINE
8
0
10
-141.7284
20
-130.46591
30
-473.0127
11
-130.46591
21
-158.2716
31
-473.0127
0
LINE
8
0
10
-141.7284
20
-130.46591
30
-468.0127
11
-141.7284
21
-130.46591
31
-468.0127
0
LINE
8
0
10
-141.7284
20
-130.46591
30
-468.0127
11
-169.53409
21
-141.7284
31
-468.0127
0
LINE
8
0
10
-169.53409
20
-141.7284
30
-468.0127
11
-169.53409
21
-141.7284
31
-473.0127
0
LINE
8
0
10
-169.53409
20
-141.7284
30
-473.0127
11
-141.7284
21
-130.46591
31
-473.0127
0
LINE
8
0
10
-169.53409
20
-141.7284
30
-468.0127
11
-169.53409
21
-141.7284
31
-463.0127
0
LINE
8
0
10
-169.53409
20
-141.7284
30
-463.0127
11
-158.2716
21
-169.53409
31
-463.0127
0
LINE
8
0
10
-158.2716
20
-169.53409
30
-463.0127
11
-158.2716
21
-169.53409
31
-468.0127
0
LINE
8
0
10
-158.2716
20
-169.53409
30
-468.0127
11
-169.53409
21
-141.7284
31
-468.0127
0
LINE
8
0
10
-158.2716
20
-169.53409
30
-468.0127
11
-158.2716
21
-169.53409
31
-463.0127
0
LINE
8
0
10
-158.2716
20
-169.53409
30
-463.0127
11
-130.46591
21
-158.2716
31
-463.0127
0
LINE
8
0
10
-130.46591
20
-158.2716
30
-463.0127
11
-130.46591
21
-158.2716
31
-468.0127
0
LINE
8
0
10
-130.46591
20
-158.2716
30
-468.0127
11
-158.2716
21
-169.53409
31
-468.0127
0
LINE
8
0
10
-130.46591
20
-158.2716
30
-468.0127
11
-130.46591
21
-158.2716
31
-463.0127
0
LINE
8
0
10
-130.46591
20
-158.2716
30
-463.0127
11
-141.7284
21
-130.46591
31
-463.0127
0
LINE
8
0
10
-141.7284
20
-130.46591
30
-463.0127
11
-141.7284
21
-130.46591
31
-468.0127
0
LINE
8
0
10
-141.7284
20
-130.46591
30
-468.0127
11
-130.46591
21
-158.2716
31
-468.0127
0
LINE
8
0
10
-141.7284
20
-130.46591
30
-463.0127
11
-141.7284
21
-130.46591
31
-463.0127
0
LINE
8
0
10
-141.7284
20
-130.46591
30
-463.0127
11
-169.53409
21
-141.7284
31
-463.0127
0
LINE
8
0
10
-169.53409
20
-141.7284
30
-463.0127
11
-169.53409
21
-141.7284
31
-468.0127
0
LINE
8
0
10
-169.53409
20
-141.7284
30
-468.0127
11
-141.7284
21
-130.46591
31
-468.0127
0
LINE
8
0
10
-169.53409
20
-141.7284
30
-463.0127
11
-169.53409
21
-141.7284
31
-458.0127
0
LINE
8
0
10
-169.53409
20
-141.7284
30
-458.0127
11
-158.2716
21
-169.53409
31
-458.0127
0
LINE
8
0
10
-158.2716
20
-169.53409
30
-458.0127
11
-158.2716
21
-169.53409
31
-463.0127
0
LINE
8
0
10
-158.2716
20
-169.53409
30
-463.0127
11
-169.53409
21
-141.7284
31
-463.0127
0
LINE
8
0
10
-158.2716
20
-169.53409
30
-463.0127
11
-158.2716
21
-169.53409
31
-458.0127
0
LINE
8
0
10
-158.2716
20
-169.53409
30
-458.0127
11
-130.46591
21
-158.2716
31
-458.0127
0
LINE
8
0
10
-130.46591
20
-158.2716
30
-458.0127
11
-130.46591
21
-158.2716
31
-463.0127
0
LINE
8
0
10
-130.46591
20
-158.2716
30
-463.0127
11
-158.2716
21
-169.53409
31
-463.0127
0
LINE
8
0
10
-130.46591
20
-158.2716
30
-463.0127
11
-130.46591
21
-158.2716
31
-458.0127
0
LINE
8
0
10
-130.46591
20
-158.2716
30
-458.0127
11
-141.7284
21
-130.46591
31
-458.0127
0
LINE
8
0
10
-141.7284
20
-130.46591
30
-458.0127
11
-141.7284
21
-130.46591
31
-463.0127
0
LINE
8
0
10
-141.7284
20
-130.46591
30
-463.0127
11
-130.46591
21
-158.2716
31
-463.0127
0
LINE
8
0
10
-141.7284
20
-130.46591
30
-458.0127
11
-141.7284
21
-130.46591
31
-458.0127
0
LINE
8
0
10
-141.7284
20
-130.46591
30
-458.0127
11
-169.53409
21
-141.7284
31
-458.0127
0
LINE
8
0
10
-169.53409
20
-141.7284
30
-458.0127
11
-169.53409
21
-141.7284
31
-463.0127
0
LINE
8
0
10
-169.53409
20
-141.7284
30
-463.0127
11
-141.7284
21
-130.46591
31
-463.0127
0
LINE
8
0
10
-169.53409
20
-141.7284
30
-458.0127
11
-169.53409
21
-141.7284
31
-453.0127
0
LINE
8
0
10
-169.53409
20
-141.7284
30
-453.0127
11
-158.2716
21
-169.53409
31
-453.0127
0
LINE
8
0
10
-158.2716
20
-169.53409
30
-453.0127
11
-158.2716
21
-169.53409
31
-458.0127
0
LINE
8
0
10
-158.2716
20
-169.53409
30
-458.0127
11
-169.53409
21
-141.7284
31
-458.0127
0
LINE
8
0
10
-158.2716
20
-169.53409
30
-458.0127
11
-158.2716
21
-169.53409
31
-453.0127
0
LINE
8
0
10
-158.2716
20
-169.53409
30
-453.0127
11
-130.46591
21
-158.2716
31
-453.0127
0
LINE
8
0
10
-130.46591
20
-158.2716
30
-453.0127
11
-130.46591
21
-158.2716
31
-458.0127
0
LINE
8
0
10
-130.46591
20
-158.2716
30
-458.0127
11
-158.2716
21
-169.53409
31
-458.0127
0
LINE
8
0
10
-130.46591
20
-158.2716
30
-458.0127
11
-130.46591
21
-158.2716
31
-453.0127
0
LINE
8
0
10
-130.46591
20
-158.2716
30
-453.0127
11
-141.7284
21
-130.46591
31
-453.0127
0
LINE
8
0
10
-141.7284
20
-130.46591
30
-453.0127
11
-141.7284
21
-130.46591
31
-458.0127
0
LINE
8
0
10
-141.7284
20
-130.46591
30
-458.0127
11
-130.46591
21
-158.2716
31
-458.0127
0
LINE
8
0
10
-141.7284
20
-130.46591
30
-453.0127
11
-141.7284
21
-130.46591
31
-453.0127
0
LINE
8
0
10
-141.7284
20
-130.46591
30
-453.0127
11
-169.53409
21
-141.7284
31
-453.0127
0
LINE
8
0
10
-169.53409
20
-141.7284
30
-453.0127
11
-169.53409
21
-141.7284
31
-458.0127
0
LINE
8
0
10
-169.53409
20
-141.7284
30
-458.0127
11
-141.7284
21
-130.46591
31
-458.0127
0
LINE
8
0
10
-169.53409
20
-141.7284
30
-453.0127
11
-169.53409
21
-141.7284
31
-448.0127
0
LINE
8
0
10
-169.53409
20
-141.7284
30
-448.0127
11
-158.2716
21
-169.53409
31
-448.0127
0
LINE
8
0
10
-158.2716
20
-169.53409
30
-448.0127
11
-158.2716
21
-169.53409
31
-453.0127
0
LINE
8
0
10
-158.2716
20
-169.53409
30
-453.0127
11
-169.53409
21
-141.7284
31
-453.0127
0
LINE
8
0
10
-158.2716
20
-169.53409
30
-453.0127
11
-158.2716
21
-169.53409
31
-448.0127
0
LINE
8
0
10
-158.2716
20
-169.53409
30
-448.0127
11
-130.46591
21
-158.2716
31
-448.0127
0
LINE
8
0
10
-130.46591
20
-158.2716
30
-448.0127
11
-130.46591
21
-158.2716
31
-453.0127
0
LINE
8
0
10
-130.46591
20
-158.2716
30
-453.0127
11
-158.2716
21
-169.53409
31
-453.0127
0
LINE
8
0
10
-130.46591
20
-158.2716
30
-453.0127
11
-130.46591
21
-158.2716
31
-448.0127
0
LINE
8
0
10
-130.46591
20
-158.2716
30
-448.0127
11
-141.7284
21
-130.46591
31
-448.0127
0
LINE
8
0
10
-141.7284
20
-130.46591
30
-448.0127
11
-141.7284
21
-130.46591
31
-453.0127
0
LINE
8
0
10
-141.7284
20
-130.46591
30
-453.0127
11
-130.46591
21
-158.2716
31
-453.0127
0
LINE
8
0
10
-141.7284
20
-130.46591
30
-448.0127
11
-141.7284
21
-130.46591
31
-448.0127
0
LINE
8
0
10
-141.7284
20
-130.46591
30
-448.0127
11
-169.53409
21
-141.7284
31
-448.0127
0
LINE
8
0
10
-169.53409
20
-141.7284
30
-448.0127
11
-169.53409
21
-141.7284
31
-453.0127
0
LINE
8
0
10
-169.53409
20
-141.7284
30
-453.0127
11
-141.7284
21
-130.46591
31
-453.0127
0
LINE
8
0
10
-169.53409
20
-141.7284
30
-448.0127
11
-169.53409
21
-141.7284
31
-443.0127
0
LINE
8
0
10
-169.53409
20
-141.7284
30
-443.0127
11
-158.2716
21
-169.53409
31
-443.0127
0
LINE
8
0
10
-158.2716
20
-169.53409
30
-443.0127
11
-158.2716
21
-169.53409
31
-448.0127
0
LINE
8
0
10
-158.2716
20
-169.53409
30
-448.0127
11
-169.53409
21
-141.7284
31
-448.0127
0
LINE
8
0
10
-158.2716
20
-169.53409
30
-448.0127
11
-158.2716
21
-169.53409
31
-443.0127
0
LINE
8
0
10
-158.2716
20
-169.53409
30
-443.0127
11
-130.46591
21
-158.2716
31
-443.0127
0
LINE
8
0
10
-130.46591
20
-158.2716
30
-443.0127
11
-130.46591
21
-158.2716
31
-448.0127
0
LINE
8
0
10
-130.46591
20
-158.2716
30
-448.0127
11
-158.2716
21
-169.53409
31
-448.0127
0
LINE
8
0
10
-130.46591
20
-158.2716
30
-448.0127
11
-130.46591
21
-158.2716
31
-443.0127
0
LINE
8
0
10
-130.46591
20
-158.2716
30
-443.0127
11
-141.7284
21
-130.46591
31
-443.0127
0
LINE
8
0
10
-141.7284
20
-130.46591
30
-443.0127
11
-141.7284
21
-130.46591
31
-448.0127
0
LINE
8
0
10
-141.7284
20
-130.46591
30
-448.0127
11
-130.46591
21
-158.2716
31
-448.0127
0
LINE
8
0
10
-141.7284
20
-130.46591
30
-443.0127
11
-141.7284
21
-130.46591
31
-443.0127
0
LINE
8
0
10
-141.7284
20
-130.46591
30
-443.0127
11
-169.53409
21
-141.7284
31
-443.0127
0
LINE
8
0
10
-169.53409
20
-141.7284
30
-443.0127
11
-169.53409
21
-141.7284
31
-448.0127
0
LINE
8
0
10
-169.53409
20
-141.7284
30
-448.0127
11
-141.7284
21
-130.46591
31
-448.0127
0
LINE
8
0
10
-169.53409
20
-141.7284
30
-443.0127
11
-169.53409
21
-141.7284
31
-438.0127
0
LINE
8
0
10
-169.53409
20
-141.7284
30
-438.0127
11
-158.2716
21
-169.53409
31
-438.0127
0
LINE
8
0
10
-158.2716
20
-169.53409
30
-438.0127
11
-158.2716
21
-169.53409
31
-443.0127
0
LINE
8
0
10
-158.2716
20
-169.53409
30
-443.0127
11
-169.53409
21
-141.7284
31
-443.0127
0
LINE
8
0
10
-158.2716
20
-169.53409
30
-443.0127
11
-158.2716
21
-169.53409
31
-438.0127
0
LINE
8
0
10
-158.2716
20
-169.53409
30
-438.0127
11
-130.46591
21
-158.2716
31
-438.0127
0
LINE
8
0
10
-130.46591
20
-158.2716
30
-438.0127
11
-130.46591
21
-158.2716
31
-443.0127
0
LINE
8
0
10
-130.46591
20
-158.2716
30
-443.0127
11
-158.2716
21
-169.53409
31
-443.0127
0
LINE
8
0
10
-130.46591
20
-158.2716
30
-443.0127
11
-130.46591
21
-158.2716
31
-438.0127
0
LINE
8
0
10
-130.46591
20
-158.2716
30
-438.0127
11
-141.7284
21
-130.46591
31
-438.0127
0
LINE
8
0
10
-141.7284
20
-130.46591
30
-438.0127
11
-141.7284
21
-130.46591
31
-443.0127
0
LINE
8
0
10
-141.7284
20
-130.46591
30
-443.0127
11
-130.46591
21
-158.2716
31
-443.0127
0
LINE
8
0
10
-141.7284
20
-130.46591
30
-438.0127
11
-141.7284
21
-130.46591
31
-438.0127
0
LINE
8
0
10
-141.7284
20
-130.46591
30
-438.0127
11
-169.53409
21
-141.7284
31
-438.0127
0
LINE
8
0
10
-169.53409
20
-141.7284
30
-438.0127
11
-169.53409
21
-141.7284
31
-443.0127
0
LINE
8
0
10
-169.53409
20
-141.7284
30
-443.0127
11
-141.7284
21
-130.46591
31
-443.0127
0
LINE
8
0
10
-169.53409
20
-141.7284
30
-438.0127
11
-158.2716
21
-169.53409
31
-438.0127
0
LINE
8
0
10
-158.2716
20
-169.53409
30
-438.0127
11
-130.46591
21
-158.2716
31
-438.0127
0
LINE
8
0
10
-130.46591
20
-158.2716
30
-438.0127
11
-141.7284
21
-130.46591
31
-438.0127
0
LINE
8
0
10
-141.7284
20
-130.46591
30
-438.0127
11
-169.53409
21
-141.7284
31
-438.0127
0
ENDSEC
0
EOF
